<svg xmlns="http://www.w3.org/2000/svg" viewBox="0 0 40 40"><path fill="#FFFFFF" fill-rule="evenodd" d="M11.43 26.62c-.08.18-.38.42-.8.4-.44-.03-.93-.35-1-1.15-.02-.39.12-.87.22-1.12a1.05 1.05 0 0 0-1.21-1.41c-.28.06-.52.22-.67.46a2.47 2.47 0 0 0-.27.66c-.1.25-.24.32-.34.3-.05 0-.11-.03-.15-.15-.12-.3-.03-1.2.56-1.85.37-.41.96-.62 1.53-.55.59.07 1.08.43 1.38 1.01.4.77.04 1.57-.17 2.05l-.06.15c-.14.31-.14.6-.02.78.1.14.26.23.45.23.1 0 .18-.02.25-.03.1-.03.21-.05.28.03.02.03.06.09.02.2m26.43-2c.36.44.78 1.22.78 2.45a12.34 12.34 0 0 1-.86 4.03 13.87 13.87 0 0 1-5.65 6.6c-2.48 1.5-5.5 2.29-8.7 2.29h-.6c-3.12-.1-6.07-.98-8.53-2.54a14.66 14.66 0 0 1-5.29-5.85 7.21 7.21 0 0 1-3.7-1.76 6.82 6.82 0 0 1-2.33-4.39c-.09-.86-.04-1.69.14-2.47l-.57-.49a4.5 4.5 0 0 1-1.53-3.2 9.14 9.14 0 0 1 .63-3.7C2.82 12.4 5.5 8.57 8.83 5.38a26.74 26.74 0 0 1 4.9-3.79C15.56.54 17.23 0 18.67 0c1.21 0 2.26.37 3.1 1.1l1.34 1.32.24-.1a13.9 13.9 0 0 1 5.22-1.16c3.33 0 5.49 1.8 5.5 4.58 0 1.72-.84 3.64-2.39 5.5.4.62.72 1.34.94 2.13.3.95.34 1.9.36 2.36.02.34.03.9.04 1.38 1.02.31 2.3.83 3.07 1.65a4.07 4.07 0 0 1 .75 4.61 9.66 9.66 0 0 1 .19.57c.3.17.6.4.83.7zm-1.28 5.98c.14-.37.75-2.05.75-3.53 0-1.49-.84-2.1-1.37-2.1l-.26-.92c-.15-.47-.3-.8-.3-.8.58-.87.6-1.65.51-2.1a2.66 2.66 0 0 0-.76-1.5 6.24 6.24 0 0 0-2.72-1.35l-.69-.2-.07-2.32a8.02 8.02 0 0 0-.3-2.05 5.5 5.5 0 0 0-1.41-2.53c1.72-1.8 2.8-3.77 2.8-5.47-.01-3.26-4-4.25-8.9-2.2l-1.05.44-1.9-1.88C15.3-2.8-2.2 16.75 3.4 21.5l1.22 1.04a6.07 6.07 0 0 0-.34 2.8 5.5 5.5 0 0 0 1.89 3.52 5.73 5.73 0 0 0 3.7 1.5c2.18 5.05 7.16 8.14 13 8.32 6.25.18 11.5-2.77 13.7-8.07zM9.42 20.76c1.13.06 2.8.93 3.18 3.4.34 2.2-.2 4.43-2.24 4.78a3 3 0 0 1-.58.05c-1.9-.06-3.93-1.77-4.14-3.8-.22-2.24.92-3.96 2.94-4.37.24-.05.53-.08.84-.06zm26.28 5.43c.26.16.46.5.33 1.39-.28 1.65-.98 3-2.15 4.23a8.85 8.85 0 0 1-2.58 1.94c-.53.28-1.1.52-1.69.72-4.43 1.45-8.97-.15-10.43-3.58a7.15 7.15 0 0 1 1.27-7.5v-.01c.1-.1.2-.24.2-.4 0-.13-.08-.28-.16-.38-.58-.84-2.58-2.28-2.18-5.06.29-2 2.03-3.41 3.65-3.33.14 0 .28.02.41.03.7.04 1.32.13 1.9.15.96.04 1.84-.1 2.87-.96.35-.3.62-.55 1.1-.63.05 0 .17-.05.42-.04.25.02.49.09.7.23.83.55.95 1.9.99 2.87l.11 2.3c.06.9.29 1.02.76 1.17.26.1.5.16.87.26 1.1.3 1.74.62 2.15 1.02.25.26.36.52.4.78.12.94-.74 2.11-3.01 3.18a15.21 15.21 0 0 1-8.33 1.13c-1.67-.22-2.62 1.95-1.62 3.43.65.96 2.4 1.58 4.17 1.58 4.03 0 7.13-1.73 8.28-3.22l.1-.14c.05-.08 0-.13-.07-.08-.94.65-5.12 3.22-9.6 2.45 0 0-.54-.1-1.04-.29-.4-.15-1.22-.53-1.32-1.39 3.61 1.13 5.89.07 5.89.07a.11.11 0 0 0 .06-.12.1.1 0 0 0-.11-.09s-2.96.44-5.76-.59c.3-1 1.11-.63 2.34-.53 2.2.13 4.18-.2 5.65-.62a12.92 12.92 0 0 0 4.22-2.11c.43.96.59 2.02.59 2.02s.34-.06.62.12zm-14.65-6.43c.2.02.91-.34 1.74-.4.58-.03 1.06.15 1.43.32.37.16.6.27.68.17.06-.05.04-.17-.05-.31-.18-.3-.55-.6-.95-.78a2.6 2.6 0 0 0-2.54.31c-.25.18-.48.44-.45.59.01.05.05.09.14.1zm3.7.92c.01-.03.03-.08-.02-.16-.1-.18-.6-.5-1.26-.42-.48.08-.75.24-.92.39-.14.13-.23.27-.23.37 0 .05.02.07.04.09.02.02.04.03.07.03.11 0 .36-.1.36-.1a3.05 3.05 0 0 1 1.55-.16c.24.02.35.04.4-.04zm2.02.26c-.11.24.06.57.38.73.33.16.7.1.8-.14.13-.24-.04-.57-.37-.73-.33-.16-.69-.1-.8.14zm1.74-4.78c-.52.09-.54.73-.35 1.62.1.5.29.93.5 1.2.26-.04.52-.04.76 0 .14-.32.17-.87.04-1.47-.18-.9-.43-1.43-.95-1.35zm1.22 4.34c0-.37-.2-.67-.47-.68-.27 0-.49.3-.5.66 0 .37.2.67.48.67.26 0 .48-.29.49-.65zM26.68 9.67a14.1 14.1 0 0 0-11.14 2.24c-.06.04-.13-.04-.09-.1a16.5 16.5 0 0 1 4.63-3.8c.05-.03.1.03.08.08-.12.22-.36.7-.43 1.06-.01.05.05.1.1.06a8.98 8.98 0 0 1 4.06-1.44c.06 0 .09.08.04.12-.22.17-.46.4-.64.64-.03.04 0 .1.05.1 1.02 0 2.46.37 3.4.9.06.03.01.15-.06.14zm-5.18-5s-2.83 1.58-5.45 3.78c-3.53 2.73-6.2 6.71-7.8 11.03a4.8 4.8 0 0 0-3.04 1.95c-.4-.34-1.16-1-1.3-1.26-1.08-2.06 1.18-6.07 2.76-8.34C10.57 6.23 16.7 2 19.52 2.76c.46.14 1.98 1.91 1.98 1.91z"/></svg>