<svg xmlns="http://www.w3.org/2000/svg" viewBox="0 0 224 180"><defs><style>.a{fill:#b6b6ba;}.b{fill:#b7b7b7;}</style></defs><title>socialFollow</title><polygon class="a" points="70 66 74 66 74 56 84 56 84 52 74 52 74 42 70 42 70 52 60 52 60 56 70 56 70 66"/><path class="a" d="M72,28A26,26,0,1,1,46,54,25.95,25.95,0,0,1,72,28m0-4a30,30,0,1,0,30,30A30,30,0,0,0,72,24Z"/><path class="a" d="M152,24a30,30,0,1,0,30,30A30,30,0,0,0,152,24Zm8,20h-3c-2.2,0-3,1.1-3,2.6V50h6l-1,5h-5V69h-5V55h-5V50h5V46c0-4.6,2.6-7,6.7-7,1.4,0,2.9.1,4.3.2Z"/><path class="b" d="M152,102a30,30,0,1,0,30,30,30,30,0,0,0-30-30Zm15,32v10h-6.2V134a3.64,3.64,0,0,0-3.3-3.8h-.4c-2.5,0-3.8,1.3-3.8,2.5V144H147V125h6.2v2.8c.1-.4,1.7-2.5,6.2-2.5C163.6,125.2,167,128.2,167,134Zm-30-9h6.2v19H137Zm6.2-5.4a2.89,2.89,0,0,1-2.9,3.1H140a3.1,3.1,0,1,1,0-6.2A3.08,3.08,0,0,1,143.2,119.6Z"/><path class="a" d="M72,102a30,30,0,1,0,30,30,30,30,0,0,0-30-30Zm13.6,20.5a7,7,0,0,0,3.2-.6,6.63,6.63,0,0,1-3.2,3.2c0,.3-.1.9-.1,1.2,0,9.2-6.4,19.7-19.4,19.7a20.44,20.44,0,0,1-11-3.2c3.9,0,7.1-.6,10.3-3.2-3.9.6-6.5-2.5-7.1-5.1a4.45,4.45,0,0,0,3.9,0c-6.5-.6-5.8-6.3-5.8-6.3a4,4,0,0,0,2.6.6c-1.9-1.2-3.9-5.1-1.9-9.5A21.11,21.11,0,0,0,72,126.9c-.7-1.9-.7-8.3,5.8-8.9,3.9-.4,5.2,1.3,5.8,2.6a14.87,14.87,0,0,0,4.5-1.9A5.05,5.05,0,0,1,85.6,122.5Z"/></svg>