<?xml version="1.0" encoding="UTF-8"?>
<svg width="386px" height="460px" viewBox="0 0 386 460" version="1.1" xmlns="http://www.w3.org/2000/svg" xmlns:xlink="http://www.w3.org/1999/xlink">
    <!-- Generator: Sketch 53.2 (72643) - https://sketchapp.com -->
    <title>Base Monthly Price Card@1x</title>
    <desc>Created with Sketch.</desc>
    <defs>
        <path d="M10,-5.68434189e-14 L137.526902,-5.68434189e-14 L290,-5.86197757e-14 C295.522847,-5.96343063e-14 300,4.4771525 300,10 L300,364 C300,369.522847 295.522847,374 290,374 L10,374 C4.4771525,374 6.76353751e-16,369.522847 0,364 L0,10 C-6.76353751e-16,4.4771525 4.4771525,-5.58288882e-14 10,-5.68434189e-14 Z" id="path-1"></path>
        <filter x="-25.8%" y="-13.8%" width="151.7%" height="141.4%" filterUnits="objectBoundingBox" id="filter-3">
            <feOffset dx="0" dy="26" in="SourceAlpha" result="shadowOffsetOuter1"></feOffset>
            <feGaussianBlur stdDeviation="21.5" in="shadowOffsetOuter1" result="shadowBlurOuter1"></feGaussianBlur>
            <feColorMatrix values="0 0 0 0 0   0 0 0 0 0   0 0 0 0 0  0 0 0 0.17111014 0" type="matrix" in="shadowBlurOuter1"></feColorMatrix>
        </filter>
        <linearGradient x1="42.5265016%" y1="-31.8423091%" x2="50%" y2="100%" id="linearGradient-4">
            <stop stop-color="#FF8989" offset="0%"></stop>
            <stop stop-color="#FF5151" offset="100%"></stop>
        </linearGradient>
        <linearGradient x1="85.9470658%" y1="93.2216176%" x2="-60.2692294%" y2="68.1659679%" id="linearGradient-5">
            <stop stop-color="#FF9C91" offset="0%"></stop>
            <stop stop-color="#FFFEE2" offset="100%"></stop>
        </linearGradient>
        <linearGradient x1="50%" y1="-41.6776997%" x2="50%" y2="100%" id="linearGradient-6">
            <stop stop-color="#FF8989" offset="0%"></stop>
            <stop stop-color="#FF5151" offset="100%"></stop>
        </linearGradient>
        <linearGradient x1="70.0280703%" y1="140.890471%" x2="50%" y2="-32.4904413%" id="linearGradient-7">
            <stop stop-color="#3191FF" offset="0%"></stop>
            <stop stop-color="#16C4FF" offset="100%"></stop>
        </linearGradient>
        <linearGradient x1="13.2026444%" y1="-7.80674724%" x2="98.578692%" y2="126.988315%" id="linearGradient-8">
            <stop stop-color="#FFFFFF" offset="0%"></stop>
            <stop stop-color="#000000" offset="100%"></stop>
        </linearGradient>
        <linearGradient x1="50%" y1="-35.1117754%" x2="50%" y2="212.537911%" id="linearGradient-9">
            <stop stop-color="#FFFFFF" offset="0%"></stop>
            <stop stop-color="#000000" offset="100%"></stop>
            <stop stop-color="#000000" offset="100%"></stop>
        </linearGradient>
        <linearGradient x1="40.5895221%" y1="-30.0399552%" x2="50%" y2="100%" id="linearGradient-10">
            <stop stop-color="#FFFFFF" offset="0%"></stop>
            <stop stop-color="#000000" offset="100%"></stop>
        </linearGradient>
        <linearGradient x1="36.3717447%" y1="9.07462435%" x2="75.0384859%" y2="86.5972341%" id="linearGradient-11">
            <stop stop-color="#FFFFFF" offset="0%"></stop>
            <stop stop-color="#A7A7A7" offset="24.5375485%"></stop>
            <stop stop-color="#919191" offset="34.5467721%"></stop>
            <stop stop-color="#000000" offset="100%"></stop>
        </linearGradient>
        <linearGradient x1="59.9124221%" y1="24.5339906%" x2="50%" y2="65.4613549%" id="linearGradient-12">
            <stop stop-color="#FFB4B4" offset="0%"></stop>
            <stop stop-color="#FF7C7C" offset="100%"></stop>
        </linearGradient>
        <linearGradient x1="65.77646%" y1="129.63215%" x2="6.65527523%" y2="-96.2648254%" id="linearGradient-13">
            <stop stop-color="#FF9C91" offset="0%"></stop>
            <stop stop-color="#FFFEE2" offset="100%"></stop>
        </linearGradient>
    </defs>
    <g id="Page-1" stroke="none" stroke-width="1" fill="none" fill-rule="evenodd">
        <g id="Desktop-HD-Copy-2" transform="translate(-972.000000, -166.000000)">
            <g id="Base-Monthly-Price-Card" transform="translate(1015.000000, 183.000000)">
                <g id="Group-6">
                    <g id="Group-4">
                        <g id="dogs-1190015">
                            <g id="Bronze-Member">
                                <mask id="mask-2" fill="white">
                                    <use xlink:href="#path-1"></use>
                                </mask>
                                <g id="Mask">
                                    <use fill="black" fill-opacity="1" filter="url(#filter-3)" xlink:href="#path-1"></use>
                                    <use fill="#FFFFFF" fill-rule="evenodd" xlink:href="#path-1"></use>
                                </g>
                                <g id="PET-SITTING-IMAGE" mask="url(#mask-2)">
                                    <g transform="translate(18.000000, 128.000000)">
                                        <polygon id="Path-38" stroke="none" fill="#FF4747" fill-rule="evenodd" points="142.150655 212.437995 195.41927 228.395778 97.5463412 255.469697 79.3609878 238.042054"></polygon>
                                        <polygon id="Path-32" stroke="none" fill="url(#linearGradient-4)" fill-rule="evenodd" points="191.944836 82.9979688 215.694573 74.3034301 237.102655 97.0742717 219.415053 168.855879 188.859454 147.122757"></polygon>
                                        <path d="M184.729658,37.9241536 C186.797626,50.5542033 188.378845,58.6198798 189.473315,62.1211831 C191.018796,67.0653074 192.905897,69.2269945 194.317082,71.7808194 C196.537274,75.7987072 198.736739,77.9494905 204.250117,82.4376615 C204.719286,82.8195887 204.122633,96.1870019 204.250117,96.269154 C205.265849,96.923702 209.797724,101.641026 218.147213,105.005855 C220.295028,105.87142 224.877613,105.178714 231.894967,102.927738 L231.894967,71.7808194 C231.950058,63.5868986 232.430502,58.06241 233.336299,55.2073536 C234.694995,50.924769 241.831813,51.0491121 242.7588,48.2939208 C243.685786,45.5387296 240.286656,37.9241536 236.409756,37.9241536 C234.59414,37.9241536 231.247496,38.3372813 227.717894,40.7322086 C226.22297,41.746553 225.351892,46.0446048 223.445962,45.2039991 C222.759057,44.9010416 222.352911,41.8651137 220.814063,39.3964501 C219.129467,36.6939741 216.750339,36.2146141 214.829019,33.3898291 C213.635638,31.6352831 210.857281,30.2517341 209.245422,30.2517341 C207.75701,30.2517341 203.328825,31.3352247 200.281519,33.3898291 C197.528259,35.2461778 195.549099,35.8406232 192.703527,37.2251072 C190.514499,38.2901565 187.856542,38.523172 184.729658,37.9241536 Z" id="Path-29" stroke="none" fill="url(#linearGradient-5)" fill-rule="evenodd"></path>
                                        <path d="M182.318392,38.4777653 C179.015445,36.223322 175.852371,32.6242334 176.284092,25.1366276 C176.571906,20.1448903 180.470242,15.3439633 187.9791,10.7338466 C189.235253,5.22844166 191.706313,1.83631037 195.39228,0.557452767 C199.078247,-0.721404836 203.728061,0.200116946 209.341723,3.32201811 C223.777379,1.15595605 233.0006,0.805154789 237.011388,2.26961432 C243.027569,4.46630362 241.879967,12.8312203 242.7588,15.5236008 C243.637633,18.2159814 248.831792,19.9990604 250.832419,23.0876509 C255.703634,30.6078865 252.74179,40.1469868 249.200081,44.0091851 C244.203778,49.4576034 238.375506,58.6697566 231.715265,71.6456445 C231.329934,64.4733381 231.329934,59.7947353 231.715265,57.6098361 C232.219903,54.7484452 233.789175,52.1966408 235.863785,50.9611948 C236.940965,50.3197258 238.591622,46.5473067 238.684441,45.2039991 C238.836461,43.0039239 239.255747,40.5351008 237.102655,39.349543 C232.819646,36.9911883 227.365429,47.1577731 222.230255,45.2039991 C217.095081,43.250225 216.397331,34.1718414 212.678765,32.4909615 C208.9602,30.8100816 202.802588,32.4909615 196.255677,37.2251072 C189.708766,41.959253 185.621338,40.7322086 182.318392,38.4777653 Z" id="Path-30" stroke="none" fill="url(#linearGradient-6)" fill-rule="evenodd"></path>
                                        <path d="M232.817453,71.8215927 C254.99288,69.7330279 268.222777,72.591042 272.507146,80.3956351 C276.791515,88.2002282 276.243397,108.4439 270.862794,141.126649 C267.312544,158.535942 264.806009,174.493725 263.34319,189 C261.88037,203.506275 260.768716,223.428824 260.008227,248.76765 L238.804743,252.831135 L235.787368,196.978892 C232.493908,206.463745 229.802701,213.270614 227.713749,217.399501 C225.624796,221.528387 222.933589,225.36004 219.640129,228.894459 C201.707124,236.418762 187.790997,237.396021 177.891749,231.826237 C170.322499,227.56742 147.439861,234.947876 134.554209,217.399501 C131.909865,213.79829 132.855172,201.173479 137.390129,179.525066 C131.302592,182.826552 127.433982,184.060076 125.784301,183.225638 C117.014392,178.789667 121.837389,173.360954 120.390198,170.472083 C118.571112,166.840839 118.372008,160.535037 119.792886,151.554677 C127.812805,143.112388 133.738394,136.228149 137.569654,130.90196 C143.316543,122.912676 145.358759,113.51221 155.051172,103.998018 C161.512781,97.6552226 173.885694,90.7289807 192.169911,83.219292 C196.307639,106.728083 200.081965,123.910782 203.49289,134.767387 C206.903815,145.623993 210.333169,153.063008 213.780954,157.084433 C222.638564,141.524296 228.132124,128.975281 230.261635,119.437386 C232.391145,109.899491 233.243085,94.0275603 232.817453,71.8215927 Z" id="Path-31" stroke="none" fill="url(#linearGradient-7)" fill-rule="evenodd"></path>
                                        <ellipse id="Oval" stroke="none" fill="#0088FF" fill-rule="evenodd" cx="202.483687" cy="182.51715" rx="3.02760736" ry="2.99208443"></ellipse>
                                        <ellipse id="Oval" stroke="none" fill="#0088FF" fill-rule="evenodd" cx="194.410068" cy="198.474934" rx="3.02760736" ry="2.99208443"></ellipse>
                                        <ellipse id="Oval" stroke="none" fill="#0088FF" fill-rule="evenodd" cx="187.34565" cy="215.430079" rx="3.02760736" ry="2.99208443"></ellipse>
                                        <path d="M135.876325,182.246863 C134.1645,183.591953 132.689397,184.388079 131.451016,184.635241 C119.004917,187.119287 119.132715,184.738051 125.279699,183.225638 C132.344117,181.487499 142.035844,172.275083 154.354883,155.588391 C155.62357,177.581255 155.62357,191.87677 154.354883,198.474934 C153.086195,205.073098 155.000296,215.647476 160.097184,230.198068 C155.443633,229.268316 151.016079,228.086133 146.814523,226.65152 C142.612967,225.216906 137.491798,223.138695 131.451016,220.416887 L135.876325,182.246863 Z" id="Path-33" stroke="none" fill="#0088FF" fill-rule="evenodd"></path>
                                        <path d="M184.822644,85.6175587 C188.669086,104.941953 192.907637,121.204143 197.538298,134.404127 C202.168959,147.60411 207.630181,158.99172 213.921963,168.566955 C222.45913,155.000324 228.804629,140.364212 232.958462,124.658618 C237.112295,108.953024 239.006122,91.1706002 238.639943,71.3113456 L231.879971,71.8461295 C231.934296,84.182169 231.835335,93.116611 231.583087,98.6494554 C231.200488,107.041429 230.506699,115.761049 229.272096,121.290731 C226.816529,132.289006 221.699818,144.050157 213.921963,156.574186 C210.171096,151.238806 206.741741,143.259914 203.633899,132.63751 C200.526056,122.015107 196.75173,105.372285 192.31092,82.7090449 L184.822644,85.6175587 Z" id="Path-34" stroke="none" fill="#0088FF" fill-rule="evenodd"></path>
                                        <path d="M252.47428,132.150396 C254.90893,148.653297 256.146194,160.343218 256.18607,167.220157 C256.275885,182.709534 253.192888,195.579904 251.107226,201.965699 C247.632584,212.604222 246.236767,229.226913 246.919773,251.833773 L236.525027,251.833773 L233.768963,201.965699 C237.484852,194.097055 240.602405,185.4614 243.121622,176.058732 C245.640838,166.656065 248.758391,152.019953 252.47428,132.150396 Z" id="Path-35" stroke="none" fill="#0088FF" fill-rule="evenodd"></path>
                                        <path d="M75.0430992,140.627968 C72.2566031,134.70221 71.550782,131.248086 72.9256358,130.265597 C74.3004895,129.283107 77.4230877,131.010169 82.2934303,135.446782 C80.881788,138.048011 79.3204889,140.350777 77.609533,142.35508 C75.8985771,144.359383 75.0430992,143.783679 75.0430992,140.627968 Z" id="Path-43" stroke="none" fill="url(#linearGradient-8)" fill-rule="evenodd"></path>
                                        <path d="M109.263658,127.14595 C109.63207,121.354652 109.093247,118.245548 107.647189,117.818638 C106.20113,117.391728 103.944592,119.675577 100.877574,124.670185 L109.263658,127.14595 Z" id="Path-44" stroke="none" fill="url(#linearGradient-9)" fill-rule="evenodd"></path>
                                        <path d="M106.35578,245.765012 C149.567092,234.805676 179.386272,227.905619 195.813322,225.064843 C220.453896,220.803678 230.691427,231.90524 232.759761,238.835126 C234.13865,243.45505 234.475051,247.787933 233.768963,251.833773 L106.35578,245.765012 Z" id="Path-37" stroke="none" fill="#FF7C7C" fill-rule="evenodd"></path>
                                        <path d="M220.198553,226.65152 C224.650066,231.661714 227.521857,236.149466 228.813926,240.114776 C230.105995,244.080086 230.105995,247.986418 228.813926,251.833773 L234.127643,251.833773 C235.012891,246.229326 234.19908,241.076292 231.686209,236.37467 C229.173338,231.673049 225.344119,228.431999 220.198553,226.65152 Z" id="Path-39" stroke="none" fill="#FF4747" fill-rule="evenodd"></path>
                                        <path d="M41.0177925,237.975819 C38.064149,226.583524 38.064149,216.843015 41.0177925,208.754291 C45.4482578,196.621206 53.7554565,189.255459 65.3546565,167.359562 C70.7638399,157.148605 75.3959473,129.280154 91.3519467,124.670185 C125.70198,114.745854 118.603333,160.247403 119.729086,167.359562 C120.798802,174.117697 123.490009,179.080131 127.802706,182.246863 L41.0177925,237.975819 Z" id="Path-41" stroke="none" fill="url(#linearGradient-10)" fill-rule="evenodd"></path>
                                        <path d="M38.8025598,220.416887 C28.5629219,219.738225 21.8313955,216.188069 18.6079807,209.766418 C13.7728584,200.133942 19.1104592,183.091399 14.7720308,172.543536 C10.4336023,161.995673 -3.12650084,164.645233 0.659528397,148.60686 C4.44555763,132.568487 28.124289,137.965464 34.0385164,155.588391 C39.9527438,173.211317 30.91927,177.209835 30.91927,193.488127 C30.91927,204.340321 34.1398856,210.656944 40.5811167,212.437995" id="Path-42" stroke="none" fill="url(#linearGradient-11)" fill-rule="evenodd"></path>
                                        <path d="M63.2137485,220.416887 C63.2329126,217.201074 64.4854948,213.208673 66.9714952,208.439684 C69.4574955,203.670695 75.0341556,195.266013 83.7014753,183.225638 C86.5791019,186.333659 88.8175872,188.638993 90.4169313,190.141639 C92.0162753,191.644286 94.480298,193.757143 97.8089994,196.480211 L63.2137485,220.416887 Z" id="Path-45" stroke="none" fill="#FFFFFF" fill-rule="evenodd"></path>
                                        <path d="M105.126718,188.501319 C108.706148,189.834727 111.811425,188.527833 114.442548,184.580637 C116.190428,181.958477 118.493564,164.385828 118.428572,162.359975 C118.368143,160.476398 118.577042,158.273073 118.428572,158.031151 C117.395687,156.348146 112.44505,156.424879 110.788913,156.585752 C105.814131,157.068991 101.382972,158.260916 99.3412949,161.995673 C95.058815,169.82944 96.9872894,178.664655 105.126718,188.501319 Z" id="Path-46" stroke="none" fill="#FFFFFF" fill-rule="evenodd"></path>
                                        <path d="M90.0472072,245.765012 C113.67261,238.981873 128.948982,232.449981 135.876325,226.169336 C146.26734,216.748368 149.906323,197.443513 143.949945,190.496042 C137.993567,183.548571 121.325602,177.031662 103.581847,188.501319 C91.7526768,196.147757 68.0887535,215.235655 32.5900768,245.765012 L90.0472072,245.765012 Z" id="Path-36" stroke="none" fill="url(#linearGradient-12)" fill-rule="evenodd"></path>
                                        <path d="M95.2358959,194.332595 L104.42412,187.893979 C110.10253,194.505299 111.435588,198.749219 108.423295,200.625738 C105.411002,202.502258 101.015202,200.404543 95.2358959,194.332595 Z" id="Path-47" stroke="none" fill="#FFFFFF" fill-rule="evenodd"></path>
                                        <path d="M64.0614242,170.929487 C64.0614242,171.137066 66.9200314,174.460231 72.6372457,180.898981 C72.7305712,182.121285 72.544583,183.048936 72.0792813,183.681934 C71.6089142,184.321822 70.0330086,184.391078 69.4090914,185.257952 C69.0898343,185.70153 69.2906772,186.599267 68.9051955,187.138429 C68.5798549,187.593473 67.3837392,187.864614 66.8056025,188.593092 C66.6257633,188.819697 66.3086427,189.211389 66.3086427,189.656958 C66.3086427,190.494382 65.002585,190.62484 64.0614242,191.755821 C63.2137485,192.774463 61.5320154,192.220604 61.2186817,192.407452 C60.603223,192.774463 60.9239536,193.630139 59.9560026,194.014517 C58.9880516,194.398895 56.0580958,192.959015 53.8992934,191.307987 C51.7404909,189.656958 49.776731,188.378449 49.776731,186.506596 C49.776731,185.258695 50.2048001,184.594464 51.0609383,184.513905 C50.7607064,182.605743 50.7607064,181.307251 51.0609383,180.618429 C51.3611702,179.929608 52.3072886,179.160993 53.8992934,178.312584 C54.3184754,176.438015 54.7320872,175.172503 55.1401289,174.516047 C55.5481706,173.859591 56.5374921,173.242401 58.1080933,172.664476 C58.251144,171.44433 58.8671137,170.492129 59.9560026,169.807872 C61.5893359,168.781486 64.0614242,170.618118 64.0614242,170.929487 Z" id="Path-40" stroke="none" fill="url(#linearGradient-13)" fill-rule="evenodd"></path>
                                        <path d="M95.1161153,144.603787 C97.0255389,145.464682 98.5018461,145.65628 99.5450369,145.178581 C100.588228,144.700883 101.632346,143.18451 102.677393,140.629465 C105.40802,141.082466 107.117175,141.081967 107.80486,140.627968 C108.492545,140.17397 109.016213,138.884861 109.375862,136.760642" id="Path-48" stroke="#494949" stroke-width="2" fill="none" stroke-linecap="round"></path>
                                        <ellipse id="Oval" stroke="none" fill="#494949" fill-rule="evenodd" cx="92.9852209" cy="136.139842" rx="2.52300613" ry="2.49340369"></ellipse>
                                        <ellipse id="Oval" stroke="none" fill="#494949" fill-rule="evenodd" cx="104.086448" cy="130.155673" rx="2.52300613" ry="2.49340369"></ellipse>
                                        <ellipse id="Oval" stroke="none" fill="#494949" fill-rule="evenodd" cx="101.563442" cy="138.633245" rx="2.01840491" ry="1.99472296"></ellipse>
                                        <path d="M195.827653,47.6370984 C196.680606,48.1009461 197.107082,48.9076902 197.107082,50.0573309 C197.107082,54.0173772 195.827653,60.0475716 195.827653,60.8390501 C195.827653,61.9751897 197.37353,62.2763288 200.465282,61.7424673" id="Path-49" stroke="#DF8989" stroke-width="2" fill="none" stroke-linecap="round"></path>
                                        <path d="M198.146468,70.4180262 C201.806581,70.1075085 204.549152,69.5741471 206.374181,68.817942 C208.19921,68.0617368 208.920783,67.1597215 208.538902,66.1118961" id="Path-50" stroke="#DF8989" stroke-width="2" fill="none" stroke-linecap="round"></path>
                                        <path d="M202.013306,37.7304587 C203.552975,36.3901044 204.970399,35.7542256 206.26558,35.8228223 C207.560761,35.891419 209.390082,36.6992552 211.753543,38.2463311" id="Path-51" stroke="#FF7171" stroke-width="2" fill="none" stroke-linecap="round"></path>
                                        <ellipse id="Oval" stroke="none" fill="#8D688C" fill-rule="evenodd" cx="207.529699" cy="45.878628" rx="2.01840491" ry="1.99472296"></ellipse>
                                        <ellipse id="Oval" stroke="none" fill="#8D688C" fill-rule="evenodd" cx="188.859454" cy="48.8707124" rx="2.01840491" ry="1.99472296"></ellipse>
                                        <path d="M204.502092,82.7324484 L204.502092,89.1435734 C214.718806,95.0870764 221.446822,96.9414319 224.686141,94.7066397 C227.401769,92.8331398 229.882268,78.4977906 228.364527,73.355787 C227.04779,68.8947667 229.882268,65.5523875 229.882268,65.5523875 C229.882268,65.5523875 228.057605,69.375516 225.381056,72.6767942 C222.292398,76.486371 218.163364,79.9564519 215.927307,81.8472832 C213.144797,84.2002003 209.336392,84.4952553 204.502092,82.7324484 Z" id="Path-52" stroke="none" fill="#FFAA9C" fill-rule="evenodd"></path>
                                    </g>
                                </g>
                                <text id="New-Site-Coming-Soon" mask="url(#mask-2)" font-family="ProductSans-Bold, Product Sans" font-size="40" font-weight="bold" fill="#CFCFCF">
                                    <tspan x="15" y="90.5">New </tspan>
                                    <tspan x="15" y="138.5">Site</tspan>
                                    <tspan x="15" y="186.5">Coming</tspan>
                                    <tspan x="15" y="234.5">Soon</tspan>
                                </text>
                            </g>
                        </g>
                    </g>
                </g>
            </g>
        </g>
    </g>
</svg>