<?xml version="1.0" encoding="UTF-8"?>
<svg width="2168px" height="2851px" viewBox="0 0 2168 2851" version="1.1" xmlns="http://www.w3.org/2000/svg" xmlns:xlink="http://www.w3.org/1999/xlink">
    <!-- Generator: Sketch 55.2 (78181) - https://sketchapp.com -->
    <title>Girl Sitting with corgi@1x</title>
    <desc>Created with Sketch.</desc>
    <defs>
        <filter x="-20.4%" y="-303.7%" width="140.8%" height="707.4%" filterUnits="objectBoundingBox" id="filter-1">
            <feGaussianBlur stdDeviation="115.425" in="SourceGraphic"></feGaussianBlur>
        </filter>
        <linearGradient x1="50%" y1="0%" x2="50%" y2="100%" id="linearGradient-2">
            <stop stop-color="#FF8383" offset="0%"></stop>
            <stop stop-color="#FF4C4C" offset="100%"></stop>
        </linearGradient>
        <linearGradient x1="113.482786%" y1="147.384722%" x2="36.9471912%" y2="16.8687182%" id="linearGradient-3">
            <stop stop-color="#FFFFBC" offset="0%"></stop>
            <stop stop-color="#FFAFAF" offset="100%"></stop>
        </linearGradient>
        <linearGradient x1="64.1891722%" y1="106.707232%" x2="31.5325889%" y2="54.4172918%" id="linearGradient-4">
            <stop stop-color="#FF9292" offset="0%"></stop>
            <stop stop-color="#FF5959" offset="100%"></stop>
        </linearGradient>
        <linearGradient x1="-98.1328175%" y1="12.4850877%" x2="50%" y2="70.8859797%" id="linearGradient-5">
            <stop stop-color="#FF7777" offset="0%"></stop>
            <stop stop-color="#FF4242" offset="100%"></stop>
        </linearGradient>
        <linearGradient x1="90.062325%" y1="115.395085%" x2="37.7629836%" y2="26.7377301%" id="linearGradient-6">
            <stop stop-color="#FF7777" offset="0%"></stop>
            <stop stop-color="#FF4242" offset="100%"></stop>
        </linearGradient>
        <linearGradient x1="71.5581865%" y1="36.5566027%" x2="42.1394356%" y2="61.7174099%" id="linearGradient-7">
            <stop stop-color="#FF9292" offset="0%"></stop>
            <stop stop-color="#FF5959" offset="100%"></stop>
        </linearGradient>
        <linearGradient x1="87.9357261%" y1="106.266784%" x2="50%" y2="3.27396905%" id="linearGradient-8">
            <stop stop-color="#FDF7F1" offset="0%"></stop>
            <stop stop-color="#FFFFFF" offset="100%"></stop>
        </linearGradient>
        <linearGradient x1="-81.2885863%" y1="-484.957636%" x2="50%" y2="255.476933%" id="linearGradient-9">
            <stop stop-color="#FFFFBC" offset="0%"></stop>
            <stop stop-color="#FFAFAF" offset="100%"></stop>
        </linearGradient>
        <linearGradient x1="107.89415%" y1="97.335249%" x2="0%" y2="5.99346481%" id="linearGradient-10">
            <stop stop-color="#FF9696" offset="0%"></stop>
            <stop stop-color="#FFFC9D" offset="100%"></stop>
        </linearGradient>
        <linearGradient x1="0%" y1="30.1625267%" x2="108.570253%" y2="51.8875879%" id="linearGradient-11">
            <stop stop-color="#FF9696" offset="0%"></stop>
            <stop stop-color="#FFFC9D" offset="100%"></stop>
        </linearGradient>
        <linearGradient x1="128.824543%" y1="69.5938086%" x2="-7.94483924%" y2="38.3622972%" id="linearGradient-12">
            <stop stop-color="#32A0FF" offset="0%"></stop>
            <stop stop-color="#24ADFF" offset="61.2423885%"></stop>
            <stop stop-color="#00E1FF" offset="100%"></stop>
        </linearGradient>
        <linearGradient x1="22.8159157%" y1="-7.95757835%" x2="74.9322024%" y2="119.536852%" id="linearGradient-13">
            <stop stop-color="#FF9696" offset="0%"></stop>
            <stop stop-color="#FFFC9D" offset="100%"></stop>
        </linearGradient>
        <linearGradient x1="100%" y1="50%" x2="100%" y2="-216.623412%" id="linearGradient-14">
            <stop stop-color="#FFFFFF" offset="0%"></stop>
            <stop stop-color="#DF8B28" offset="100%"></stop>
        </linearGradient>
        <linearGradient x1="100%" y1="50%" x2="100%" y2="-216.623412%" id="linearGradient-15">
            <stop stop-color="#FFFFFF" offset="0%"></stop>
            <stop stop-color="#DF8B28" offset="100%"></stop>
        </linearGradient>
        <linearGradient x1="71.6994167%" y1="113.991959%" x2="33.954076%" y2="24.6274397%" id="linearGradient-16">
            <stop stop-color="#32A0FF" offset="0%"></stop>
            <stop stop-color="#24ADFF" offset="46.6852486%"></stop>
            <stop stop-color="#00E1FF" offset="100%"></stop>
        </linearGradient>
        <linearGradient x1="6.36359858%" y1="-35.06955%" x2="169.022077%" y2="247.359931%" id="linearGradient-17">
            <stop stop-color="#FFF3D0" offset="0%"></stop>
            <stop stop-color="#FFA094" offset="0%"></stop>
            <stop stop-color="#FFFEE2" offset="100%"></stop>
        </linearGradient>
        <linearGradient x1="258.478176%" y1="98.4938244%" x2="-35.6800219%" y2="26.6151175%" id="linearGradient-18">
            <stop stop-color="#FFFFBC" offset="0%"></stop>
            <stop stop-color="#FFAFAF" offset="100%"></stop>
        </linearGradient>
        <linearGradient x1="52.0699952%" y1="35.8700381%" x2="54.5761862%" y2="63.8559048%" id="linearGradient-19">
            <stop stop-color="#00EAFF" offset="0%"></stop>
            <stop stop-color="#009AFF" offset="100%"></stop>
        </linearGradient>
        <linearGradient x1="33.4953482%" y1="-21.0923859%" x2="63.2084563%" y2="89.1046087%" id="linearGradient-20">
            <stop stop-color="#00EAFF" offset="0%"></stop>
            <stop stop-color="#009AFF" offset="100%"></stop>
        </linearGradient>
        <linearGradient x1="-204.438146%" y1="-484.957636%" x2="50%" y2="255.476933%" id="linearGradient-21">
            <stop stop-color="#FFFFBC" offset="0%"></stop>
            <stop stop-color="#FFAFAF" offset="100%"></stop>
        </linearGradient>
    </defs>
    <g id="Page-2" stroke="none" stroke-width="1" fill="none" fill-rule="evenodd">
        <g id="Group-2" transform="translate(230.000000, 0.000000)">
            <g id="Girl-Sitting-with-corgi@1x">
                <g id="Girl-SItting-with-Corgi" transform="translate(957.500000, 1392.929993) scale(-1, 1) translate(-957.500000, -1392.929993) translate(0.000000, 0.180038)">
                    <path d="M1066.75,2548.12741 C1911.67871,2516.14341 1915,2524.76364 1915,2495.94299 C1915,2467.12233 1535.22554,2443.75857 1066.75,2443.75857 C598.274461,2443.75857 218.5,2467.12233 218.5,2495.94299 C218.5,2524.76364 221.821282,2580.1114 1066.75,2548.12741 Z" id="path-1" fill="#000000" fill-rule="nonzero" opacity="0.234305246" filter="url(#filter-1)"></path>
                    <path d="M762.430423,907.088865 C854.724183,966.375501 935.839019,996.018824 1005.77494,996.018824 C1075.71087,996.018824 1139.1021,968.692286 1195.94864,914.039201 C1351.92591,922.053409 1388.61872,1024.74371 1441.79323,1101.19146 C1521.55499,1215.86307 1611.8611,1281.10388 1611.8611,1511.98677 C1611.8611,1694.55712 1537.11995,1798.42006 1441.79323,1848.19274 C1382.69944,1883.21789 1334.43294,1909.97173 1296.99373,1928.45426 C1261.537,1945.9581 1193.84699,1972.884 1093.92372,2009.23196 C1076.49625,2032.92837 1022.45718,2020.83215 1042.4867,2028.90988 C1110.14191,2056.19462 1112.41685,2126.63 1069.41695,2143.05163 C1080.52775,2159.80192 1043.15904,2161.52588 1047.56731,2170.49943 C1051.97558,2179.47297 1056.26674,2191.14156 1060.44075,2205.50522 C1042.94325,2220.66039 1070.77843,2253.34565 1060.44075,2259.00484 C944.094649,2322.69647 820.956047,2341.7411 788.536538,2370.33496 C751.796182,2402.73979 748.510868,2382.46368 745.614535,2433.12796 C679.268477,2425.58468 621.536976,2447.06308 605.775071,2331.59863 C593.139046,2239.03293 632.888968,2146.21068 635.668282,2121.76568 C638.250968,2099.0501 625.619296,2104.34584 605.775071,2091.39866 C452.433986,1991.35265 410.914154,1797.01008 407.036123,1742.86964 C387.966381,1476.64069 464.08828,1367.69513 509.486143,1236.2478 C539.751385,1148.61625 586.031374,986.194684 762.430423,907.088865 Z" id="Path-24" fill="url(#linearGradient-2)" fill-rule="nonzero"></path>
                    <path d="M746.311689,914.039201 C756.205349,934.480874 861.4794,1018.05329 1004.35112,1015.16257 C1036.99187,1014.50215 1125.21516,1031.73315 1195.94864,987.296211 C1206.60442,980.601916 1217.2371,958.473313 1227.84665,920.910383 C1212.38736,918.881641 1201.75468,916.59125 1195.94864,914.039201 C1149.82518,893.765634 1102.20186,871.179896 1093.42288,853.041315 C1082.98626,831.477796 1102.86563,786.922012 1113.30226,722.06906 C952.039962,665.09672 895.952182,690.388811 894.127169,722.06906 C880.882776,951.977337 734.317489,889.257527 746.311689,914.039201 Z" id="Path-23" fill="url(#linearGradient-3)" fill-rule="nonzero"></path>
                    <path d="M424.233649,1701.01375 C416.613385,1487.22441 503.377039,1373.0817 544.007731,1281.58422 C585.018749,1189.23026 567.367716,1073.25072 640.755328,998.117773 C664.241003,974.073555 671.276423,982.073107 731.822104,918.707823 C680.856809,940.825516 644.985562,959.3389 624.208364,974.247993 C533.046331,1039.66311 524.098001,1196.67244 509.486143,1236.2478 C473.794371,1332.91688 404.191568,1631.62925 417.458157,1797.58189 L424.233649,1701.01375 Z" id="Path-25" fill="url(#linearGradient-4)" fill-rule="nonzero"></path>
                    <path d="M417.458157,1779.81552 C429.576202,1843.83079 442.237641,1885.87989 455.442477,1905.96282 C512.163622,1992.22871 589.006527,2026.7042 641.578361,2062.459 C712.508493,2110.69954 816.104358,2137.75102 952.365956,2143.61347 L986.674797,2143.61347 C960.141652,2150.08985 628.809646,2156.79741 554.424661,2096.70048 C508.64395,2059.71344 464.861598,2029.59595 441.59395,1981.32695 C429.929925,1957.12979 421.88466,1913.47434 417.458157,1850.36058 L417.458157,1779.81552 Z" id="Path-26" fill="url(#linearGradient-5)" fill-rule="nonzero"></path>
                    <path d="M624.9972,1301.50989 C634.001279,1345.27472 649.300341,1370.94595 650.747031,1408.69472 C653.989587,1493.30334 644.895631,1580.23668 745.502941,1653.64768 C890.996959,1759.81154 877.045251,1822.86441 986.674797,1882.59513 C961.754048,1895.99562 943.503009,1909.89783 931.921689,1924.30175 C920.34036,1938.70567 916.228015,1933.46471 906.014512,1963.76138 C771.657103,1933.54506 678.156451,1911.50259 639.082687,1842.45142 C600.008923,1773.40025 595.313761,1593.08641 624.9972,1301.50989 Z" id="Path-27" fill="#FF5959" fill-rule="nonzero"></path>
                    <path d="M1156.40819,1150.1113 C1397.72224,1155.75656 1511.35004,1245.85899 1497.2916,1420.41856 C1483.23315,1594.97814 1379.18644,1709.23627 1185.15148,1763.19296 C1329.04156,1680.57274 1398.49449,1586.10695 1393.51026,1479.79557 C1388.52603,1373.48418 1309.49201,1263.58943 1156.40819,1150.1113 Z" id="Path-28" fill-opacity="0.358446241" fill="#FF5959" fill-rule="nonzero"></path>
                    <path d="M1592.72353,1646.43127 C1566.75547,1687.22601 1541.31898,1753.00704 1481.77639,1807.70023 C1465.93585,1822.25064 1383.53161,1879.09767 1308.51329,1914.57836 C1205.60249,1963.25109 1090.0124,1993.36396 1074.7006,2000.96363 C1021.28276,2027.47638 996.951952,2043.80657 1001.70816,2049.95421 C1070.27968,2033.02685 1122.92239,2019.16665 1159.63629,2008.37361 C1196.35019,1997.58057 1319.15441,1948.9617 1405.22463,1905.90704 C1438.77455,1889.12446 1486.73725,1850.43216 1523.78757,1794.13716 C1541.33191,1767.47992 1564.31057,1718.24463 1592.72353,1646.43127 Z" id="Path-53" fill="url(#linearGradient-6)" fill-rule="nonzero"></path>
                    <path d="M755.194471,896.447398 C752.92642,896.259976 750.522018,897.000541 747.981265,898.669095 L705.225518,923.869679 C702.353164,927.296245 700.827047,929.681714 700.647167,931.026086 C700.105611,935.073523 703.568219,937.684103 704.869765,939.145464 C761.519369,1002.7509 855.454381,1039.19393 986.674797,1048.47454 C1119.60782,1057.87627 1210.49602,1018.08132 1259.33935,929.089668 C1261.19955,925.700414 1260.78797,922.655225 1259.33935,920.690253 C1258.3736,919.380278 1256.52316,916.840747 1249.93795,916.337216 L1204.59584,909.07401 C1201.3906,907.120597 1197.35144,907.120597 1192.47834,909.07401 C1185.16871,912.00414 1187.07901,913.904613 1184.42117,917.161188 C1141.51508,969.732942 1081.96634,996.018824 1005.77494,996.018824 C927.199296,996.018824 846.31407,963.985891 763.119278,899.920041 C760.646539,898.015857 758.596547,896.728532 755.194471,896.447398 Z" id="Path-54" fill="url(#linearGradient-7)" fill-rule="nonzero"></path>
                    <path d="M963.010671,1029.81839 C994.731628,1046.90411 1022.52271,1063.7494 1046.38391,1080.35426 C1070.24511,1096.95912 1111.92976,1124.24071 1171.43786,1162.19902 L1118.84789,1658.48818 C869.308664,1718.64006 701.581009,1759.0825 615.664925,1779.81552 C578.22874,1788.84951 543.126302,1810.86869 512.301911,1817.52867 C497.640933,1820.69635 472.42535,1816.81482 436.655161,1805.88408 C432.517579,1740.99081 645.603013,1648.98189 697.264947,1629.4883 C791.04505,1594.10226 853.144091,1525.78322 876.506981,1492.65638 C940.031281,1402.58364 907.831741,1248.60937 897.081547,1194.52292 C882.782843,1122.58319 880.220611,1073.69923 903.148971,1045.71387 C912.94818,1033.75338 932.902083,1028.45488 963.010671,1029.81839 Z" id="Path-56" fill="url(#linearGradient-8)" fill-rule="nonzero"></path>
                    <path d="M911.408444,1959.80761 C946.408582,1977.9355 971.497373,1994.91619 986.674797,2010.74967 C1001.85223,2026.58315 1014.97742,2047.36086 1026.05037,2073.08282 C1004.82436,2130.58456 991.699175,2165.75899 986.674797,2178.60615 C958.823745,2249.82026 944.080943,2231.31854 921.175913,2219.29556 C879.028435,2197.17214 856.560739,2161.50412 878.777898,2060.57033 C879.68028,2056.47077 867.713354,2044.73439 870.372192,2035.15394 C875.182684,2017.82055 888.942102,1993.90005 894.635593,1979.13052 C896.565909,1974.12306 902.15686,1967.6821 911.408444,1959.80761 Z" id="Path-58" fill="url(#linearGradient-9)" fill-rule="nonzero"></path>
                    <path d="M911.408444,1959.80761 C946.408582,1977.9355 971.497373,1994.91619 986.674797,2010.74967 C1001.85223,2026.58315 1014.97742,2047.36086 1026.05037,2073.08282 C1004.82436,2130.58456 991.699175,2165.75899 986.674797,2178.60615 C958.823745,2249.82026 944.080943,2231.31854 921.175913,2219.29556 C879.028435,2197.17214 856.560739,2161.50412 878.777898,2060.57033 C879.68028,2056.47077 867.713354,2044.73439 870.372192,2035.15394 C875.182684,2017.82055 888.942102,1993.90005 894.635593,1979.13052 C896.565909,1974.12306 902.15686,1967.6821 911.408444,1959.80761 Z" id="Path-58" fill="url(#linearGradient-9)" fill-rule="nonzero"></path>
                    <path d="M911.408444,1959.80761 C946.408582,1977.9355 971.497373,1994.91619 986.674797,2010.74967 C1001.85223,2026.58315 1014.97742,2047.36086 1026.05037,2073.08282 C1004.82436,2130.58456 991.699175,2165.75899 986.674797,2178.60615 C958.823745,2249.82026 944.080943,2231.31854 921.175913,2219.29556 C879.028435,2197.17214 856.560739,2161.50412 878.777898,2060.57033 C879.68028,2056.47077 867.713354,2044.73439 870.372192,2035.15394 C875.182684,2017.82055 888.942102,1993.90005 894.635593,1979.13052 C896.565909,1974.12306 902.15686,1967.6821 911.408444,1959.80761 Z" id="Path-58" fill="url(#linearGradient-9)" fill-rule="nonzero"></path>
                    <path d="M916.219383,1946.56888 C933.196747,1931.11063 948.496372,1896.82985 977.071734,1872.73568 C1016.39973,1839.5751 1069.35903,1816.96513 1082.0314,1809.9825 C1156.71842,1768.8291 1214.95861,1750.91245 1264.73701,1714.05797 C1334.34643,1662.52117 1384.10011,1612.01624 1396.08765,1556.11082 C1408.31819,1499.07215 1418.91679,1370.51782 1353.16608,1273.27899 C1309.33228,1208.4531 1240.23769,1167.3972 1145.88233,1150.1113 C1052.4774,1141.58463 999.408224,1164.89818 986.674797,1220.05194 C967.024634,1305.16499 1060.58084,1364.00323 1083.4233,1446.58627 C1095.21458,1489.21563 1088.1633,1538.17209 1036.97164,1600.33573 C1022.01979,1618.49223 930.440501,1686.21133 830.280009,1701.01375 C784.208893,1707.82245 724.456889,1646.91715 679.396511,1646.43127 C606.864958,1645.64916 554.489475,1703.08969 524.189586,1714.05797 C456.096411,1738.70706 538.222821,1793.67049 570.250514,1779.81552 C588.01183,1772.13209 588.272098,1770.90308 605.775071,1770.56615 C640.684009,1769.89414 924.707281,1826.59518 916.219383,1946.56888 Z" id="Path-59" fill="url(#linearGradient-10)" fill-rule="nonzero"></path>
                    <path d="M1264.73701,1338.16414 C1263.03286,1334.35578 1246.87127,1314.28458 1244.97576,1301.0365 C1242.7489,1285.4725 1254.71399,1276.37506 1251.62685,1270.48715 C1308.72524,1259.11798 1333.62184,1271.75865 1358.56315,1270.48715 C1436.11212,1266.53371 1484.19066,1277.35589 1488.90729,1283.58449 C1493.89627,1290.17275 1448.45857,1282.5515 1370.24286,1301.0365 C1349.3071,1305.98433 1314.13848,1318.36021 1264.73701,1338.16414 Z" id="Path-60" fill="url(#linearGradient-11)" fill-rule="nonzero"></path>
                    <ellipse id="Oval" fill="#5B5B5B" fill-rule="nonzero" cx="1113.30226" cy="1185.72663" rx="19.3785356" ry="19.3520247"></ellipse>
                    <path d="M898.528654,1064.05836 C913.686974,1077.68935 997.184571,1062.69484 997.184571,1054.20436 C997.184571,1045.71387 959.538736,995.745733 934.91126,998.205585 C910.283775,1000.66545 883.370337,1050.42737 898.528654,1064.05836 Z" id="Path-61" fill="#4D4D4D" fill-rule="nonzero"></path>
                    <path d="M894.127169,1138.34653 C903.003041,1162.2133 911.434955,1178.00667 919.422924,1185.72663 C927.410893,1193.44658 941.560858,1199.89726 961.872837,1205.07865" id="Path-62" stroke="#595959" stroke-width="18" stroke-linecap="round"></path>
                    <path d="M240.561729,2209.38872 C288.645014,2378.20977 678.079856,2439.21562 783.798088,2473.19577 C889.516329,2507.17591 1242.39528,2568.15747 1255.85191,2513.64253 C1269.30854,2459.12759 1278.20418,2382.52933 1331.15412,2282.7907 L1101.3334,2305.43545 C1036.1239,2320.23713 1107.48002,2287.6002 1012.84158,2326.40951 C924.711304,2362.54996 454.683192,1964.85132 414.909682,1963.27404 C203.430163,1954.88747 236.803715,2114.17483 240.561729,2209.38872 Z" id="Path-74" fill="url(#linearGradient-12)" fill-rule="nonzero"></path>
                    <path d="M1264.73701,1338.16414 C1273.69732,1368.70667 1279.81312,1391.57663 1283.08441,1406.77401 C1286.35569,1421.97139 1288.74154,1438.59743 1290.24195,1456.65213 C1357.78764,1439.00017 1406.77566,1417.31867 1437.20602,1391.6076 C1467.63639,1365.89655 1484.87014,1329.88884 1488.90729,1283.58449 C1446.27812,1279.6069 1408.91641,1281.56146 1376.82215,1289.44815 C1344.72789,1297.33485 1307.36618,1313.57351 1264.73701,1338.16414 Z" id="Path-57" fill="#FFFEFA" fill-rule="nonzero"></path>
                    <path d="M1552.3028,1905.90704 C1606.78166,1990.88565 1519.50402,2130.62619 1520.52826,2161.41961 C1520.71469,2167.02477 1656.55473,2147.54682 1655.79073,2152.3839 C1645.15274,2219.43044 1628.48969,2247.74309 1579.95818,2367.39744 C1563.17903,2408.76642 1298.76703,2506.21158 1205.59935,2492.75985 C1029.2917,2467.30421 958.570606,2351.81776 919.422924,2318.91652 C899.175942,2301.90016 900.342593,2275.71293 933.391996,2273.27689 C998.011692,2268.51382 1138.45568,2298.555 1156.40819,2273.27689 C1174.49767,2247.80592 1292.62137,2451.3532 1274.53189,2408.2687 C1239.57242,2424.19026 1196.7001,2438.3485 1145.9149,2450.74343 C1112.01618,2459.01694 1047.01856,2472.2832 1005.77494,2483.37769 C954.335195,2497.21492 928.855148,2505.77863 919.422924,2475.10881 C902.428076,2419.84835 1075.13194,2394.5053 1096.57338,2367.39744 C1104.92379,2356.84024 1032.09708,2322.90321 1005.77494,2273.27689 C987.397998,2238.63 974.551707,2220.57091 977.132124,2200.92031 C979.588612,2182.21347 997.193628,2161.44052 992.067876,2147.70724 C1010.78275,2144.46272 1033.37984,2152.65384 1058.2447,2140.82896 C1069.2014,2135.61833 1082.99137,2095.2875 1082.09689,2069.57228 C1081.63056,2056.16601 1051.08773,2036.81573 1058.2447,2034.96496 C1096.57338,2025.0533 1260.37335,1972.5533 1292.26726,1957.68877 C1375.7101,1918.79926 1440.22606,1886.19423 1464.09258,1864.91434 C1471.77897,1858.06099 1501.16015,1826.90564 1501.16015,1826.90564 C1501.16015,1826.90564 1522.27752,1851.88161 1552.3028,1905.90704 Z" id="Path-64" fill="url(#linearGradient-13)" fill-rule="nonzero"></path>
                    <path d="M1005.77494,2409.0677 C1011.30661,2429.64684 1018.06508,2443.59553 1026.05037,2450.91377 C1034.03564,2458.23201 1047.99099,2463.26683 1067.91637,2466.01824 C982.348421,2498.32995 932.850599,2501.36014 919.422924,2475.10881 C905.995249,2448.85747 934.779252,2426.84376 1005.77494,2409.0677 Z" id="Path-65" fill="url(#linearGradient-14)" fill-rule="nonzero"></path>
                    <path d="M927.986383,2266.15031 C928.596182,2288.62316 936.022218,2303.41412 950.2645,2310.52317 C964.506772,2317.63221 995.125896,2321.83155 1042.12186,2323.12119 C923.262512,2371.7444 852.966718,2383.8506 831.234481,2359.43978 C809.502254,2335.02895 841.752879,2303.93246 927.986383,2266.15031 Z" id="Path-66" fill="url(#linearGradient-15)" fill-rule="nonzero" transform="translate(933.397340, 2318.914332) rotate(-315.000000) translate(-933.397340, -2318.914332) "></path>
                    <g id="Path-67" transform="translate(0.000000, 3.600763)"></g>
                    <path d="M1693.04412,1868.20952 C1719.25822,1862.93742 1820.94077,1874.32071 1847.74749,1976.54118 C1857.1663,2012.45737 1866.43409,2104.45021 1770.86245,2230.01439 C1741.61603,2268.43899 1560.53268,2407.61552 1336.33538,2492.00009 C1301.97742,2504.93193 987.777165,2581.739 920.913,2586.26963 C783.871835,2595.55534 873.571058,2518.9936 851.526771,2491.97714 C844.634353,2483.53012 981.528528,2414.35673 979.462762,2408.29168 C976.832331,2400.56877 1048.84786,2372.03328 1108.68006,2318.14729 C1166.21056,2266.33424 1306.06094,2159.10728 1375.68652,2116.21581 C1486.0143,2048.25054 1538.84948,1970.96342 1531.26447,1959.39897 C1609.16723,1904.62953 1663.09378,1874.23304 1693.04412,1868.20952 Z" id="Path-70" fill="url(#linearGradient-16)" fill-rule="nonzero" transform="translate(1348.070773, 2227.101925) rotate(9.000000) translate(-1348.070773, -2227.101925) "></path>
                    <path d="M878.084979,679.87598 C910.270668,697.423062 884.941055,763.890472 884.941055,804.040695 C884.941055,851.667086 915.690613,861.634245 945.65587,872.80354 C1004.5573,894.758548 1093.28523,893.339384 1140.98012,888.527989 C1123.36148,881.423646 1117.9149,870.129327 1111.78255,859.765007 C1105.6502,849.400686 1096.42132,827.038974 1096.22885,804.040695 L878.084979,679.87598 Z" id="Path-73" fill="url(#linearGradient-17)" fill-rule="nonzero"></path>
                    <path d="M1291.69037,451.455507 C1309.93349,591.532178 1154.10515,817.716526 1043.31386,827.429151 C988.199408,832.260813 943.569872,808.453415 884.184044,688.173147 C873.609874,666.756187 875.030647,614.144187 860.689926,581.940954 C847.636349,552.628103 818.787814,544.093911 809.192724,516.086744 C818.984973,444.49581 833.151678,400.141386 851.69284,383.023472 C870.234002,365.905558 911.35964,359.211966 975.069745,362.942697 C1186.57372,333.955939 1279.5283,358.07106 1291.69037,451.455507 Z" id="Path-22" fill="url(#linearGradient-18)" fill-rule="nonzero"></path>
                    <g id="Path-21" transform="translate(771.407054, 0.000000)" fill-rule="nonzero">
                        <g id="path-27-link">
                            <path d="M122.720115,722.06906 C132.23647,725.305169 115.771364,658.891148 122.720115,578.597657 C127.143752,527.482098 101.072201,531.203715 101.072201,502.863741 C101.072201,480.908998 122.720115,443.276519 148.01587,464.038164 C164.256357,477.367642 162.363862,509.107012 160.00487,532.071181 C159.136106,540.528362 156.07835,552.042768 140.404403,552.042768 C125.690119,552.042768 174.849107,573.885788 181.013759,555.883432 C185.970746,541.407768 188.496677,510.370891 194.501731,494.999799 C200.296521,480.166917 214.308931,464.268232 215.323541,464.038164 C217.512972,463.799859 217.106552,469.557779 215.323541,478.161481 C207.183013,517.442621 168.271499,637.470996 194.501731,746.099924 C213.175124,823.433238 170.743815,839.782986 174.248816,837.537372 C179.502419,834.171449 226.019831,818.987331 209.180487,746.099924 C180.695562,622.805796 237.351919,560.203203 257.636825,502.863741 C260.386573,495.091012 297.418835,487.248305 305.611101,478.161481 C326.607262,454.872633 330.949482,422.222763 346.599125,418.930141 C379.863947,411.931358 403.433049,463.772121 427.772063,478.033402 C488.312857,513.50687 576.657683,522.888237 607.23123,411.867625 C635.60885,308.820946 508.048648,222.63216 370.742314,187.31352 C261.74895,159.277687 305.496242,218.35413 391.329057,131.515919 C413.193641,109.395226 385.901058,27.8437041 324.821798,3.60076256 C300.255137,-6.14998013 133.043695,3.38647723 78.1303204,48.1887126 C35.2505898,83.1730459 95.8080604,199.560313 101.072201,199.949362 C103.707302,200.14411 105.957946,206.6782 78.1303204,229.684037 C29.6558419,269.759174 9.80340791,327.757784 3.94013635,362.487128 C1.45430882,377.211188 -0.369313943,475.679168 0.359965961,478.033402 C28.6522729,569.365568 69.6163674,533.769029 87.9198433,592.823078 C104.345055,645.817124 115.771364,719.706084 122.720115,722.06906 Z" id="path-27" fill="url(#linearGradient-20)"></path>
                            <path d="M448.195381,1974.99568 C426.19369,2045.64182 407.59916,2096.54294 397.183065,2106.59973 C380.916886,2122.30482 329.031356,2143.62036 302.613444,2143.62036 C298.130804,2143.62036 311.97487,2112.21617 332.758563,2046.23599 C340.240423,2022.48398 350.666429,1993.9622 358.587612,1961.21844 C359.261673,1958.43207 372.946545,1984.94753 397.183065,1987.21244 C415.878233,1988.9595 437.200287,1979.82644 448.195381,1974.99568 Z" id="Path-58" fill="url(#linearGradient-21)" transform="translate(374.982191, 2052.316952) scale(-1, 1) rotate(-270.000000) translate(-374.982191, -2052.316952) "></path>
                        </g>
                    </g>
                    <g id="Face" transform="translate(1043.227412, 478.123134)">
                        <path d="M114.015057,103.355133 C109.952653,108.954558 107.003179,117.465847 105.166637,128.889 C102.334586,146.504137 105.120641,165.583339 105.166637,166.788812 C105.419566,173.41776 112.612562,202.671181 105.166637,215.469593 C102.307707,220.383659 90.2433743,226.062221 74.7787674,224.910302" id="Path-75" stroke="#FFB5A5" stroke-width="12.5311835" stroke-linecap="round"></path>
                        <path d="M98.3106689,38.9774589 C78.7973095,24.6616298 63.3187151,15.9485898 51.8748863,12.8383388 C40.4310575,9.72808777 23.8326586,9.72311028 2.07968967,12.8234062" id="Path-77" stroke="#00A3FF" stroke-width="9.72" stroke-linecap="round" transform="translate(50.195179, 24.739685) rotate(-13.000000) translate(-50.195179, -24.739685) "></path>
                        <path d="M237.621253,89.2117268 C224.536028,77.689494 214.154632,70.6790226 206.477065,68.1803129 C198.799498,65.6816031 187.660712,65.6882039 173.060709,68.2001151" id="Path-77" stroke="#009EFF" stroke-width="9.72" stroke-linecap="round" transform="translate(205.340981, 77.761472) rotate(30.000000) translate(-205.340981, -77.761472) "></path>
                        <ellipse id="Oval" fill="#8D688C" fill-rule="nonzero" cx="172.870105" cy="151.072462" rx="18.71823" ry="18.7263739"></ellipse>
                        <ellipse id="Oval" fill="#8D688C" fill-rule="nonzero" cx="34.2832105" cy="95.9735695" rx="18.71823" ry="18.7263739"></ellipse>
                    </g>
                </g>
                <path d="M818.771148,764.07051 C846.533037,759.222107 850.823345,759.451152 867.22775,747.538748 C883.632163,735.626344 892.461633,723.927573 893.716178,712.442435" id="Path-76" stroke="#DF8989" stroke-width="12.9111837" stroke-linecap="round"></path>
            </g>
        </g>
    </g>
</svg>