<?xml version="1.0" encoding="UTF-8"?>
<svg width="207px" height="309px" viewBox="0 0 207 309" version="1.1" xmlns="http://www.w3.org/2000/svg" xmlns:xlink="http://www.w3.org/1999/xlink">
    <!-- Generator: Sketch 55 (78076) - https://sketchapp.com -->
    <title>Girl Sitting with corgi@1x</title>
    <desc>Created with Sketch.</desc>
    <defs>
        <linearGradient x1="50%" y1="-252.578638%" x2="62.5071613%" y2="100%" id="linearGradient-1">
            <stop stop-color="#FFFFBC" offset="0%"></stop>
            <stop stop-color="#FFAFAF" offset="100%"></stop>
        </linearGradient>
        <linearGradient x1="50%" y1="0%" x2="50%" y2="100%" id="linearGradient-2">
            <stop stop-color="#FF8383" offset="0%"></stop>
            <stop stop-color="#FF4C4C" offset="100%"></stop>
        </linearGradient>
        <linearGradient x1="113.482786%" y1="160.080526%" x2="36.9471912%" y2="12.5494755%" id="linearGradient-3">
            <stop stop-color="#FFFFBC" offset="0%"></stop>
            <stop stop-color="#FFAFAF" offset="100%"></stop>
        </linearGradient>
        <linearGradient x1="65.9423768%" y1="106.707232%" x2="29.250768%" y2="54.4172918%" id="linearGradient-4">
            <stop stop-color="#FF9292" offset="0%"></stop>
            <stop stop-color="#FF5959" offset="100%"></stop>
        </linearGradient>
        <linearGradient x1="-98.1328175%" y1="-16.1673737%" x2="50%" y2="86.8378956%" id="linearGradient-5">
            <stop stop-color="#FF7777" offset="0%"></stop>
            <stop stop-color="#FF4242" offset="100%"></stop>
        </linearGradient>
        <linearGradient x1="90.062325%" y1="80.2440626%" x2="37.7629836%" y2="39.2416144%" id="linearGradient-6">
            <stop stop-color="#FF7777" offset="0%"></stop>
            <stop stop-color="#FF4242" offset="100%"></stop>
        </linearGradient>
        <linearGradient x1="71.5581865%" y1="36.6249517%" x2="42.1394356%" y2="61.6578362%" id="linearGradient-7">
            <stop stop-color="#FF9292" offset="0%"></stop>
            <stop stop-color="#FF5959" offset="100%"></stop>
        </linearGradient>
        <linearGradient x1="89.2929534%" y1="106.266784%" x2="50%" y2="3.27396905%" id="linearGradient-8">
            <stop stop-color="#FDF7F1" offset="0%"></stop>
            <stop stop-color="#FFFFFF" offset="100%"></stop>
        </linearGradient>
        <linearGradient x1="-81.3690538%" y1="-484.957636%" x2="50%" y2="255.476933%" id="linearGradient-9">
            <stop stop-color="#FFFFBC" offset="0%"></stop>
            <stop stop-color="#FFAFAF" offset="100%"></stop>
        </linearGradient>
        <linearGradient x1="107.89415%" y1="84.9584075%" x2="0%" y2="17.4999409%" id="linearGradient-10">
            <stop stop-color="#FF9696" offset="0%"></stop>
            <stop stop-color="#FFFC9D" offset="100%"></stop>
        </linearGradient>
        <linearGradient x1="0%" y1="33.5308462%" x2="108.570253%" y2="51.5670834%" id="linearGradient-11">
            <stop stop-color="#FF9696" offset="0%"></stop>
            <stop stop-color="#FFFC9D" offset="100%"></stop>
        </linearGradient>
        <linearGradient x1="50%" y1="-10.233099%" x2="35.5092343%" y2="78.479314%" id="linearGradient-12">
            <stop stop-color="#32A0FF" offset="0%"></stop>
            <stop stop-color="#24ADFF" offset="61.2423885%"></stop>
            <stop stop-color="#00E1FF" offset="100%"></stop>
        </linearGradient>
        <linearGradient x1="104.726533%" y1="111.163936%" x2="2.73569676%" y2="0%" id="linearGradient-13">
            <stop stop-color="#FF9696" offset="0%"></stop>
            <stop stop-color="#FFFC9D" offset="100%"></stop>
        </linearGradient>
        <linearGradient x1="100%" y1="50%" x2="100%" y2="-216.623412%" id="linearGradient-14">
            <stop stop-color="#FFFFFF" offset="0%"></stop>
            <stop stop-color="#DF8B28" offset="100%"></stop>
        </linearGradient>
        <linearGradient x1="100%" y1="50%" x2="100%" y2="-216.623412%" id="linearGradient-15">
            <stop stop-color="#FFFFFF" offset="0%"></stop>
            <stop stop-color="#DF8B28" offset="100%"></stop>
        </linearGradient>
        <linearGradient x1="57.9009511%" y1="111.163936%" x2="18.0429195%" y2="-69.5645403%" id="linearGradient-16">
            <stop stop-color="#FF9696" offset="0%"></stop>
            <stop stop-color="#FFFC9D" offset="100%"></stop>
        </linearGradient>
        <linearGradient x1="50%" y1="12.5944568%" x2="31.9882509%" y2="112.74617%" id="linearGradient-17">
            <stop stop-color="#32A0FF" offset="0%"></stop>
            <stop stop-color="#24ADFF" offset="36.6569479%"></stop>
            <stop stop-color="#00E1FF" offset="100%"></stop>
        </linearGradient>
        <linearGradient x1="70.6423159%" y1="176.104654%" x2="-18.6925952%" y2="-65.6384991%" id="linearGradient-18">
            <stop stop-color="#32A0FF" offset="0%"></stop>
            <stop stop-color="#24ADFF" offset="46.6852486%"></stop>
            <stop stop-color="#00E1FF" offset="100%"></stop>
        </linearGradient>
        <linearGradient x1="41.2951387%" y1="-45.323552%" x2="57.4544459%" y2="104.308541%" id="linearGradient-19">
            <stop stop-color="#32A0FF" offset="0%"></stop>
            <stop stop-color="#00E1FF" offset="100%"></stop>
        </linearGradient>
        <linearGradient x1="6.36359858%" y1="-18.8223282%" x2="169.022077%" y2="209.666649%" id="linearGradient-20">
            <stop stop-color="#FF9C91" offset="0%"></stop>
            <stop stop-color="#FFFEE2" offset="100%"></stop>
        </linearGradient>
        <linearGradient x1="243.0652%" y1="100%" x2="-29.345622%" y2="25.8888036%" id="linearGradient-21">
            <stop stop-color="#FFFFBC" offset="0%"></stop>
            <stop stop-color="#FFAFAF" offset="100%"></stop>
        </linearGradient>
        <linearGradient x1="96.5670267%" y1="111.163936%" x2="-21.719575%" y2="-35.3284757%" id="linearGradient-22">
            <stop stop-color="#FF9696" offset="0%"></stop>
            <stop stop-color="#FFFC9D" offset="100%"></stop>
        </linearGradient>
        <linearGradient x1="83.3308591%" y1="50%" x2="18.2682398%" y2="-79.5374686%" id="linearGradient-23">
            <stop stop-color="#FFFFFF" offset="0%"></stop>
            <stop stop-color="#DF8B28" offset="100%"></stop>
        </linearGradient>
        <linearGradient x1="95.349849%" y1="30.6019973%" x2="21.6543664%" y2="84.2037162%" id="linearGradient-24">
            <stop stop-color="#32A0FF" offset="0%"></stop>
            <stop stop-color="#00E1FF" offset="100%"></stop>
        </linearGradient>
        <linearGradient x1="27.6400615%" y1="32.2835398%" x2="63.3499355%" y2="65.1419877%" id="linearGradient-25">
            <stop stop-color="#00EAFF" offset="0%"></stop>
            <stop stop-color="#009AFF" offset="100%"></stop>
        </linearGradient>
        <linearGradient x1="61.2273757%" y1="35.8700381%" x2="74.8206191%" y2="63.8559048%" id="linearGradient-26">
            <stop stop-color="#00EAFF" offset="0%"></stop>
            <stop stop-color="#009AFF" offset="100%"></stop>
        </linearGradient>
        <path d="M96.9417007,79.2397117 C97.9991735,79.5992032 98.5667781,68.0968053 96.9417007,58.8495597 C95.9479148,53.1945785 90.1731064,47.2181552 94.3923618,43.0908384 C99.9484552,37.6558137 99.9484552,53.1945785 107.732529,52.347596 C115.516603,51.5006136 113.788607,47.2552943 119.563172,43.0908384 C124.1293,39.7978738 131.982499,43.988496 136.455942,46.6088767 C143.183333,50.5495384 149.789529,53.1463889 153.186911,40.8133778 C156.340278,29.3661716 142.165582,19.7916679 126.90788,15.8682057 C114.796361,12.7537728 101.945667,14.6177879 96.9417007,11.850725 C85.6338995,5.59780543 85.6628727,-2.23528015 71.2333605,0.596451316 C56.8038484,3.42818278 61.9896644,15.6168337 48.4068847,20.1998349 C34.8241051,24.7828362 25.7206178,9.94024253 13.596503,19.3070547 C1.47238827,28.6738668 10.7736023,34.4799069 8.76558209,52.347596 C8.18533366,57.5107407 5.85226305,58.9418028 4.21192939,62.4988415 C0.17568919,71.2513672 -3.46138406,79.2581464 5.8619112,88.1307067 C18.9742067,100.609088 38.1634345,74.0346102 44.6628501,71.8640447 C51.1622657,69.6934792 59.2096344,78.0485022 65.9367473,75.8061005 C70.0171339,74.445953 72.1751275,62.2271744 75.9392801,53.1567988 C78.3808826,47.2733361 82.2174339,42.8666962 85.251183,43.0908384 C86.4664796,43.1806281 85.798337,44.9147185 86.1482285,46.6088767 C88.6121292,58.5389698 95.3090898,78.6846999 96.9417007,79.2397117 Z" id="path-27"></path>
        <linearGradient x1="-42.1713135%" y1="32.5168863%" x2="50%" y2="93.32257%" id="linearGradient-28">
            <stop stop-color="#00EAFF" offset="0%"></stop>
            <stop stop-color="#009AFF" offset="100%"></stop>
        </linearGradient>
    </defs>
    <g id="Page-2" stroke="none" stroke-width="1" fill="none" fill-rule="evenodd">
        <g id="Nail-Trim-Card" transform="translate(-122.000000, 0.000000)">
            <g id="Screen-Shot-2019-02-19-at-10.02.40-PM" transform="translate(0.000000, 0.500000)">
                <g id="Girl-Sitting-with-corgi" transform="translate(122.000000, -3.000000)">
                    <g id="Girl-SItting-with-Corgi" transform="translate(117.000000, 155.500000) scale(-1, 1) translate(-117.000000, -155.500000) ">
                        <path d="M173.389787,190.727142 C173.589611,197.560684 173.589611,202.211429 173.389787,204.679377 C173.189963,207.147325 172.8915,209.600597 172.494399,212.039191 L162.880579,201.383166 L173.389787,190.727142 Z" id="Path-55" fill="url(#linearGradient-1)"></path>
                        <path d="M84.7225023,100.366307 C94.9783342,106.952316 103.991946,110.245321 111.763339,110.245321 C119.534732,110.245321 126.578868,107.209682 132.895748,101.138403 C150.228195,102.028682 161.848837,106.720018 167.757675,115.212413 C176.620931,127.951005 179.112613,141.91473 179.112613,167.562951 C179.112613,184.661765 173.816184,195.975735 163.223325,201.504862 L172.494399,211.322601 C165.731961,220.514781 158.467518,226.772503 150.70107,230.095769 C142.934623,233.419035 130.641138,235.530156 113.820617,236.429133 C115.055267,238.289882 115.91752,239.71868 116.407375,240.715529 C116.897229,241.712378 117.374069,243.008614 117.837892,244.604238 C115.893542,246.287789 114.346997,247.443897 113.198257,248.072562 C100.26969,255.147911 91.2259643,259.738352 87.623456,262.914775 C83.5408082,266.514549 81.3385616,271.128523 81.0167164,276.756695 C64.6974573,274.90183 54.4502841,269.423985 50.2751966,260.323159 C43.9793264,246.599466 45.9715318,203.553227 45.2305126,193.211171 C43.111452,163.636441 45.2305126,142.752151 50.2751966,128.149985 C53.6383193,118.415208 65.1207545,109.153981 84.7225023,100.366307 Z" id="Path-24" fill="url(#linearGradient-2)"></path>
                        <path d="M82.9313625,101.138403 C84.030762,103.409219 95.7289849,112.693077 111.605122,112.371953 C115.232214,112.298589 125.035729,114.212739 132.895748,109.276347 C134.079836,108.532694 135.261356,106.074481 136.440307,101.901706 C134.722445,101.676338 133.540925,101.421904 132.895748,101.138403 C127.770435,98.8862615 125.139345,96.2275707 124.163811,94.2125997 C123.004076,91.8171605 123.004076,87.0172621 124.163811,79.8129046 C106.244084,73.4839852 97.1828206,72.0791667 96.9800222,75.5984489 C95.5082838,101.138403 81.5985476,98.3854668 82.9313625,101.138403 Z" id="Path-23" fill="url(#linearGradient-3)"></path>
                        <path d="M47.1415295,188.561501 C46.2947535,164.812161 48.1288397,147.855374 52.6437879,137.69114 C57.2009986,127.431762 59.1597559,124.568531 67.3147061,116.222194 C69.9244723,113.55118 74.5933223,108.696125 81.3212563,101.657029 C75.6579103,104.11403 71.6718393,106.170637 69.3630434,107.826852 C59.2329708,115.093659 51.8988899,123.753654 50.2751966,128.149985 C46.3090692,138.888719 45.4572808,140.052425 44.4140649,155.883255 C43.7185876,166.437142 44.1079513,180.931723 45.5821562,199.367 L47.1415295,188.561501 Z" id="Path-25" fill="url(#linearGradient-4)"></path>
                        <path d="M46.3886259,197.315399 C47.7352026,204.426701 49.1421622,209.097834 50.609505,211.328798 C56.9124504,220.911867 65.4513583,224.741665 71.2932256,228.71358 C79.1750966,234.072504 90.6868368,237.077588 105.828446,237.728833 L108.573792,249.866431 C105.625386,250.585877 103.633067,250.83498 102.596836,250.61374 C82.732174,246.372543 69.8743453,239.193405 61.6085654,232.517383 C56.5213388,228.408582 51.6561729,225.062903 49.0706342,219.700816 C47.7745089,217.012813 46.8805061,212.163234 46.3886259,205.152079 L46.3886259,197.315399 Z" id="Path-26" fill="url(#linearGradient-5)"></path>
                        <path d="M69.4507002,144.181584 C72.6938368,159.940204 77.1574344,172.979582 82.8414931,183.299719 C88.5255517,193.619856 97.4586874,202.097596 109.6409,208.732937 C106.871666,210.221565 104.843581,211.765928 103.556646,213.366025 C102.26971,214.966122 101.058772,217.448963 99.923831,220.814547 C84.9938183,217.457889 75.3578421,211.944197 71.0159023,204.27347 C66.6739624,196.602743 66.1522284,176.572114 69.4507002,144.181584 Z" id="Path-27" fill="#FF5959"></path>
                        <path d="M128.501949,127.363081 C155.317157,127.9902 167.943662,137.99946 166.381465,157.390861 C164.819268,176.782262 153.257429,189.474921 131.69595,195.468839 C147.685249,186.290759 155.402971,175.796783 154.849115,163.986909 C154.295259,152.177034 145.512871,139.969092 128.501949,127.363081 Z" id="Path-28" fill="#FF5959"></path>
                        <path d="M163.223325,201.504862 C148.402209,207.761161 137.385125,212.693475 130.172071,216.301802 C122.959017,219.91013 119.673608,222.132634 120.315842,222.969315 C129.575111,220.665537 136.683499,218.779194 141.641007,217.310285 C146.598515,215.841376 154.888334,212.177098 166.510465,206.317452 L163.223325,201.504862 Z" id="Path-53" fill="url(#linearGradient-6)"></path>
                        <path d="M83.9184316,99.1841722 C83.6664021,99.1633519 83.399221,99.2456195 83.1168884,99.4309752 L78.3658007,102.230447 C78.04662,102.611096 77.8770354,102.876092 77.8570469,103.025435 C77.7968683,103.475055 78.1816389,103.765058 78.3262688,103.927397 C84.6212645,110.993171 95.059475,115.041539 109.6409,116.072499 C124.412633,117.116915 134.512276,112.69619 139.939826,102.810323 C140.146535,102.433819 140.314712,101.914155 140.153739,101.695871 C140.046424,101.550349 139.626887,101.44962 138.895128,101.393684 L133.856639,100.586832 C133.500467,100.369832 133.051629,100.369832 132.510123,100.586832 C131.697865,100.912333 131.91014,101.123452 131.614797,101.485217 C126.847003,107.325286 120.22985,110.245321 111.763339,110.245321 C103.031886,110.245321 94.0437889,106.68686 84.799049,99.5699397 C84.5242742,99.3584085 84.2964758,99.2154027 83.9184316,99.1841722 Z" id="Path-54" fill="url(#linearGradient-7)"></path>
                        <path d="M107.011304,114.000033 C110.536188,115.898044 113.624378,117.769347 116.275873,119.613941 C118.927368,121.458534 123.559434,124.48918 130.172071,128.705877 L124.328188,183.837439 L48.521828,200.211292 C48.0620532,193.002456 49.3549955,188.471346 52.4006551,186.617964 C54.1122821,185.576384 55.4418958,184.382107 57.356348,183.837439 C63.8805123,181.98129 71.7404514,182.781408 77.4812091,180.615912 C87.9022059,176.684963 94.8027518,169.095566 97.398874,165.415585 C104.457797,155.409623 100.879732,138.304993 99.6851531,132.296661 C98.0962579,124.30505 97.8115385,118.874649 100.359375,115.765823 C101.448279,114.437161 103.665589,113.848564 107.011304,114.000033 Z" id="Path-56" fill="url(#linearGradient-8)"></path>
                        <path d="M101.277181,217.310285 C105.166453,219.324069 107.95436,221.210412 109.6409,222.969315 C111.327441,224.728218 112.785933,227.036364 114.016377,229.893754 C111.657709,236.281483 110.199217,240.188926 109.6409,241.616085 C106.546046,249.527088 104.907802,247.471777 102.362558,246.136174 C97.679062,243.678536 95.1824153,239.716262 97.6512219,228.503772 C97.7514961,228.048361 96.4217119,226.744595 96.7171663,225.680326 C97.251716,223.754802 98.7806848,221.097532 99.4133547,219.45682 C99.6278545,218.900554 100.24913,218.185043 101.277181,217.310285 Z" id="Path-58" fill="url(#linearGradient-9)"></path>
                        <path d="M109.865574,208.796427 C114.34857,204.715814 117.805739,202.005864 120.23708,200.666576 C128.536422,196.094944 135.008167,194.104627 140.539623,190.010552 C148.274734,184.285454 153.803444,178.674983 155.135519,172.464585 C156.494596,166.128298 157.67233,151.847508 150.366004,141.045482 C145.495121,133.844131 137.817219,129.28333 127.332299,127.363081 C116.952992,126.415874 111.055859,129.00572 109.6409,135.132618 C107.457342,144.58762 117.853459,151.123818 120.39175,160.297768 C121.702016,165.033361 120.918467,170.471815 115.229967,177.377424 C113.568493,179.394385 103.392054,186.917136 92.2620581,188.561501 C78.9019497,190.535345 63.438879,188.035154 57.9801675,190.010552 C50.4135437,192.74876 47.2306117,196.580197 48.4313715,201.504862 C60.2026239,199.581074 69.8859031,199.149884 77.4812091,200.211292 C85.0765151,201.2727 95.8713035,204.134411 109.865574,208.796427 Z" id="Path-59" fill="url(#linearGradient-10)"></path>
                        <path d="M140.539623,148.253416 C140.127783,147.333336 139.642176,146.504065 139.082801,145.765602 C138.523426,145.027139 137.926212,144.052497 137.291161,142.841675 C143.636026,141.578702 148.194217,140.876591 150.965735,140.735343 C159.583103,140.296165 164.925668,141.498375 165.449787,142.190295 C166.004171,142.922169 160.95506,142.075543 152.263604,144.128997 C149.937188,144.678639 146.029194,146.053445 140.539623,148.253416 Z" id="Path-60" fill="url(#linearGradient-11)"></path>
                        <ellipse id="Oval" fill="#5B5B5B" cx="123.711948" cy="131.319502" rx="2.15337423" ry="2.14976959"></ellipse>
                        <path d="M99.8459579,117.803668 C101.530375,119.317902 110.808763,117.652198 110.808763,116.709011 C110.808763,115.765823 106.625497,110.214984 103.888852,110.488243 C101.152206,110.761503 98.1615412,116.289435 99.8459579,117.803668 Z" id="Path-61" fill="#4D4D4D"></path>
                        <path d="M99.3568578,126.056161 C100.343159,128.707463 101.280127,130.46191 102.167763,131.319502 C103.055399,132.177093 104.627766,132.893683 106.884866,133.469271" id="Path-62" stroke="#595959" stroke-width="2" stroke-linecap="round"></path>
                        <path d="M85.9043537,286.06701 C107.398678,291.07922 124.01963,295.472711 135.767211,299.247483 C147.514793,303.022255 155.418593,306.064591 159.478612,308.37449 C161.964073,308.345751 163.954465,305.303416 165.449787,299.247483 C166.945109,293.19155 170.634711,284.623722 176.518594,273.543999 L150.715277,231.928416 C136.402601,235.176206 127.067618,237.967169 122.710327,240.301306 C114.012814,244.960436 113.395507,251.901855 105.611184,256.124289 C91.9771619,263.519764 85.4082185,273.50067 85.9043537,286.06701 Z" id="Path-74" fill="url(#linearGradient-12)"></path>
                        <path d="M140.539623,148.253416 C141.535307,151.646312 142.214905,154.186881 142.578416,155.875121 C142.941926,157.563361 143.207045,159.410307 143.373773,161.41596 C150.87956,159.455047 156.323188,157.046501 159.704659,154.190321 C163.08613,151.334142 165.001173,147.334133 165.449787,142.190295 C160.712765,141.748434 156.561071,141.965561 152.994705,142.841675 C149.428339,143.717789 145.276645,145.521703 140.539623,148.253416 Z" id="Path-57" fill="#FFFEFA"></path>
                        <path d="M172.494399,211.322601 C178.548178,220.762669 181.631975,227.193086 181.74579,230.613852 C181.766507,231.236516 184.079042,238.16578 183.993785,238.703119 C182.812034,246.151157 178.932555,256.859341 173.539655,270.151453 C168.146755,283.443565 128.501949,300.096726 121.853008,294.510408 C115.204068,288.92409 138.612847,282.796498 141.628046,278.552234 C143.638178,275.722726 143.638178,271.914895 141.628046,267.128742 C137.743293,268.89743 132.979251,270.470235 127.335918,271.847157 C123.569037,272.766242 116.346396,274.239958 111.763339,275.472418 C106.047271,277.009563 103.215887,277.960885 102.167763,274.553848 C100.279268,268.415098 119.470401,265.599799 121.853008,262.588453 C123.441414,260.580889 121.888291,253.289914 117.193641,240.715529 C130.504239,238.408631 141.408347,235.041406 149.905965,230.613852 C158.403582,226.186298 165.93306,219.755881 172.494399,211.322601 Z" id="Path-64" fill="url(#linearGradient-13)"></path>
                        <path d="M111.763339,267.217501 C112.378027,269.503588 113.129039,271.053114 114.016377,271.86608 C114.903714,272.679046 116.454454,273.238352 118.668595,273.543999 C109.160146,277.133429 103.659868,277.470045 102.167763,274.553848 C100.675658,271.63765 103.874183,269.192201 111.763339,267.217501 Z" id="Path-65" fill="url(#linearGradient-14)"></path>
                        <path d="M132.604177,284.143873 C132.671546,286.640699 133.496361,288.283916 135.078623,289.073522 C136.660884,289.863127 140.062738,290.329172 145.284184,290.471657 C132.077536,295.875942 124.267144,297.222193 121.853008,294.510408 C119.438873,291.798623 123.022595,288.343111 132.604177,284.143873 Z" id="Path-66" fill="url(#linearGradient-15)"></path>
                        <path d="" id="Path-67" stroke="#979797" stroke-width="1.43457597"></path>
                        <path d="M171.85111,212.237089 C177.661243,224.465 179.603478,235.05159 177.677815,243.996859 C176.736872,248.36781 162.806821,265.213078 159.35888,271.86608 C156.953305,276.507777 155.883956,280.942231 156.150834,285.169443 C164.44228,280.836204 169.675706,276.961056 171.85111,273.543999 C179.775593,261.096468 181.47712,247.107202 182.658041,241.621481 C184.325236,233.876875 180.722925,224.082078 171.85111,212.237089 Z" id="Path-68" fill="url(#linearGradient-16)"></path>
                        <path d="M55.290238,267.297687 C60.9835343,273.762764 65.870583,278.300197 69.9513843,280.909987 C74.0321857,283.519777 79.5697459,285.275002 86.564065,286.175664 C85.1682727,282.684577 86.8422467,277.914716 91.5859868,271.86608 C95.3688176,267.042678 102.884501,262.159281 111.763339,253.471302 C113.266932,252.00003 115.291783,249.044342 117.837892,244.604238 C103.892271,251.294375 94.3802138,256.676976 89.3017212,260.752041 C85.2066498,264.037993 82.2714755,268.72467 81.3212563,273.543999 C81.1691278,274.315566 81.0603251,275.305786 80.9948484,276.514659 C76.8208217,276.094979 73.4584132,275.484105 70.907623,274.682039 C68.3568328,273.879972 63.1510378,271.418522 55.290238,267.297687 Z" id="Path-69" fill="url(#linearGradient-17)"></path>
                        <path d="M173.539655,200.211292 C181.860279,196.399571 188.516694,193.991734 193.5089,192.987782 C198.501107,191.98383 207.401878,191.447218 220.211214,191.377947 C211.774912,195.774283 206.719224,198.718732 205.044152,200.211292 C198.735838,205.832265 196.026076,213.024738 193.5089,217.310285 C189.98913,223.302771 186.507854,230.966444 183.065071,240.301306 C182.335471,234.342325 181.309791,229.422831 179.988033,225.542824 C178.666275,221.662817 176.168397,216.922742 172.494399,211.322601 L173.539655,200.211292 Z" id="Path-70" fill="url(#linearGradient-18)"></path>
                        <path d="M223.860403,191.9135 C225.858109,192.620147 227.429005,194.308536 228.797195,195.468839 C241.860248,206.547049 226.86473,237.548762 193.681217,290.006697 C191.068357,294.137219 187.529642,301.068743 183.065071,310.801267 L162.880579,299.247483 C168.929181,282.580113 173.225128,270.360436 175.76842,262.588453 C190.611508,217.229823 199.343246,193.360111 215.111342,191.9135 C217.723341,191.673867 220.821778,190.838649 223.860403,191.9135 Z" id="Path-71" fill="url(#linearGradient-19)"></path>
                        <path d="M95.9800222,75.5984489 C98.4043303,85.6331533 101.705945,92.1367417 105.884866,95.1092141 C110.063786,98.0816866 117.269481,99.0519623 127.501949,98.0200413 C125.544137,97.2308371 124.224513,96.2605614 123.543076,95.1092141 C122.861639,93.9578668 122.510228,92.1047815 122.488841,89.5499583 L95.9800222,75.5984489 Z" id="Path-73" fill="url(#linearGradient-20)"></path>
                        <path d="M145.622922,46.9358792 C147.650127,63.153016 127.755903,91.449349 115.444595,92.5738116 C107.237057,93.3234534 98.7252581,80.2930398 89.909199,53.4825709 C90.9973295,45.194253 92.5715567,40.0591955 94.6318806,38.0773983 C96.6922046,36.0956011 101.262152,35.320662 108.341722,35.7525809 C131.844386,32.3966886 144.271453,36.1244547 145.622922,46.9358792 Z" id="Path-22" fill="url(#linearGradient-21)"></path>
                        <path d="M117.193641,240.715529 L141.205695,262.588453 C141.205695,263.327558 141.205695,264.013635 141.205695,264.646686 C141.205695,265.279736 141.205695,266.136675 141.205695,267.217501 C136.42388,268.965261 132.746005,270.242261 130.172071,271.048499 C127.598137,271.854737 123.763645,272.686571 118.668595,273.543999 C116.475014,273.257189 114.924274,272.697883 114.016377,271.86608 C113.108479,271.034277 112.357467,269.484751 111.763339,267.217501 C118.962404,264.912149 122.561936,262.654521 122.561936,260.444618 C122.561936,259.154611 119.888099,256.717764 118.668595,252.451999 C118.088849,250.424074 117.597197,246.511917 117.193641,240.715529 Z" id="Path-78" fill="url(#linearGradient-22)"></path>
                        <path d="M113.820617,236.429133 C117.416356,245.007796 121.103034,251.160873 124.880652,254.888365 C128.65827,258.615856 134.099951,261.182552 141.205695,262.588453 C142.65108,254.657344 144.360991,249.310042 146.335427,246.546547 C148.309864,243.783052 148.96065,238.672925 148.287787,231.216168 C141.587398,233.015024 136.200546,234.222485 132.127231,234.838551 C128.053915,235.454617 121.951711,235.984811 113.820617,236.429133 Z" id="Path-63" fill="url(#linearGradient-23)"></path>
                        <g id="Path-21">
                            <use fill="url(#linearGradient-24)" xlink:href="#path-27"></use>
                            <use fill="url(#linearGradient-25)" xlink:href="#path-27"></use>
                            <use fill="url(#linearGradient-26)" xlink:href="#path-27"></use>
                        </g>
                        <path d="M86.3539649,43.0123445 C85.7539773,40.952406 85.7539773,38.821504 86.3539649,36.6196387 C86.845611,34.8153707 87.1618537,32.1611518 88.4392301,28.5585195 C88.6268894,28.0292569 89.1168791,27.1752876 89.909199,25.9966116 C77.8148497,28.7245911 70.2833521,31.5791162 67.3147061,34.5601872 C62.6885104,39.2057453 67.0657719,50.6689744 62.7004626,53.1044899 C49.8497215,60.2742402 41.7352625,49.5820587 31.7153926,58.464394 C21.6955228,67.3467293 23.4134492,86.7595409 23.4134492,87.931332 C23.4134492,89.1031232 39.4266109,74.3273885 44.4140649,71.4699203 C49.4015188,68.6124521 60.9194296,77.90019 65.9367473,75.8061005 C70.954065,73.712011 72.227647,58.1284541 76.815197,50.3579502 C79.8735636,45.1776142 83.0531529,42.729079 86.3539649,43.0123445 Z" id="Path-72" fill="url(#linearGradient-28)"></path>
                        <g id="Face" transform="translate(114.525118, 47.393542)">
                            <path d="M14.0599318,11.9414716 C13.5626686,12.6277706 13.2016349,13.6709651 12.9768308,15.071055 C12.6301704,17.2300716 12.9712007,19.5685327 12.9768308,19.7162827 C13.0077909,20.5287662 13.8882578,24.1142404 12.9768308,25.6828903 C12.6268802,26.2851876 11.5054234,26.5157432 9.61246055,26.3745571" id="Path-75" stroke="#DF8989" stroke-width="1.43457597" stroke-linecap="round"></path>
                            <path d="M11.5017938,5.09606244 C9.33336453,3.50558139 7.61331974,2.53754037 6.34165947,2.19193938 C5.0699992,1.84633838 3.22558681,1.8456616 0.808422304,2.18990902" id="Path-77" stroke="#797979" stroke-linecap="round" transform="translate(6.155108, 3.514146) rotate(-13.000000) translate(-6.155108, -3.514146) "></path>
                            <path d="M28.504001,11.2675535 C27.0502308,9.98767135 25.896825,9.20898841 25.0437834,8.93150469 C24.1907419,8.65402096 22.9530767,8.65491845 21.330788,8.93419715" id="Path-77" stroke="#797979" stroke-linecap="round" transform="translate(24.917394, 9.995808) rotate(-330.000000) translate(-24.917394, -9.995808) "></path>
                            <ellipse id="Oval" fill="#8D688C" cx="20.8" cy="17.6822742" rx="2.08" ry="2.08026756"></ellipse>
                            <ellipse id="Oval" fill="#8D688C" cx="5.2" cy="11.4414716" rx="2.08" ry="2.08026756"></ellipse>
                        </g>
                    </g>
                    <path d="M110.217713,80.8751469 C113.302659,80.3365495 115.756574,79.4055907 117.579458,78.0822706 C119.402343,76.7589505 120.383488,75.4593623 120.522895,74.1835061" id="Path-76" stroke="#DF8989" stroke-width="1.43457597" stroke-linecap="round"></path>
                </g>
            </g>
        </g>
    </g>
</svg>