<?xml version="1.0" encoding="UTF-8"?>
<svg width="467px" height="106px" viewBox="0 0 467 106" version="1.1" xmlns="http://www.w3.org/2000/svg" xmlns:xlink="http://www.w3.org/1999/xlink">
    <!-- Generator: Sketch 53.1 (72631) - https://sketchapp.com -->
    <title>Logo@1x</title>
    <desc>Created with Sketch.</desc>
    <defs>
        <path d="M0,78.6954545 L0,2.25 C-1.52179594e-16,1.00735931 1.00735931,6.72358601e-16 2.25,4.4408921e-16 L27.9544655,0 C31.7261186,0 35.2573682,0.621781492 38.5483204,1.86536313 C41.8392727,3.10894477 44.7049465,4.86123806 47.1454279,7.12229558 C49.5859093,9.3833531 51.508684,12.0777396 52.9138097,15.2055358 C54.3189353,18.333332 55.0214876,21.781393 55.0214876,25.5498222 C55.0214876,29.39362 54.3189353,32.8793648 52.9138097,36.007161 C51.508684,39.1349572 49.5859093,41.8293437 47.1454279,44.0904012 C44.7049465,46.3514587 41.8392727,48.103752 38.5483204,49.3473337 C35.2573682,50.5909153 31.7261186,51.2126968 27.9544655,51.2126968 L17.2256065,51.2126968 C15.9829658,51.2126968 14.9756065,52.2200561 14.9756065,53.4626968 L14.9756065,78.6954545 C14.9756065,79.9380952 13.9682472,80.9454545 12.7256065,80.9454545 L2.25,80.9454545 C1.00735931,80.9454545 1.52179594e-16,79.9380952 0,78.6954545 Z M27.7942222,36.6545455 C31.6828981,36.6545455 34.6177038,35.5304219 36.5987274,33.2821412 C38.579751,31.0338605 39.5702479,28.4483764 39.5702479,25.5256114 C39.5702479,24.1017003 39.331795,22.7152813 38.8548819,21.3663129 C38.3779688,20.0173444 37.6442674,18.8370147 36.6537556,17.8252884 C35.6632438,16.8135621 34.4342939,16.0079402 32.966869,15.4083987 C31.4994441,14.8088572 29.7752458,14.5090909 27.7942222,14.5090909 L16.1975207,14.5090909 C15.3690935,14.5090909 14.6975207,15.1806638 14.6975207,16.0090909 L14.6975207,35.1545455 C14.6975207,35.9829726 15.3690935,36.6545455 16.1975207,36.6545455 L27.7942222,36.6545455 Z M105.2666,68.8387481 C102.845586,72.6776457 99.7330212,75.8330077 95.9288331,78.3049112 C91.6527125,81.0834691 86.4284871,82.4727273 80.256,82.4727273 C76.0914304,82.4727273 72.2429796,81.7405507 68.7105322,80.2761755 C65.1780848,78.8118004 62.1104791,76.7654607 59.5076231,74.1370951 C56.9047672,71.5087295 54.8782882,68.4110593 53.4281256,64.8439916 C51.977963,61.276924 51.2528926,57.3532084 51.2528926,53.0727273 C51.2528926,49.0926307 51.9593714,45.3191053 53.3723504,41.7520376 C54.7853294,38.18497 56.7560336,35.068526 59.2845223,32.4026123 C61.813011,29.7366986 64.8062505,27.6152639 68.2643306,26.0382445 C71.7224107,24.4612251 75.5336784,23.6727273 79.6982479,23.6727273 C84.0859195,23.6727273 87.9901449,24.4049039 91.4110413,25.869279 C94.8319378,27.3336541 97.6950364,29.3612201 100.000423,31.9520376 C102.30581,34.5428552 104.053416,37.6029778 105.243293,41.1324974 C106.43317,44.662017 107.028099,48.4918637 107.028099,52.6221526 L107.028099,53.9738767 C106.99458,54.1769604 107.090338,55.078261 106.804461,55.59203 C106.456071,56.2181479 105.705072,56.4520376 105.528531,56.4520376 C96.9218556,56.4520376 84.2656049,56.4520376 67.5597789,56.4520376 C67.2154274,56.4520376 66.5137257,56.3388811 66.1490491,56.6691022 C65.8432104,56.9460445 65.8358264,57.6520175 65.8782593,57.8592602 C66.2184406,59.5207052 66.7535104,60.9853381 67.4834777,62.253187 C68.4130691,63.8677545 69.5657452,65.2194651 70.9415405,66.3083595 C72.3173358,67.3972538 73.8232513,68.1857517 75.4593322,68.6738767 C77.0954131,69.1620017 78.7686526,69.4060606 80.4791008,69.4060606 C83.82563,69.4060606 86.5957708,68.6363365 88.7896066,67.0968652 C90.608589,65.8204382 91.7891507,64.5287645 92.9156008,62.7531599 C93.0186821,62.5906745 93.3602751,61.7348907 94.0189747,61.7348907 C94.6776743,61.7348907 95.3663033,62.1806425 95.5113146,62.253187 C97.7739059,63.3850895 100.845127,64.8709459 104.724979,66.7107561 C104.98766,66.8353186 105.429495,67.221729 105.528531,67.7356486 C105.602519,68.1195873 105.395031,68.6351009 105.2666,68.8387481 Z M91.8472377,45.5973663 C92.1515731,45.3305261 92.1515731,44.7293112 92.1179799,44.6014019 C91.9575261,43.990459 91.7130183,43.3415157 91.3844544,42.6545455 C90.8279081,41.4909033 90.0116523,40.4000051 88.9356627,39.3818182 C87.8596731,38.3636313 86.5239819,37.527276 84.928549,36.8727273 C83.3331161,36.2181785 81.4223356,35.8909091 79.1961502,35.8909091 C76.0794906,35.8909091 73.3339031,36.7636276 70.9593054,38.5090909 C69.0766068,39.8929805 67.6370682,41.7111619 66.6406648,43.9636715 C66.5470567,44.1752856 66.2148409,44.9626314 66.5139047,45.3956308 C66.8129684,45.8286302 67.4239339,45.8181818 67.6709582,45.8181818 C71.278244,45.8181818 79.0084961,45.8182116 90.8617145,45.8182711 C91.0195207,45.8182719 91.5429023,45.8642065 91.8472377,45.5973663 Z M112.140055,38.040404 L107.016942,38.040404 C105.774301,38.040404 104.766942,37.0330447 104.766942,35.790404 L104.766942,27.619697 C104.766942,26.3770563 105.774301,25.369697 107.016942,25.369697 L112.140055,25.369697 C113.382696,25.369697 114.390055,24.3623377 114.390055,23.119697 L114.390055,10.65 C114.390055,9.40735931 115.397414,8.4 116.640055,8.4 L126.798517,8.4 C128.041158,8.4 129.048517,9.40735931 129.048517,10.65 L129.048517,23.119697 C129.048517,24.3623377 130.055877,25.369697 131.298517,25.369697 L140.226116,25.369697 C141.468757,25.369697 142.476116,26.3770563 142.476116,27.619697 L142.476116,35.790404 C142.476116,37.0330447 141.468757,38.040404 140.226116,38.040404 L131.298517,38.040404 C130.055877,38.040404 129.048517,39.0477634 129.048517,40.290404 L129.048517,59.5353535 C129.048517,60.8175148 129.179062,62.0053817 129.440156,63.0989899 C129.701249,64.1925981 130.204779,65.1164945 130.95076,65.8707071 C131.995135,67.0774471 133.487075,67.6808081 135.426627,67.6808081 C136.694795,67.6808081 137.701855,67.5488229 138.447837,67.2848485 C138.580063,67.2380587 139.33768,66.8097729 139.928175,66.8697422 C140.537873,66.9316616 140.980108,67.4866528 141.062919,67.7468807 C141.767942,69.9623469 142.779276,73.1403639 144.09692,77.2809316 C144.196222,77.592978 144.296229,78.2827432 144.09692,78.8359953 C143.897334,79.3900143 143.398176,79.8073781 143.127667,79.9136044 C141.873899,80.4059472 140.556405,80.7970332 139.175165,81.0868687 C137.198314,81.5016856 135.016351,81.7090909 132.62921,81.7090909 C129.869079,81.7090909 127.388728,81.2754252 125.188083,80.4080808 C122.987437,79.5407364 121.141161,78.3528695 119.649198,76.8444444 C116.143085,73.4504881 114.390055,68.6236003 114.390055,62.3636364 L114.390055,40.290404 C114.390055,39.0477634 113.382696,38.040404 112.140055,38.040404 Z M151,79.1681818 L151,2.72272727 C151,1.48008659 152.007359,0.472727273 153.25,0.472727273 L178.954465,0.472727273 C182.726119,0.472727273 186.257368,1.09450876 189.54832,2.3380904 C192.839273,3.58167204 195.704946,5.33396533 198.145428,7.59502285 C200.585909,9.85608038 202.508684,12.5504668 203.91381,15.6782631 C205.318935,18.8060593 206.021488,22.2541203 206.021488,26.0225495 C206.021488,29.8663473 205.318935,33.352092 203.91381,36.4798883 C202.508684,39.6076845 200.585909,42.302071 198.145428,44.5631285 C195.704946,46.824186 192.839273,48.5764793 189.54832,49.8200609 C186.257368,51.0636426 182.726119,51.6854241 178.954465,51.6854241 L168.225607,51.6854241 C166.982966,51.6854241 165.975607,52.6927834 165.975607,53.9354241 L165.975607,79.1681818 C165.975607,80.4108225 164.968247,81.4181818 163.725607,81.4181818 L153.25,81.4181818 C152.007359,81.4181818 151,80.4108225 151,79.1681818 Z M179.171082,37.1272727 C183.059758,37.1272727 185.994563,36.0031492 187.975587,33.7548685 C189.956611,31.5065877 190.947107,28.9211037 190.947107,25.9983387 C190.947107,24.5744276 190.708654,23.1880086 190.231741,21.8390401 C189.754828,20.4900717 189.021127,19.309742 188.030615,18.2980157 C187.040103,17.2862894 185.811153,16.4806675 184.343729,15.881126 C182.876304,15.2815845 181.152105,14.9818182 179.171082,14.9818182 L167.57438,14.9818182 C166.745953,14.9818182 166.07438,15.6533911 166.07438,16.4818182 L166.07438,35.6272727 C166.07438,36.4556999 166.745953,37.1272727 167.57438,37.1272727 L179.171082,37.1272727 Z M240.608815,75.2856844 L239.715519,75.2856844 C238.003358,77.3883769 235.937631,79.1906578 233.518274,80.692581 C231.098917,82.1945042 227.99102,82.9454545 224.19449,82.9454545 C221.365704,82.9454545 218.704451,82.4761106 216.210652,81.5374086 C213.716853,80.5987066 211.539464,79.3033172 209.678421,77.6512017 C207.817377,75.9990861 206.365784,74.0090677 205.3236,71.6810867 C204.281415,69.3531057 203.760331,66.7998746 203.760331,64.0213166 C203.760331,61.1676625 204.318635,58.5956576 205.435262,56.3052247 C206.551888,54.0147918 208.115141,52.0435471 210.125069,50.3914316 C212.134996,48.739316 214.498487,47.4814742 217.215611,46.6178683 C219.932735,45.7542625 222.89175,45.322466 226.092746,45.322466 C229.66595,45.322466 232.606355,45.6040724 234.91405,46.1672936 C237.221744,46.7305148 239.11998,47.3125014 240.608815,47.9132706 L240.608815,46.2236155 C240.608815,43.2948652 239.454986,40.8730503 237.147291,38.9580982 C234.839597,37.0431461 231.973632,36.0856844 228.549311,36.0856844 C224.129015,36.0856844 220.304783,37.7176381 217.07653,40.9815883 C216.835169,41.2256186 216.328077,41.7582733 215.761421,41.8938623 C215.227733,42.021563 214.632694,41.7640513 214.425285,41.6208926 C212.63837,40.3875189 210.081012,38.6223656 206.753211,36.3254326 C206.674644,36.2712042 206.094137,35.7828274 206.087441,35.0769677 C206.080342,34.3286134 206.653036,33.3582593 206.78364,33.2177858 C212.406942,27.1695376 219.773769,24.1454545 228.884298,24.1454545 C237.370658,24.1454545 243.846993,26.1542467 248.313499,30.1718913 C252.780004,34.1895359 255.013223,40.1408174 255.013223,48.0259143 L255.013223,78.8931557 C255.013223,80.1357964 254.005864,81.1431557 252.763223,81.1431557 L242.858815,81.1431557 C241.616175,81.1431557 240.608815,80.1357964 240.608815,78.8931557 L240.608815,75.2856844 Z M239.775358,58.4674218 C238.378868,57.8469037 236.945503,57.3387001 235.475236,56.9428003 C233.681199,56.4597189 231.722433,56.2181818 229.598879,56.2181818 C226.157257,56.2181818 223.502854,56.9799526 221.635591,58.5035169 C219.768328,60.0270813 218.834711,61.9036385 218.834711,64.1332449 C218.834711,66.3628512 219.731716,68.1465096 221.525753,69.4842734 C223.31979,70.8220372 225.388393,71.4909091 227.731625,71.4909091 C229.635501,71.4909091 231.392899,71.1378934 233.003871,70.4318514 C234.614843,69.7258093 235.987809,68.7968206 237.122812,67.6448573 C238.257815,66.492894 239.136514,65.1551503 239.758935,63.6315859 C240.200073,62.5517671 240.484881,61.4439608 240.613364,60.3081501 C240.666163,59.8413951 240.082881,58.6040667 239.775358,58.4674218 Z M261.042975,79.1681818 L261.042975,2.72272727 C261.042975,1.48008659 262.050335,0.472727273 263.292975,0.472727273 L273.113636,0.472727273 C274.356277,0.472727273 275.363636,1.48008659 275.363636,2.72272727 L275.363636,79.1681818 C275.363636,80.4108225 274.356277,81.4181818 273.113636,81.4181818 L263.292975,81.4181818 C262.050335,81.4181818 261.042975,80.4108225 261.042975,79.1681818 Z M302.686384,82.9454545 C299.137822,82.9454545 295.977432,82.4948843 293.205118,81.5937304 C290.432805,80.6925765 288.030169,79.5098297 285.997139,78.0454545 C283.964109,76.5810794 282.2453,74.8914411 280.840661,72.976489 C279.901485,71.6961054 279.111043,70.4073416 278.469325,69.1101804 C278.372501,68.9144615 278.002113,67.9990811 278.169503,67.4852808 C278.336892,66.9714805 279.062948,66.551035 279.227335,66.4796749 C280.136717,66.0849111 283.205396,64.7527945 288.433371,62.4833252 C288.769865,62.3372531 289.662498,61.9122897 290.303316,62.1035095 C290.966769,62.3014832 291.375885,63.123459 291.548662,63.4216898 C292.664215,65.3472466 294.029567,66.8425149 295.644742,67.9075235 C297.7517,69.2968025 300.098891,69.9914316 302.686384,69.9914316 C305.347805,69.9914316 307.454731,69.5033138 309.007227,68.5270637 C310.559723,67.5508136 311.335959,66.3868406 311.335959,65.0351097 C311.335959,63.5331865 310.689095,62.3128922 309.395349,61.3741902 C308.101603,60.4354882 305.865303,59.590669 302.686384,58.8397074 L295.034836,57.1500522 C293.334484,56.7745714 291.578711,56.1738112 289.767467,55.3477534 C287.956222,54.5216956 286.31134,53.4703651 284.832773,52.1937304 C283.354206,50.9170957 282.134406,49.3776475 281.173337,47.5753396 C280.212268,45.7730317 279.731741,43.6703708 279.731741,41.2672936 C279.731741,38.5638318 280.304677,36.1607907 281.450567,34.0580982 C282.596457,31.9554057 284.167411,30.1718986 286.163477,28.7075235 C288.159543,27.2431484 290.506733,26.1167229 293.205118,25.3282132 C295.903504,24.5397035 298.805148,24.1454545 301.91014,24.1454545 C307.085125,24.1454545 311.705579,25.1780113 315.771639,27.2431557 C319.32716,29.0489983 322.062978,31.7879072 323.979155,35.4599483 C324.125314,35.7400401 324.386006,36.4300916 324.19943,36.931006 C324.034779,37.3730582 323.445388,37.6405562 323.210826,37.73755 C318.98933,39.4831806 315.764163,40.8168194 313.535325,41.7384665 C313.300106,41.8357319 312.606604,42.0755154 312.167649,41.9049151 C311.790329,41.7582694 311.654842,41.2205657 311.540727,41.0406586 C310.559427,39.4935969 309.271366,38.3300695 307.676523,37.5500522 C305.680457,36.5738022 303.684421,36.0856844 301.688356,36.0856844 C299.618361,36.0856844 297.807144,36.5174809 296.254648,37.3810867 C294.702152,38.2446926 293.925916,39.3523443 293.925916,40.7040752 C293.925916,41.98071 294.57278,42.9944929 295.866526,43.7454545 C297.160272,44.4964162 298.916045,45.1722715 301.133896,45.7730408 L309.450795,47.800627 C314.995422,49.1523579 319.116867,51.3113401 321.815252,54.2776385 C324.513638,57.2439368 325.86281,60.7546297 325.86281,64.8098224 C325.86281,67.2128995 325.308356,69.5032981 324.19943,71.6810867 C323.090505,73.8588754 321.51955,75.7925725 319.48652,77.4822362 C317.45349,79.1718998 315.013891,80.5048366 312.167649,81.4810867 C309.321407,82.4573368 306.161017,82.9454545 302.686384,82.9454545 Z" id="path-1"></path>
        <filter x="-4.9%" y="-16.9%" width="109.8%" height="138.6%" filterUnits="objectBoundingBox" id="filter-2">
            <feOffset dx="0" dy="2" in="SourceAlpha" result="shadowOffsetOuter1"></feOffset>
            <feGaussianBlur stdDeviation="5" in="shadowOffsetOuter1" result="shadowBlurOuter1"></feGaussianBlur>
            <feColorMatrix values="0 0 0 0 1   0 0 0 0 0.325490196   0 0 0 0 0.325490196  0 0 0 0.261991914 0" type="matrix" in="shadowBlurOuter1"></feColorMatrix>
        </filter>
        <filter x="-25.7%" y="-31.7%" width="150.5%" height="161.0%" filterUnits="objectBoundingBox" id="filter-3">
            <feOffset dx="0" dy="2" in="SourceAlpha" result="shadowOffsetOuter1"></feOffset>
            <feGaussianBlur stdDeviation="4" in="shadowOffsetOuter1" result="shadowBlurOuter1"></feGaussianBlur>
            <feColorMatrix values="0 0 0 0 1   0 0 0 0 0.325490196   0 0 0 0 0.325490196  0 0 0 0.26 0" type="matrix" in="shadowBlurOuter1" result="shadowMatrixOuter1"></feColorMatrix>
            <feMerge>
                <feMergeNode in="shadowMatrixOuter1"></feMergeNode>
                <feMergeNode in="SourceGraphic"></feMergeNode>
            </feMerge>
        </filter>
    </defs>
    <g id="Page-1" stroke="none" stroke-width="1" fill="none" fill-rule="evenodd">
        <g id="Desktop-HD-Copy-2" transform="translate(-110.000000, -93.000000)">
            <g id="Logo/Slogan" transform="translate(117.000000, 104.000000)">
                <g id="Logo" transform="translate(3.000000, 0.000000)">
                    <g id="PetPals" fill-rule="nonzero">
                        <use fill="black" fill-opacity="1" filter="url(#filter-2)" xlink:href="#path-1"></use>
                        <use fill="#FF3A3A" xlink:href="#path-1"></use>
                    </g>
                    <g id="Group-2" filter="url(#filter-3)" transform="translate(344.000000, 0.000000)" stroke="#FF3A3A" stroke-width="10.4664002">
                        <g id="Group-Copy" transform="translate(16.000000, 0.000000)" stroke-linecap="round">
                            <path d="M67.2980478,51.546465 C39.4055111,37.2632068 29.0019208,22.9651234 36.0872768,8.65221473 C40.1144193,0.51710851 52.2874814,-1.89381312 59.344193,1.74095842 C61.5613324,2.88296273 64.2126173,5.5897759 67.2980478,9.86139792" id="Path-2-Copy" transform="translate(50.616219, 25.819810) scale(-1, 1) translate(-50.616219, -25.819810) "></path>
                            <path d="M33.3636567,51.546465 C5.47112004,37.2632068 -4.9324703,22.9651234 2.15288567,8.65221473 C6.18002821,0.51710851 18.3530903,-1.89381312 25.4098019,1.74095842 C27.6269413,2.88296273 30.2782262,5.5897759 33.3636567,9.86139792" id="Path-2-Copy-2"></path>
                        </g>
                        <g id="Group" transform="translate(0.000000, 40.000000)">
                            <ellipse id="Oval" cx="10.2641509" cy="10.5096251" rx="10.2641509" ry="10.3739198"></ellipse>
                            <ellipse id="Oval-Copy" cx="89.8113208" cy="10.5096251" rx="10.2641509" ry="10.3739198"></ellipse>
                        </g>
                        <g id="Group-Copy-2" transform="translate(25.000000, 59.000000)">
                            <ellipse id="Oval" cx="10.2641509" cy="10.5096251" rx="10.2641509" ry="10.5096251"></ellipse>
                            <ellipse id="Oval-Copy" cx="39.7735849" cy="10.5096251" rx="10.2641509" ry="10.5096251"></ellipse>
                        </g>
                    </g>
                </g>
            </g>
        </g>
    </g>
</svg>