<?xml version="1.0" encoding="UTF-8"?>
<svg width="213px" height="263px" viewBox="0 0 213 263" version="1.1" xmlns="http://www.w3.org/2000/svg" xmlns:xlink="http://www.w3.org/1999/xlink">
    <!-- Generator: Sketch 55 (78076) - https://sketchapp.com -->
    <title>Nail Trim@1x</title>
    <desc>Created with Sketch.</desc>
    <defs>
        <linearGradient x1="50%" y1="111.515079%" x2="-32.3963273%" y2="-182.915845%" id="linearGradient-1">
            <stop stop-color="#FFFEFA" offset="0%"></stop>
            <stop stop-color="#909090" offset="100%"></stop>
        </linearGradient>
        <linearGradient x1="166.794666%" y1="-61.0411635%" x2="-39.4118546%" y2="80.3571387%" id="linearGradient-2">
            <stop stop-color="#FFFFFF" offset="0%"></stop>
            <stop stop-color="#B4B4B4" offset="100%"></stop>
        </linearGradient>
        <linearGradient x1="50%" y1="0%" x2="50%" y2="100%" id="linearGradient-3">
            <stop stop-color="#FA8080" offset="0%"></stop>
            <stop stop-color="#F34949" offset="100%"></stop>
        </linearGradient>
        <linearGradient x1="50%" y1="0%" x2="50%" y2="100%" id="linearGradient-4">
            <stop stop-color="#FF9393" offset="0%"></stop>
            <stop stop-color="#FF5A5A" offset="100%"></stop>
        </linearGradient>
        <linearGradient x1="50%" y1="0%" x2="50%" y2="100%" id="linearGradient-5">
            <stop stop-color="#FA8080" offset="0%"></stop>
            <stop stop-color="#F34949" offset="100%"></stop>
        </linearGradient>
        <linearGradient x1="23.0127945%" y1="24.0042357%" x2="46.589903%" y2="54.2616754%" id="linearGradient-6">
            <stop stop-color="#00EAFF" offset="0%"></stop>
            <stop stop-color="#009AFF" offset="100%"></stop>
        </linearGradient>
        <linearGradient x1="50%" y1="0%" x2="50%" y2="100%" id="linearGradient-7">
            <stop stop-color="#FF9393" offset="0%"></stop>
            <stop stop-color="#FF5A5A" offset="100%"></stop>
        </linearGradient>
        <linearGradient x1="6.16418642%" y1="11.7051969%" x2="11.6897418%" y2="276.480626%" id="linearGradient-8">
            <stop stop-color="#FFFEFA" offset="0%"></stop>
            <stop stop-color="#909090" offset="100%"></stop>
        </linearGradient>
        <linearGradient x1="35.124685%" y1="148.019251%" x2="87.9566565%" y2="-14.8168505%" id="linearGradient-9">
            <stop stop-color="#FF9C91" offset="0%"></stop>
            <stop stop-color="#FFFEE2" offset="100%"></stop>
        </linearGradient>
        <linearGradient x1="41.1128725%" y1="117.177389%" x2="-9.77711022%" y2="68.1659679%" id="linearGradient-10">
            <stop stop-color="#FF9C91" offset="0%"></stop>
            <stop stop-color="#FFFEE2" offset="100%"></stop>
        </linearGradient>
        <linearGradient x1="50%" y1="-79.2462335%" x2="50%" y2="100%" id="linearGradient-11">
            <stop stop-color="#FFFFFF" offset="0%"></stop>
            <stop stop-color="#000000" offset="100%"></stop>
        </linearGradient>
        <linearGradient x1="27.2476395%" y1="154.992868%" x2="124.187261%" y2="-53.6072833%" id="linearGradient-12">
            <stop stop-color="#FF9C91" offset="0%"></stop>
            <stop stop-color="#FFFEE2" offset="100%"></stop>
        </linearGradient>
        <linearGradient x1="105.277053%" y1="84.4737289%" x2="50.0653651%" y2="-24.8681889%" id="linearGradient-13">
            <stop stop-color="#32A0FF" offset="0%"></stop>
            <stop stop-color="#24ADFF" offset="36.3322895%"></stop>
            <stop stop-color="#00E1FF" offset="100%"></stop>
        </linearGradient>
        <linearGradient x1="41.2599039%" y1="44.615943%" x2="176.531526%" y2="220.645551%" id="linearGradient-14">
            <stop stop-color="#CBCBCB" offset="0%"></stop>
            <stop stop-color="#9B9B9B" offset="100%"></stop>
        </linearGradient>
        <linearGradient x1="50%" y1="-26.0939672%" x2="50%" y2="100%" id="linearGradient-15">
            <stop stop-color="#FFFFFF" offset="0%"></stop>
            <stop stop-color="#000000" offset="100%"></stop>
        </linearGradient>
    </defs>
    <g id="Page-2" stroke="none" stroke-width="1" fill="none" fill-rule="evenodd">
        <g id="Nail-Trim-Card" transform="translate(-110.000000, -22.000000)">
            <g id="Nail-Trim" transform="translate(61.500000, 6.500000)">
                <g id="Lading-knealing-with-dog" transform="translate(151.500000, 152.000000) scale(-1, 1) translate(-151.500000, -152.000000) ">
                    <path d="M252.244803,269.518992 L184.672936,269.518992 C185.331864,264.891357 185.982559,261.576147 186.625021,259.573362 C191.311857,244.962805 193.672267,233.995787 190.879599,225.593544 C187.512711,215.463658 177.606614,206.525822 161.161307,198.780036 L219.687677,160.29875 C225.702519,176.568103 229.317468,186.923096 230.532522,191.36373 C234.102671,204.411478 247.219482,232.675372 249.044933,239 C254.278056,257.131162 255.344679,267.304159 252.244803,269.518992 Z" id="Path-12" fill="url(#linearGradient-1)"></path>
                    <path d="M188.102097,255.022344 C191.631673,251.75125 194.331117,249.536923 196.200428,248.379363 C200.191838,245.907707 203.916604,245.383797 204.568995,246.060322 C205.289839,246.807832 208.740086,233.872 204.568995,219.572197 C203.065101,214.416376 199.048546,207.485656 192.51933,198.780036 C199.470419,193.455292 204.817615,188.778351 208.560919,184.749214 C214.940377,177.882631 219.454492,169.780097 221.022579,167.15535 C221.644562,166.114242 221.199595,163.828709 219.687677,160.29875 L157.547159,200.214711 L188.102097,255.022344 Z" id="Path-14" fill="url(#linearGradient-2)" opacity="0.305547805"></path>
                    <path d="M144.557682,91.8553694 C142.628561,94.3059764 141.367594,96.0695639 140.774781,97.1461319 C139.425996,99.5955694 141.405206,101.483974 140.774781,103.189978 C139.621653,106.310475 136.398218,109.870467 135.748314,113.414351 C134.922448,117.91774 142.872041,135.297292 142.666549,143.290728 C142.549044,147.861536 140.242966,152.400578 135.748314,156.907855 L103.376832,106.972297 L132.761086,62.7767499 L144.557682,91.8553694 Z" id="Path-3" fill="url(#linearGradient-3)"></path>
                    <path d="M62.7075994,113.026663 C63.6960559,128.448486 60.7629102,141.580154 53.9081624,152.421665 C47.0534146,163.263177 43.2041011,178.715967 42.3602217,198.780036 L132.761086,198.780036 L107.838479,152 L62.7075994,113.026663 Z" id="Path-4" fill="url(#linearGradient-4)"></path>
                    <path d="M68.3832054,132.029278 L94.6023965,117.523888 C94.9218841,130.066448 96.8022158,140.738923 100.243392,149.541311 C103.684568,158.343699 110.847706,170.752984 121.732806,186.769166 L109.452741,184.070774 C102.825421,168.36559 96.8416777,156.855768 91.5015093,149.541311 C86.1613409,142.226853 79.4052437,137.007295 71.2332177,133.882637" id="Path-5" fill="url(#linearGradient-5)"></path>
                    <path d="M45.6177695,197.457717 C44.7046875,198.307652 44.0941766,198.748425 43.7862366,198.780036 C42.6147294,198.900297 42.2350482,198.013043 42.360445,198.780036 C44.1749536,209.878531 49.4611065,224.027762 57.2461485,230.636343 C66.1563959,238.200089 79.8469467,241.555495 98.317801,240.70256 C88.3377294,243.770152 80.8396975,245.877582 75.8237055,247.024848 C70.8077134,248.172115 64.6151944,249.196013 57.2461485,250.096543 L60.3098873,278.239248 C69.7393341,275.344851 76.6443605,273.436348 81.0249665,272.513739 C103.535105,267.772829 121.030803,265.363555 132.761086,262.658919 C154.742209,257.59076 181.998964,259.245251 192.113531,250.096543 C193.438894,248.897741 197.605307,245.031498 198.167657,243.520362 C207.459732,218.550847 177.888093,198.734317 109.452741,184.070774 C90.3517597,182.687659 76.6619147,182.687659 68.3832054,184.070774 C60.1044961,185.453889 52.5160175,189.916204 45.6177695,197.457717 Z" id="Path-6" fill="url(#linearGradient-6)"></path>
                    <path d="M99.9000566,111.050228 C118.373324,104.492439 132.20301,123.664599 141.389112,168.566711 C155.369948,171.706123 165.874108,171.706123 172.901592,168.566711 C179.929076,165.427299 190.484877,159.905062 204.568995,152 C207.433177,154.676273 209.473548,156.933275 210.690109,158.771008 C211.90667,160.608741 213.323426,163.574062 214.940377,167.666972 C175.783415,195.956405 150.58751,207.734553 139.352661,203.001416 C122.500386,195.901709 72.1901548,120.886913 99.9000566,111.050228 Z" id="Path-7" fill="url(#linearGradient-7)"></path>
                    <path d="M146.90175,98.3882434 C144.763572,100.117699 141.639441,112.489666 145.692486,121.745595 C149.745532,131.001525 168.521624,129.595587 164.471076,146.66176 C160.420528,163.727932 141.130063,153.474065 138.357952,155.225129 C135.585842,156.976193 143.027025,162.525174 139.357691,162.525174 C135.688357,162.525174 124.966694,161.609552 123.967257,168.526649 C123.30576,173.104867 127.51415,171.990128 135.772846,172.499108 C139.991973,172.759131 145.152156,173.995972 151.5,174.348191 C170.27338,175.389857 196.370882,156.9667 203.468422,152.751683 C210.565961,148.536667 215.313516,137.503807 212.670433,131.00273 C210.02735,124.501653 209.417382,115.739446 192.313588,107.514566 C187.517505,105.208224 181.489021,106.15339 175.996968,104.699558 C170.127933,103.145932 164.368288,101.575977 159.533586,100.362584 C157.255923,99.7909453 155.544667,98.7626211 153.762844,98.3882434 C150.244417,97.6489887 147.497789,97.9061404 146.90175,98.3882434 Z" id="Path-8" fill="url(#linearGradient-8)"></path>
                    <path d="M212.008247,129.809401 C216.699772,130.682514 220.257257,134.561256 222.680704,141.445626 C224.922654,147.814414 224.494242,155.748823 217.761888,162.602234 C216.923577,163.45562 215.468591,164.337499 213.39693,165.247873 L204.568995,152 C205.078986,146.450643 205.790339,142.932518 206.703055,141.445626 C208.208528,138.993083 212.52828,139.935588 212.897883,138.115465 C213.603603,134.640126 213.307058,131.871438 212.008247,129.809401 Z" id="Path-13" fill="url(#linearGradient-9)"></path>
                    <path d="M130.432659,70.1004566 L142.666549,94.2658208 C141.377098,96.2397217 140.465038,97.7867537 139.930368,98.9069167 C139.395697,100.02708 138.88788,101.454767 138.406917,103.189978 C134.898737,102.534792 132.240651,101.107105 130.432659,98.9069167 C128.624667,96.7067289 126.446983,92.6194958 123.899608,86.6452173 C123.614078,84.2327924 123.914049,81.9053633 124.799522,79.6629299 C125.684995,77.4204965 127.562707,74.2330054 130.432659,70.1004566 Z" id="Path-18" fill="url(#linearGradient-10)"></path>
                    <path d="M145.115784,102.620154 C147.515607,103.379919 149.29658,103.379919 150.458703,102.620154 C151.620826,101.860388 152.722207,100.389508 153.762844,98.2075148 C150.974135,97.4413577 148.829094,97.4413577 147.327723,98.2075148 C145.826352,98.973672 145.089039,100.444552 145.115784,102.620154 Z" id="Path-10" fill="url(#linearGradient-11)"></path>
                    <path d="M133.853892,66.059753 C130.490658,70.0312571 129.607088,74.1050826 131.203181,78.2812297 C133.59732,84.5454502 136.662829,88.3934643 141.136354,94.2198315 C146.69415,101.458365 155.212531,97.4413256 163.840923,86.6452173 C167.777349,81.7198408 171.025558,75.0144585 175.281466,67.9747364 C176.055173,66.6949431 177.819642,61.4372636 180.574873,52.2016981 C173.700799,45.4385461 168.873853,42.4918262 166.094037,43.3615383 C163.31422,44.2312505 157.986239,42.8265141 150.110092,39.1473291 L133.853892,66.059753 Z" id="Path" fill="url(#linearGradient-12)"></path>
                    <ellipse id="Oval" fill="#8D688C" cx="152.194954" cy="63.1598174" rx="2.08486239" ry="2.08219178"></ellipse>
                    <ellipse id="Oval" fill="#8D688C" cx="168.178899" cy="70.1004566" rx="2.08486239" ry="2.08219178"></ellipse>
                    <path d="M160.579967,66.9568633 C159.730004,69.976208 159.21545,72.0938858 159.036307,73.3098966 C158.779273,75.0546166 159.534191,76.790541 159.036307,77.7698111 C158.017909,79.7728585 156.489694,80.1863864 154.451661,79.010395" id="Path-16" stroke="#DF8989" stroke-width="1.5" stroke-linecap="round"></path>
                    <path d="M145.115082,81.1126052 C146.788958,83.6499289 148.230252,85.1602125 149.438963,85.6434561 C150.647675,86.1266996 152.738038,86.3744294 155.710051,86.3866457" id="Path-17" stroke="#DF8989" stroke-width="1.5" stroke-linecap="round"></path>
                    <path d="M158.546512,57.4366689 C156.178192,55.9976065 154.336521,55.1781889 153.021499,54.9784161 C151.706476,54.7786434 149.864805,55.0385029 147.496486,55.7579946" id="Path-20" stroke="#818181" stroke-width="1.5" stroke-linecap="round"></path>
                    <path d="M175.208626,65.2770657 C173.700942,63.7745586 172.528186,62.9193552 171.690357,62.7114556 C170.852528,62.5035559 169.678549,62.776438 168.168419,63.5301017" id="Path-20" stroke="#818181" stroke-width="1.5" stroke-linecap="round" transform="translate(171.688522, 63.960548) rotate(-330.000000) translate(-171.688522, -63.960548) "></path>
                    <path d="M146.793657,16.9145613 C149.127467,16.3027563 149.127467,15.621031 154.497546,15.621031 C155.213358,15.621031 155.90564,15.8205152 156.597001,15.9461366 C157.23899,16.062787 157.873505,16.1942004 158.500035,16.3400601 C170.39822,19.1100246 181.030402,28.1266341 183.682563,39.1473291 C184.853787,44.0141918 184.141005,53.8611604 181.448388,58.3375457 C181.081942,58.9467493 178.563263,60.1328589 178.259393,60.2779412 C177.702452,60.5438524 179.0513,58.245607 178.676737,57.3270159 C178.266568,56.3211048 178.334339,55.7723842 178.097632,53.9549707 C177.526827,49.5723957 170.306564,44.3080156 168.178899,44.9230713 C159.771112,47.3535563 150.694684,42.4037888 148.609822,55.0741444 C146.44098,68.2548696 143.844441,73.0579078 141.226928,76.8785522 C136.102208,84.3588337 130.356001,77.5986614 127.946647,82.1507722 C122.134756,93.1314611 129.236103,102.023157 123.08674,110.656821 C116.937378,119.290485 104.841235,110.446644 96.9103673,115.88735 C88.9795001,121.328057 100.60035,132.769195 88.0131165,134.71791 C75.4258827,136.666624 64.8451214,137.487414 55.7896233,122.25353 C51.5578066,115.13443 44.609409,102.451916 45.3314908,96.2106299 C46.1545633,89.0964337 55.0805899,84.7587887 55.7896233,80.5089718 C58.2599112,65.7025179 51.146065,60.8181058 62.520819,51.0430812 C73.8955731,41.2680567 96.9103673,50.1550928 106.201924,44.9230713 C115.0188,39.9583402 120.388747,16.25628 139.702593,16.25628 C144.459848,16.25628 144.459848,17.5263663 146.793657,16.9145613 Z" id="Path-2" fill="url(#linearGradient-13)"></path>
                    <path d="M168.50189,155.5107 C167.358189,161.002817 165.225554,164.109124 162.103985,164.829621 C158.982415,165.550119 151.568788,164.758485 139.863104,162.45472 C139.786445,161.745522 139.693817,161.246354 139.585221,160.957216 C139.201715,159.936132 139.259242,159.356824 139.585221,159.428417 C146.546269,160.957216 156.020086,161.729155 159.364525,160.957216 C163.106291,160.09357 166.152079,158.278065 168.50189,155.5107 Z" id="Path-11" fill="url(#linearGradient-14)"></path>
                    <ellipse id="Oval" fill="#000000" cx="168.873853" cy="108.968037" rx="2.08486239" ry="2.08219178"></ellipse>
                    <path d="M148.609822,123.592345 C151.303542,125.305166 153.32199,126.224843 154.665167,126.351374 C156.008343,126.477906 157.696317,125.907387 159.729088,124.639817" id="Path-15" stroke="#686868" stroke-width="1.39040003" stroke-linecap="round"></path>
                </g>
                <path d="M107.018895,148.485549 C114.576633,148.485549 120.703389,142.374104 120.703389,134.835254 C120.703389,127.296404 117.417967,114.219653 109.860229,114.219653 C102.302492,114.219653 93.3344014,127.296404 93.3344014,134.835254 C93.3344014,142.374104 99.461158,148.485549 107.018895,148.485549 Z" id="Oval" fill="url(#linearGradient-15)"></path>
            </g>
        </g>
    </g>
</svg>