<?xml version="1.0" encoding="UTF-8"?>
<svg width="25px" height="40px" viewBox="0 0 25 40" version="1.1" xmlns="http://www.w3.org/2000/svg" xmlns:xlink="http://www.w3.org/1999/xlink">
    <!-- Generator: Sketch 54.1 (76490) - https://sketchapp.com -->
    <title>Path 53@1x</title>
    <desc>Created with Sketch.</desc>
    <g id="Page-1" stroke="none" stroke-width="1" fill="none" fill-rule="evenodd">
        <g id="iPhone-8" transform="translate(-296.000000, -551.000000)" fill="#FFFFFF">
            <path d="M300.439352,555.528426 C301.968752,558.102782 302.539978,560.899237 302.305482,563.114856 C302.070986,565.330474 299.23638,565.814745 299.23638,566.89461 C299.23638,567.974474 300.853435,571.873108 303.50406,574.478027 C306.154686,577.082946 308.577474,579.154677 310.332349,579.533638 C312.087225,579.9126 313.32397,575.925791 316.307102,577.005833 C319.290234,578.085874 323.862697,581.14077 323.135391,583.355305 C322.408085,585.56984 317.800413,588.592655 315.911329,588.592655 C314.022245,588.592655 305.68793,587.553536 298.009422,577.848435 C290.330914,568.143334 291.129617,562.759864 291.554555,559.311193 C291.837847,557.012079 293.544919,555.15385 296.675772,553.736506 C298.165225,553.214882 299.419751,553.812189 300.439352,555.528426 Z" id="Path-53" transform="translate(307.257669, 571.073391) scale(-1, 1) rotate(21.000000) translate(-307.257669, -571.073391) "></path>
        </g>
    </g>
</svg>