<?xml version="1.0" encoding="UTF-8"?>
<svg width="1090px" height="1169px" viewBox="0 0 1090 1169" version="1.1" xmlns="http://www.w3.org/2000/svg" xmlns:xlink="http://www.w3.org/1999/xlink">
    <!-- Generator: Sketch 55.2 (78181) - https://sketchapp.com -->
    <title>Woman with Cat@1x</title>
    <desc>Created with Sketch.</desc>
    <defs>
        <linearGradient x1="54.3603036%" y1="22.4781396%" x2="41.5020351%" y2="64.2701571%" id="linearGradient-1">
            <stop stop-color="#FFC588" offset="0%"></stop>
            <stop stop-color="#FFF1E4" offset="100%"></stop>
        </linearGradient>
        <linearGradient x1="46.604542%" y1="94.514714%" x2="35.025196%" y2="-10.1796691%" id="linearGradient-2">
            <stop stop-color="#FF7777" offset="0%"></stop>
            <stop stop-color="#FF4242" offset="100%"></stop>
        </linearGradient>
        <linearGradient x1="50%" y1="0%" x2="50%" y2="100%" id="linearGradient-3">
            <stop stop-color="#FB6767" offset="0%"></stop>
            <stop stop-color="#F53636" offset="100%"></stop>
        </linearGradient>
        <linearGradient x1="5.40678619%" y1="2.52263803%" x2="85.610137%" y2="64.9405362%" id="linearGradient-4">
            <stop stop-color="#FF9090" offset="0%"></stop>
            <stop stop-color="#FF5757" offset="100%"></stop>
        </linearGradient>
        <linearGradient x1="86.5554295%" y1="-31.3701977%" x2="56.4710627%" y2="87.4911068%" id="linearGradient-5">
            <stop stop-color="#8B572A" offset="0%"></stop>
            <stop stop-color="#FFBE8B" offset="100%"></stop>
        </linearGradient>
        <linearGradient x1="82.043294%" y1="31.203158%" x2="32.92222%" y2="50%" id="linearGradient-6">
            <stop stop-color="#FFC588" offset="0%"></stop>
            <stop stop-color="#FFF1E4" offset="100%"></stop>
        </linearGradient>
        <linearGradient x1="51.3817347%" y1="92.69195%" x2="42.6779821%" y2="44.876721%" id="linearGradient-7">
            <stop stop-color="#409BFF" offset="0%"></stop>
            <stop stop-color="#5EB9FF" offset="100%"></stop>
        </linearGradient>
        <linearGradient x1="50%" y1="0%" x2="51.0324106%" y2="74.3612348%" id="linearGradient-8">
            <stop stop-color="#6BC6FF" offset="0%"></stop>
            <stop stop-color="#3A94FF" offset="100%"></stop>
        </linearGradient>
        <linearGradient x1="50%" y1="0%" x2="50%" y2="100%" id="linearGradient-9">
            <stop stop-color="#FF7777" offset="0%"></stop>
            <stop stop-color="#FF4242" offset="100%"></stop>
        </linearGradient>
        <linearGradient x1="142.561284%" y1="23.0577318%" x2="17.8270924%" y2="50%" id="linearGradient-10">
            <stop stop-color="#FFC588" offset="0%"></stop>
            <stop stop-color="#FFF1E4" offset="100%"></stop>
        </linearGradient>
        <linearGradient x1="20.4084246%" y1="26.9339644%" x2="50%" y2="89.7764629%" id="linearGradient-11">
            <stop stop-color="#6BC6FF" offset="0%"></stop>
            <stop stop-color="#3A94FF" offset="100%"></stop>
        </linearGradient>
        <linearGradient x1="48.2928928%" y1="216.898057%" x2="44.3990251%" y2="7.00857075%" id="linearGradient-12">
            <stop stop-color="#F6ACAC" offset="0%"></stop>
            <stop stop-color="#FFD8D8" offset="84.3887115%"></stop>
            <stop stop-color="#FFD9D9" offset="100%"></stop>
        </linearGradient>
        <linearGradient x1="-63.4879933%" y1="27.9579192%" x2="68.9253207%" y2="13.6583618%" id="linearGradient-13">
            <stop stop-color="#FFE3E3" offset="0%"></stop>
            <stop stop-color="#FFD2D2" offset="100%"></stop>
        </linearGradient>
        <linearGradient x1="43.4287802%" y1="38.8462992%" x2="76.1207156%" y2="20.9021893%" id="linearGradient-14">
            <stop stop-color="#FFFFFF" stop-opacity="0" offset="0%"></stop>
            <stop stop-color="#FF9797" stop-opacity="0.5" offset="100%"></stop>
        </linearGradient>
        <path d="M458.53593,196.906276 C455.040866,218.973243 486.012796,294.993979 526.607319,281.385728 C553.670336,272.313561 604.796569,246.106593 661.623088,144.918189 L559.154475,43.3070758 C503.970573,44.2144989 476.194581,61.1116738 460.536326,67.316813 C448.748781,71.9880459 464.097448,101.379156 467.689741,139.111388 C468.869352,151.501627 457.715628,192.049767 458.53593,196.906276 Z" id="path-15"></path>
        <linearGradient x1="50%" y1="1.91641597%" x2="96.3840759%" y2="125.704769%" id="linearGradient-16">
            <stop stop-color="#FFAAAA" offset="0%"></stop>
            <stop stop-color="#FF7272" offset="100%"></stop>
        </linearGradient>
        <linearGradient x1="99.8557306%" y1="31.203158%" x2="23.4289115%" y2="50%" id="linearGradient-17">
            <stop stop-color="#FFC588" offset="0%"></stop>
            <stop stop-color="#FFF1E4" offset="100%"></stop>
        </linearGradient>
        <linearGradient x1="126.537813%" y1="12.2807663%" x2="0%" y2="87.7192337%" id="linearGradient-18">
            <stop stop-color="#000000" offset="0%"></stop>
            <stop stop-color="#FFBE8B" offset="100%"></stop>
        </linearGradient>
        <linearGradient x1="74.5969753%" y1="-31.3701977%" x2="50%" y2="252.386759%" id="linearGradient-19">
            <stop stop-color="#483E36" offset="0%"></stop>
            <stop stop-color="#FFBE8B" offset="100%"></stop>
        </linearGradient>
        <linearGradient x1="50%" y1="0%" x2="50%" y2="100%" id="linearGradient-20">
            <stop stop-color="#AD9276" offset="0%"></stop>
            <stop stop-color="#755941" offset="100%"></stop>
        </linearGradient>
        <linearGradient x1="121.124085%" y1="-33.9277581%" x2="50%" y2="100%" id="linearGradient-21">
            <stop stop-color="#A98D70" offset="0%"></stop>
            <stop stop-color="#70543D" offset="100%"></stop>
        </linearGradient>
        <linearGradient x1="96.4932146%" y1="-33.9277581%" x2="50%" y2="100%" id="linearGradient-22">
            <stop stop-color="#A98D70" offset="0%"></stop>
            <stop stop-color="#70543D" offset="100%"></stop>
        </linearGradient>
        <linearGradient x1="15.3324736%" y1="14.6795939%" x2="37.6366471%" y2="75.9206945%" id="linearGradient-23">
            <stop stop-color="#FFE3E3" offset="0%"></stop>
            <stop stop-color="#FFD2D2" offset="100%"></stop>
        </linearGradient>
        <linearGradient x1="-28.1891222%" y1="40.5950056%" x2="22.1156999%" y2="56.902072%" id="linearGradient-24">
            <stop stop-color="#FBD1D1" offset="0%"></stop>
            <stop stop-color="#FFD2D2" offset="100%"></stop>
        </linearGradient>
    </defs>
    <g id="Page-1" stroke="none" stroke-width="1" fill="none" fill-rule="evenodd">
        <g id="Woman-with-Cat@1x" transform="translate(0.000000, -11.000000)">
            <g id="Woman-with-Cat" transform="translate(577.000000, 622.500000) scale(-1, 1) translate(-577.000000, -622.500000) translate(2.000000, 0.500000)">
                <path d="M712.078162,735.255515 C706.682568,740.876602 717.188742,724.741789 715.523513,748.113742 C715.421999,749.538521 702.569352,750.148569 699.339685,774.179132 C695.259947,804.53471 700.685709,861.419846 701.486924,883.906303 C698.464904,895.259331 695.16541,900.935845 691.588441,900.935845 C679.853884,900.935845 660.186089,895.259331 632.585056,883.906303 C632.390467,873.274001 634.435962,866.126544 638.72154,862.463932 C643.007117,858.801321 652.789703,855.840068 668.069297,853.580178 C650.428658,800.813898 621.413529,728.979313 615.398007,702.862487 C609.382485,676.745657 623.067238,682.022283 622.078162,653.906303 L712.078162,735.255515 Z" id="Path-89" fill="url(#linearGradient-1)" fill-rule="nonzero" transform="translate(664.784293, 777.421074) rotate(-345.000000) translate(-664.784293, -777.421074) "></path>
                <path d="M129.02797,871.189503 C207.574146,1007.23547 444.638026,905.224622 554.351498,890.79943 C583.277399,886.996236 542.002101,851.824022 547.525764,855.105749 C550.094169,856.631694 484.066751,863.216044 451.705799,924.696504 C404.721896,1013.95816 400.692751,1129.56136 506.97911,1070.59584 C636.472408,966.236275 725.595444,976.677221 696.461747,867.948784 C652.761202,704.85613 485.727264,704.344444 340.4389,705.832406 C318.073681,706.061455 307.907614,702.112458 277.403635,706.823773 C222.411173,715.317315 191.205727,717.716049 140.424038,743.527345 C111.730188,758.111845 95.7509011,813.551929 129.02797,871.189503 Z" id="Path-85" fill="url(#linearGradient-2)" fill-rule="nonzero" transform="translate(406.199076, 895.589257) rotate(-345.000000) translate(-406.199076, -895.589257) "></path>
                <g id="Group" transform="translate(645.207107, 505.160426) rotate(-315.000000) translate(-645.207107, -505.160426) translate(239.707107, 197.160426)" fill-rule="nonzero">
                    <path d="M18.4651528,187.997017 C43.1129612,177.398312 33.0826204,174.098376 48.9967008,184.674867 C59.6248128,191.738306 79.4832951,342.417678 124.076785,342.417678 C183.905713,342.417678 256.013542,433.540827 324.108089,494.154873 C371.292917,536.15623 427.237873,548.215063 431.725906,568.277441 C442.69082,617.292739 506.219208,573.747602 519.057674,577.196686 C555.566013,587.004743 605.927542,611.765208 627.402312,614.693881 C660.204756,619.167399 676.263603,597.758091 675.578852,550.465964 L487.115776,137.630214 L175.091171,40.2737739 L26.4207337,78.6219467 L0.804992074,158.732467 C-0.204701649,165.79827 2.03328061,195.06282 18.4651528,187.997017 Z" id="Path-99" fill="url(#linearGradient-3)"></path>
                    <path d="M174.681045,33.7178368 C205.570399,58.6312246 276.954921,60.2197133 296.27268,58.8409097 C404.249184,51.1340955 423.838168,-17.1720235 513.287892,4.91535355 C589.316388,23.6886945 548.684973,114.39194 582.477404,137.598254 C616.269834,160.804568 722.667954,99.2513015 756.626653,137.598254 C790.585358,175.945206 728.80677,177.102922 746.727262,250.947091 C764.647753,324.791262 810.599855,286.229033 810.599855,379.334476 C810.599855,472.439915 732.961317,462.221318 699.713618,512.640928 C678.118276,545.389923 676.830145,609.361108 658.389491,599.190663 C648.439333,593.702922 609.116367,550.109356 614.125376,505.79026 C628.417588,379.334476 550.371001,365.697903 537.992795,379.334476 C525.614584,392.97105 538.430621,281.663941 520.786958,250.947091 C503.14329,220.230243 455.576946,242.631525 439.031833,223.619642 C422.486719,204.607758 451.517196,167.485224 399.595811,137.598254 C347.674421,107.711284 320.716683,147.041459 258.818288,125.487039 C217.552691,111.117426 183.817013,82.413205 163.078156,43.2751878 L174.681045,33.7178368 Z" id="Path-98" fill="url(#linearGradient-4)"></path>
                </g>
                <g id="Path-88" transform="translate(297.000000, 266.500000)" fill-rule="nonzero">
                    <path d="M19.1843311,33.338015 C62.3458101,-5.93933701 93.5391766,-14.8005176 134.556348,33.3549875 C154.523541,56.7971285 179.822842,125.645637 204.185579,149.723924 C271.972654,216.719544 300.22857,216.054112 339.738614,211.653781 C372.188716,208.039727 478.015074,251.404789 455.884512,264.571742 C380.332742,309.522548 227.858697,302.516029 212.715475,278.579964 C200.57413,259.388802 135.322036,223.327378 65.8102108,154.455792 C22.0661478,111.114634 -28.1818755,76.4417085 19.1843311,33.338015 Z" id="Path-82" fill="#0074FF"></path>
                    <g id="path-6-link" transform="translate(205.000000, 203.000000)" fill="url(#linearGradient-6)">
                        <path d="M239.221361,32.7514636 C269.906809,84.3936704 291.817132,121.078226 306.62367,149.091771 C308.376369,152.407827 332.968325,125.327048 335.572108,125.200312 C365.59701,123.738887 356.555579,146.558665 354.428737,158.805566 C354.166903,160.313269 324.513189,187.479266 324.867745,188.44196 C334.397703,214.317807 333.961048,231.785828 326.975858,253.702929 C317.855639,282.319015 292.777289,303.019036 291.619013,351.7575 C291.307691,364.857445 307.062422,406.056731 310.93783,423.856309 C314.419327,439.846672 301.977512,451.506796 291.629639,450.24355 C283.468508,449.247256 277.327624,437.308526 276.38455,433.114833 C265.342144,384.011071 236.501987,321.16191 213.096042,314.538343 C198.465853,310.398199 143.600201,281.757126 116.721405,242.93418 C100.420004,219.38891 55.4361209,193.112033 53.1230949,109.885372 L239.221361,32.7514636 Z" id="path-6" transform="translate(205.243054, 241.544326) rotate(-345.000000) translate(-205.243054, -241.544326) "></path>
                    </g>
                </g>
                <path d="M349.307226,239 C333.260438,245.297368 286.143658,260.791442 273.053313,279.470819 C241.80833,324.056104 233.89618,402.695407 227,483.791614 C221.815665,544.757231 220.533324,578.077284 212.071782,615.716032 C206.834539,639.012412 158.949182,681.543169 168.10712,697.075782 C171.758328,703.268528 203.785449,683.233206 229.258455,692.710275 C419.444654,763.467836 356.072146,699.394229 367.798206,719.372187 C374.596807,706.984567 406.121476,657.559275 407.918904,648.614324 C423.749177,569.834517 449.511724,505.248282 450.541463,457.014918 C451.519903,411.184432 439.899851,360.461025 454.977669,318.413917 C458.683044,308.080837 471.748444,295.099804 494.173867,279.470819 L421.441388,210.990954 C408.112577,238.449253 390.753343,229.725651 349.307226,239 Z" id="Path-83" fill="url(#linearGradient-7)" fill-rule="nonzero"></path>
                <path d="M273.053312,279.406939 C256.14826,349.135996 243.582801,405.331261 260.487853,455.854614 C271.660719,489.246444 283.565969,506.776049 322.853772,564.788533 C336.291388,584.630562 321.844719,640.128943 341.805467,700.747449 C357.584254,718.284235 366.666078,724.313138 369.05094,718.83416 C392.215767,665.615299 466.140203,574.968257 463.410044,549.329242 C459.622155,513.75703 522,505.48365 522,455.854614 C522,427.340693 503.903234,385.007173 506.266887,371.126664 C510.724937,344.946857 479.36421,299.06088 503.078717,279.406939 L415.985047,206.447215 C399.225694,216.695121 363.055811,229.448915 326.228858,248.201156 C304.774273,259.125806 273.739269,277.76452 273.053312,279.406939 Z" id="Path-84" fill="url(#linearGradient-8)" fill-rule="nonzero"></path>
                <path d="M58.0056349,930.309425 C136.551811,1066.35539 303.398637,971.981418 413.112109,957.556227 C442.03801,953.753032 470.979766,910.943943 476.503429,914.225671 C479.071834,915.751616 413.044416,922.335965 380.683464,983.816426 C333.699561,1073.07808 276.736101,1129.81198 383.02246,1070.84645 C512.515758,966.486889 654.573109,1035.79714 625.439412,927.068706 C581.738867,763.976052 414.704928,763.464366 269.416565,764.952328 C247.051346,765.181377 236.885278,761.23238 206.381299,765.943695 C151.388838,774.437237 120.183392,776.83597 69.4017029,802.647267 C62.4309683,806.19035 56.2106131,812.144619 51.26455,819.95582 C49.7490033,822.349287 45.9825142,816.980859 44.7213267,819.707076 C43.4658724,822.420899 44.7144979,833.227929 43.7408993,836.239953 C35.7455317,860.97524 37.7556734,895.235463 58.0056349,930.309425 Z" id="Path-85" fill="url(#linearGradient-9)" fill-rule="nonzero" transform="translate(334.327761, 929.307308) rotate(-321.000000) translate(-334.327761, -929.307308) "></path>
                <path d="M104.238493,1063.91255 C182.893756,1065.1601 332.827444,997.85226 360.807511,987.288274 C409.70946,968.825147 465.106955,970.354187 527,991.875386 C491.429597,991.567666 457.989426,997.35444 426.679487,1009.23571 C370.999155,1030.36488 342.260342,1052.40228 282.73217,1077.28588 C280.670934,1078.14751 249.903674,1086.08225 220.189084,1094.04425 C190.474493,1102.00625 142.734972,1131.52146 75.8952691,1087.38216 C53.275767,1072.44479 49.0603879,1063.03736 104.238493,1063.91255 Z" id="Path-86" fill="#FF4242" fill-rule="nonzero" transform="translate(293.585437, 1042.796362) rotate(-330.000000) translate(-293.585437, -1042.796362) "></path>
                <path d="M417.00499,508.804867 C457.752471,526.296394 489.386666,533.134697 511.907566,529.319768 C534.428471,525.504846 548.337646,511.994012 553.635106,488.787266 C576.015216,529.747971 573.682077,564.153958 527.579292,569.103315 C497.959027,572.283195 460.850626,557.715922 441.484546,543.367428 C434.300241,538.044512 426.140386,526.523659 417.00499,508.804867 Z" id="Path-92" fill="url(#linearGradient-10)" fill-rule="nonzero" transform="translate(492.209373, 529.165894) rotate(-15.000000) translate(-492.209373, -529.165894) "></path>
                <path d="M326.485126,259.728871 C415.81625,237.981582 400.239289,349.167406 424.872716,448.894204 C447.31382,539.74552 472.647999,552.325392 510.011934,566.846538 C540.699411,578.772935 572.725775,587.053864 695.12463,588.627597 C703.285215,588.732521 718.739344,579.31435 727.726353,579.31435 C732.858486,593.597863 728.025212,627.009506 742.842295,639.93367 C748.237374,644.639515 731.532871,646.388221 725.045205,649.719363 C702.860408,661.110318 609.953049,666.450248 583.043025,667.783024 C491.174595,672.333004 360.389687,595.076096 360.389687,566.846538 C360.389687,544.212992 322.898713,481.90531 299.982397,388.590839 C285.56107,329.867677 260.549175,275.780703 326.485126,259.728871 Z" id="Path-82" fill="url(#linearGradient-11)" fill-rule="nonzero"></path>
                <path d="M502,258.79899 L479.051184,290.139633 C467.199302,363.173912 464.158895,265.38562 452.429327,245.116735 C454.228414,226.311087 380.789025,233.734536 417.498298,208.228848 C454.207571,182.72316 447.603909,127.840173 467.199302,65.6208205 C481.615281,123.149929 491.939448,166.432457 498.171805,195.468403 C504.404161,224.50435 500.338937,241.426715 502,258.79899 Z" id="Path-81" fill="url(#linearGradient-12)" fill-rule="nonzero"></path>
                <path d="M653.58075,120.948545 C651.174623,113.975796 646.97866,109.480338 640.99286,107.462171 C635.007066,105.444003 632.056666,104.563221 619.76772,106.581389" id="Path-100" stroke="#FF9191" stroke-width="4.75" stroke-linecap="round" transform="translate(636.674235, 113.193382) scale(-1, 1) rotate(-60.000000) translate(-636.674235, -113.193382) "></path>
                <g id="Path-80" fill-rule="nonzero" transform="translate(558.890314, 163.155878) rotate(-9.000000) translate(-558.890314, -163.155878) ">
                    <use fill="url(#linearGradient-13)" xlink:href="#path-15"></use>
                    <use fill="url(#linearGradient-14)" xlink:href="#path-15"></use>
                </g>
                <path d="M561,247 C558.593873,239.562401 554.397909,234.767246 548.41211,232.614534 C542.426315,230.461822 533.288945,230.461822 521,232.614534" id="Path-100" stroke="#FFFFFF" stroke-width="9.39999998" stroke-linecap="round" transform="translate(541.000000, 239.000000) scale(-1, 1) rotate(-225.000000) translate(-541.000000, -239.000000) "></path>
                <path d="M442.435294,191.326002 L417.498298,208.228848 C407.738536,202.409616 402.858654,194.5 402.858654,184.5 C402.858654,170.653798 412.176703,156.672888 411.671621,148 C410.863971,134.131647 392.781549,66.3122637 452,25.8525761 C471.011636,12.8632995 490.815828,11.187846 536.042121,14.6689591 C553.710896,16.0289425 575.956079,6.00454255 602.504809,14.6689591 C646.033916,28.875074 662.554895,54.9558623 671.325626,86.5972948 C676.316121,104.601087 673.910517,141.747987 676.707812,163 C677.851041,171.685509 678.414828,171.702605 676.707812,178.5 C668.895262,209.609834 709.167927,297.393688 704.211498,305.029248 C695.522274,318.415316 637.020847,261.530867 626.174274,236.156005 C613.813949,207.239818 622.939484,116.279557 592.587018,95.2385451 C579.092629,85.8839314 566.358175,82.5644378 552,86.5972948 C547.115679,87.9691801 544.634593,83.2108451 541.962197,86.5972948 C529.001956,103.020463 517.930571,120.487316 505.630376,116.334339 C492.395365,111.865735 497.974516,83.2607954 479.033134,86.5972948 C460.091753,89.9337942 460.161801,104.214519 460.161801,122.010549 C460.161801,139.806579 469.597623,144.744047 464.592607,163 C463.734103,166.131421 456.348332,175.573422 442.435294,191.326002 Z" id="Path-79" fill="url(#linearGradient-16)" fill-rule="nonzero"></path>
                <path d="M738.643865,409.956441 C685.810409,339.529128 647.019912,298.171747 602.647534,292.34852 C579.990672,289.375138 548.624375,298.05565 528.173485,311.925836 C493.673365,335.324477 495.651031,383.872069 494.173868,406.101328 C492.203196,435.757199 574.435918,517.51865 549.146575,538.367775 C546.032843,540.934808 554.46007,525.0487 551.249924,531.595049 C534.004056,566.764005 485.870736,615.75752 481.719303,624.5 C470.168665,648.824435 497.950331,651.903379 529.876559,638.400796 C535.168514,636.162666 557.072161,598.019205 574.885611,579.264805 C579.095988,574.832025 621.781532,584.204656 666.219403,587.297879 C710.657274,590.391103 698.453841,584.204656 711.315736,579.264805 C712.695247,578.734979 717.987902,591.240198 725.696356,587.297879 C736.334878,581.857042 736.414542,546.202817 744.831777,538.367775 C750.680057,532.924005 761.082382,529.619469 767.473082,523.200714 C772.816084,517.834259 800.592871,538.796974 801.293302,523.200714 C801.667372,514.87142 750.532502,425.804066 738.643865,409.956441 Z" id="Path-91" fill="url(#linearGradient-17)" fill-rule="nonzero"></path>
                <path d="M610.97316,335.158632 C615.33814,350.104509 617.52063,361.251914 617.52063,368.600849 C617.52063,375.949784 615.33814,383.698774 610.97316,391.847824 C654.991055,367.622954 677,351.596949 677,343.769809 C677,335.942663 654.991055,333.072272 610.97316,335.158632 Z" id="Path-93" fill="url(#linearGradient-18)" fill-rule="nonzero" transform="translate(643.986580, 363.173912) rotate(-240.000000) translate(-643.986580, -363.173912) "></path>
                <path d="M538.497944,274.610596 C528.223364,277.528539 516.452556,332.451622 525.237921,329.95661 C534.023286,327.461598 548.772529,271.692653 538.497944,274.610596 Z" id="Path-94" fill="url(#linearGradient-19)" fill-rule="nonzero" transform="translate(532.078979, 302.269540) scale(-1, 1) rotate(-270.000000) translate(-532.078979, -302.269540) "></path>
                <path d="M525.543025,356.223162 C497.027827,374.5384 480.388691,379.46717 491.954703,406.559382 C503.520714,433.651594 551.411652,444.794938 575.339218,429.426325 C599.266785,414.057711 573.324632,400.306784 563.043025,376.22316 C552.761418,352.139536 554.058223,337.907925 525.543025,356.223162 Z" id="Path-2" fill="url(#linearGradient-20)"></path>
                <path d="M587.785267,341.415612 C582.283434,347.635836 558.065702,359.851296 564.031488,373.627568 C569.997274,387.40384 579.204865,399.75317 591.546781,391.938297 C603.888697,384.123424 612.431174,363.831941 607.127888,351.585524 C601.824602,339.339106 593.287099,335.195388 587.785267,341.415612 Z" id="Path-2" fill="url(#linearGradient-21)" transform="translate(585.911827, 366.460097) rotate(-45.000000) translate(-585.911827, -366.460097) "></path>
                <path d="M517.636904,313.578281 C512.135072,319.798505 496.017409,340.352934 501.983195,354.129206 C507.948981,367.905478 509.056502,371.915839 521.398419,364.100966 C533.740335,356.286093 542.282811,335.99461 536.979525,323.748192 C531.67624,311.501775 523.138737,307.358057 517.636904,313.578281 Z" id="Path-2" fill="url(#linearGradient-22)" transform="translate(519.630376, 339.383058) scale(-1, 1) rotate(-75.000000) translate(-519.630376, -339.383058) "></path>
                <circle id="Oval" fill="#000000" fill-rule="nonzero" cx="587" cy="357" r="10"></circle>
                <circle id="Oval" fill="#000000" fill-rule="nonzero" cx="522" cy="332" r="10"></circle>
                <path d="M540.543025,376.22316 C546.065872,376.22316 555.519703,371.74601 555.519703,366.22316 C555.519703,360.700315 541.065872,356.22316 535.543025,356.22316 C530.020178,356.22316 530.543025,360.700313 530.543025,366.22316 C530.543025,371.746007 535.020178,376.22316 540.543025,376.22316 Z" id="Oval" fill="#424242" fill-rule="nonzero"></path>
                <g id="FACE" transform="translate(537.378195, 155.223160)">
                    <path d="M39.3432804,36.1028422 C38.8898081,40.0357169 37.7682876,43.9707448 38.1730743,47.5087824 C38.7646014,52.6790249 39.8533113,56.0000124 39.3432804,59.3959824 C38.1730743,67.1876374 29.3333333,67.1876374 21,65.3178038" id="Path-96" stroke="#DF8989" stroke-width="3.81757509" stroke-linecap="round" transform="translate(30.237763, 51.224055) rotate(-360.000000) translate(-30.237763, -51.224055) "></path>
                    <circle id="Oval" fill="#AA84A9" fill-rule="nonzero" cx="8.121805" cy="7.77684" r="7.5"></circle>
                    <circle id="Oval" fill="#AA84A9" fill-rule="nonzero" cx="67.121805" cy="36.77684" r="7.5"></circle>
                </g>
                <path d="M572,155.5 C569.593873,148.527251 565.397909,144.031793 559.41211,142.013626 C553.426315,139.995458 544.288945,139.995458 532,142.013626" id="Path-100" stroke="#FF9191" stroke-width="4.75" stroke-linecap="round" transform="translate(552.000000, 148.000000) rotate(-2.000000) translate(-552.000000, -148.000000) "></path>
                <path d="M639,188.5 C636.593873,181.527251 632.397909,177.031793 626.41211,175.013626 C620.426315,172.995458 611.288945,172.995458 599,175.013626" id="Path-100" stroke="#FF9191" stroke-width="4.75" stroke-linecap="round" transform="translate(619.000000, 181.000000) scale(-1, 1) rotate(-60.000000) translate(-619.000000, -181.000000) "></path>
                <path d="M542,392 C540.796936,387.351501 538.698955,384.354529 535.706055,383.009084 C532.713158,381.663639 528.144473,381.663639 522,383.009084" id="Path-100" stroke="#FFADAD" stroke-width="10" stroke-linecap="round" transform="translate(532.000000, 387.000000) scale(-1, 1) rotate(-225.000000) translate(-532.000000, -387.000000) "></path>
                <path d="M740.459501,515.98303 C739.205081,518.148148 741.913462,523.441694 740.439965,532.469897 C738.25841,545.836408 732.095426,565.199785 732.453568,576.932209 C732.619393,582.364479 732.680678,597.367606 736.550178,606.4273 C738.603496,611.23475 727.134986,616.821144 729.293437,619.979823 C739.984272,635.624803 770.438331,643.303557 772.993875,640.182925 C824.195374,577.659622 829.722856,570.399964 822.946476,549.221929 C818.401131,535.016484 769.88886,483.686703 756.9896,499.196873 C755.466569,501.028175 756.77898,521.787333 753.8781,529.174557 C752.427599,532.868325 756.904399,524.065892 755.262773,519.134822 C752.480612,510.777848 743.443137,503.70972 740.459501,515.98303 Z" id="Path-101" fill="url(#linearGradient-23)" fill-rule="nonzero" transform="translate(777.150555, 568.588072) rotate(-330.000000) translate(-777.150555, -568.588072) "></path>
                <path d="M701.689943,406.98562 C700.435523,407.809371 703.143904,409.823381 701.670407,413.258297 C699.488852,418.343787 693.325868,425.710875 693.68401,430.174653 C693.849835,432.241441 756.901975,450.705316 764.103382,447.225285 C789.607519,434.900585 789.461212,425.915187 784.176918,419.631859 C779.631573,414.227184 731.119302,394.697996 718.220042,400.599074 C716.697011,401.29582 718.009422,409.193954 715.108542,412.004535 C713.658041,413.409885 718.134841,410.060866 716.493215,408.184766 C713.711054,405.00523 704.673579,402.316054 701.689943,406.98562 Z" id="Path-101" fill="url(#linearGradient-24)" fill-rule="nonzero" transform="translate(740.334517, 423.580317) scale(1, -1) rotate(-60.000000) translate(-740.334517, -423.580317) "></path>
            </g>
            <rect id="Rectangle" fill="#FFFFFF" x="0" y="815" width="1090" height="365" rx="40"></rect>
        </g>
    </g>
</svg>