<?xml version="1.0" encoding="UTF-8"?>
<svg width="185px" height="361px" viewBox="0 0 185 361" version="1.1" xmlns="http://www.w3.org/2000/svg" xmlns:xlink="http://www.w3.org/1999/xlink">
    <!-- Generator: Sketch 55 (78076) - https://sketchapp.com -->
    <title>Group 3@1x</title>
    <desc>Created with Sketch.</desc>
    <defs>
        <linearGradient x1="56.2136783%" y1="132.920746%" x2="56.2136783%" y2="29.5852212%" id="linearGradient-1">
            <stop stop-color="#6BC6FF" offset="0%"></stop>
            <stop stop-color="#3A94FF" offset="100%"></stop>
        </linearGradient>
        <linearGradient x1="129.264104%" y1="-99.9527942%" x2="68.5944255%" y2="87.4911068%" id="linearGradient-2">
            <stop stop-color="#8B572A" offset="0%"></stop>
            <stop stop-color="#FFBE8B" offset="100%"></stop>
        </linearGradient>
        <linearGradient x1="109.465444%" y1="67.1379801%" x2="50%" y2="57.3127511%" id="linearGradient-3">
            <stop stop-color="#8B572A" offset="0%"></stop>
            <stop stop-color="#FFBE8B" stop-opacity="0" offset="100%"></stop>
        </linearGradient>
        <path d="M73.0289269,42.7671203 C73.3162818,56.2537634 73.4599592,63.7415352 73.4599592,65.2304356 C73.4599592,67.4637863 79.9602561,66.0237837 80.7576544,66.03997 C81.5550528,66.0561562 82.0918805,66.0637674 82.6041647,66.2343358 C82.9456876,66.3480482 83.5405689,66.7565908 84.3888087,67.4599637 L114.214297,89.5245083 L104.360105,92.0636346 L111,121.754572 C135.027661,104.821625 147.041492,92.2009854 147.041492,83.8926521 C147.041492,80.8572834 146.4272,77.1011342 145.198617,72.6242043 C143.775774,67.4393991 139.787716,57.4870378 133.234443,42.7671203 L113.01072,19.5604131 L73.0289269,23.403636 C72.0714312,27.9709541 71.5926833,31.9806646 71.5926833,35.4327675 C71.5926833,38.8848704 72.0714312,41.3296547 73.0289269,42.7671203 Z" id="path-4"></path>
        <linearGradient x1="50%" y1="0%" x2="50%" y2="100%" id="linearGradient-5">
            <stop stop-color="#FF7777" offset="0%"></stop>
            <stop stop-color="#FF4242" offset="100%"></stop>
        </linearGradient>
        <linearGradient x1="93.8683378%" y1="60.0099866%" x2="62.6847612%" y2="83.457007%" id="linearGradient-6">
            <stop stop-color="#8B572A" offset="0%"></stop>
            <stop stop-color="#FFBE8B" offset="100%"></stop>
        </linearGradient>
        <linearGradient x1="-13.3469448%" y1="187.123662%" x2="65.2458412%" y2="-31.7047604%" id="linearGradient-7">
            <stop stop-color="#FF7F7F" offset="0%"></stop>
            <stop stop-color="#FF4848" offset="100%"></stop>
        </linearGradient>
        <linearGradient x1="89.5411376%" y1="96.1083932%" x2="50.0467574%" y2="-50.1357268%" id="linearGradient-8">
            <stop stop-color="#32A0FF" offset="0%"></stop>
            <stop stop-color="#24ADFF" offset="36.3322895%"></stop>
            <stop stop-color="#00E1FF" offset="100%"></stop>
        </linearGradient>
        <linearGradient x1="19.3781267%" y1="-14.5783364%" x2="50%" y2="80.7582872%" id="linearGradient-9">
            <stop stop-color="#FFFFFF" offset="0%"></stop>
            <stop stop-color="#000000" offset="100%"></stop>
        </linearGradient>
        <linearGradient x1="334.191013%" y1="326.084684%" x2="59.814113%" y2="40.6369033%" id="linearGradient-10">
            <stop stop-color="#000000" offset="0%"></stop>
            <stop stop-color="#FFFFFF" offset="100%"></stop>
        </linearGradient>
        <linearGradient x1="587.788342%" y1="794.651763%" x2="-5.58670037%" y2="100%" id="linearGradient-11">
            <stop stop-color="#000000" offset="0%"></stop>
            <stop stop-color="#FFFFFF" offset="100%"></stop>
        </linearGradient>
        <linearGradient x1="798.739284%" y1="711.445168%" x2="-27.3909418%" y2="94.4130533%" id="linearGradient-12">
            <stop stop-color="#000000" offset="0%"></stop>
            <stop stop-color="#FFFFFF" offset="100%"></stop>
        </linearGradient>
        <linearGradient x1="50%" y1="402.915045%" x2="50%" y2="25.5204019%" id="linearGradient-13">
            <stop stop-color="#000000" offset="0%"></stop>
            <stop stop-color="#FFFFFF" offset="100%"></stop>
        </linearGradient>
        <linearGradient x1="50%" y1="402.915045%" x2="50%" y2="25.5204019%" id="linearGradient-14">
            <stop stop-color="#000000" offset="0%"></stop>
            <stop stop-color="#FFFFFF" offset="100%"></stop>
        </linearGradient>
        <linearGradient x1="21.6914854%" y1="7.98918983%" x2="60.8806452%" y2="50%" id="linearGradient-15">
            <stop stop-color="#818181" offset="0%"></stop>
            <stop stop-color="#4A4A4A" offset="100%"></stop>
        </linearGradient>
        <linearGradient x1="89.8178717%" y1="79.931751%" x2="30.6411106%" y2="45.9394843%" id="linearGradient-16">
            <stop stop-color="#8B572A" offset="0%"></stop>
            <stop stop-color="#FFBE8B" offset="100%"></stop>
        </linearGradient>
    </defs>
    <g id="Page-2" stroke="none" stroke-width="1" fill="none" fill-rule="evenodd">
        <g id="Nail-Trim-Card-Copy-2" transform="translate(-137.000000, -9.000000)">
            <g id="Screen-Shot-2019-02-19-at-10.02.40-PM" transform="translate(0.000000, 0.500000)">
                <g id="Group-3" transform="translate(100.500000, 8.500000)">
                    <g id="Group-2" transform="translate(83.700330, 245.026855)">
                        <polygon id="Path-143" fill="#00CBFF" points="0 3.45631164 7.18004634 82.5393322 100.089733 86.2310982 100.04935 0"></polygon>
                        <path d="M5.68434189e-14,6.1393429 C17.5093519,13.1974057 29.9323048,17.5083808 37.2688584,19.0722683 C54.1054484,22.6612193 68.8056477,22.754981 78.0651639,26.0078869 C93.3769394,31.3869763 100.705001,37.1412957 100.04935,43.270845 L100.04935,0 L5.68434189e-14,6.1393429 Z" id="Path-125" fill="url(#linearGradient-1)"></path>
                        <path d="M30.8515132,27.3105344 C35.1537876,28.3793512 39.0737987,36.7974505 42.6115462,52.5648324 C46.1492938,68.3322143 48.0387847,89.2089962 48.2800188,115.195178 L37.2688584,115.195178 L30.8515132,27.3105344 Z" id="Path-144" fill="#3A94FF"></path>
                    </g>
                    <g id="Path-124">
                        <use fill="url(#linearGradient-2)" xlink:href="#path-4"></use>
                        <use fill="url(#linearGradient-3)" xlink:href="#path-4"></use>
                    </g>
                    <path d="M217.285777,145.175767 C209.204287,144.128457 201.408184,145.69341 193.897467,149.870624 C186.386749,154.047838 182.558562,156.754466 182.412905,157.990507 L190.166329,242.757072 C189.203428,244.549892 188.445711,245.545135 187.893178,245.742803 C176.502707,249.817727 163.610042,252.275324 149.215185,253.115596 C133.772922,254.017007 110.58871,253.408177 79.6625516,251.289105 L81.2367938,151.988645 L61.1853581,122.974916 C68.8292937,111.240613 74.9883582,102.412023 79.6625516,96.489145 C84.336745,90.5662674 88.8531324,86.7484255 93.2117138,85.0356194 C99.4773091,84.786013 103.853393,85.2092344 106.339967,86.3052837 C108.82654,87.401333 110.86054,88.0215514 112.441966,88.1659388 C110.50496,103.727795 112.273278,111.305969 117.74692,110.900458 C125.957383,110.292193 130.688043,104.286562 137.064198,98.5944621 C141.314968,94.7997288 144.028619,87.4767427 145.205153,76.6255037 L145.205153,71.8237886 C165.369783,73.6563438 179.824776,79.1037272 188.570131,88.1659388 C197.315487,97.2281504 206.887368,116.231427 217.285777,145.175767 Z" id="Path-126" fill="url(#linearGradient-5)"></path>
                    <path d="M43.5386827,111.22586 L41.5494252,117.747499 C38.3700129,113.681444 36.9309941,111.154399 37.2323689,110.166364 C37.5337436,109.178328 39.6358482,109.531494 43.5386827,111.22586 Z" id="Path-138" fill="#4A4A4A"></path>
                    <path d="M70.1057543,104.309521 C70.5107967,99.0689556 70.1950025,96.1736827 69.1583718,95.623702 C68.1217411,95.0737214 66.5320616,96.9580522 64.3893331,101.276694 C65.9334487,101.977495 67.0420321,102.504161 67.7150831,102.856692 C68.3881341,103.209223 69.1850245,103.693499 70.1057543,104.309521 Z" id="Path-139" fill="#4A4A4A"></path>
                    <path d="M161.765494,130.337264 C163.473779,169.079598 164.327922,198.324063 164.327922,218.07066 C164.327922,237.817257 163.473779,248.984208 161.765494,251.571512 C167.461248,250.92689 171.959423,250.215304 175.260017,249.436756 C178.105156,248.76564 182.236756,247.531411 187.654817,245.734067 C188.233039,245.542252 189.031326,244.34814 190.049678,242.151731 L182.412905,157.990507 L177.673895,163.130801 C173.63015,157.022653 170.801995,151.714202 169.189429,147.205448 C167.576863,142.696694 165.102218,137.073966 161.765494,130.337264 Z" id="Path-127" fill="#FF4242"></path>
                    <path d="M46.2484913,147.595395 C48.0376822,154.078735 49.8382569,158.678772 51.6502155,161.395508 C61.4478803,176.085504 78.3682112,190.268594 85.4971808,194.231697 C120.587358,213.738862 147.652744,207.583027 150.049767,213.434751 C152.488812,219.389061 135.484308,227.849334 105.377766,225.081576 C98.044943,224.407454 86.7832488,220.525179 71.5926833,213.434751 C53.4252178,203.959219 42.5585584,194.868891 38.9927051,186.163765 C35.4268519,177.45864 37.8454473,164.602516 46.2484913,147.595395 Z" id="Path-129" fill="url(#linearGradient-6)"></path>
                    <path d="M150.348329,72.6782481 C147.727665,85.521751 145.192766,94.1151602 142.743632,98.4584756 C136.404058,109.70113 126.583146,115.291596 119.549884,115.812428 C108.440938,116.635076 104.2499,108.431201 106.97677,91.2008025 L112.351476,91.2008025 C110.328551,105.548105 112.973842,111.879578 120.287352,110.195222 C124.13673,109.308681 131.368046,105.377291 135.961905,98.4584756 C142.12407,89.1776309 145.205153,80.2994019 145.205153,71.8237886 C145.678677,71.3863504 146.290789,71.2299901 147.041492,71.3547078 C147.792194,71.4794255 148.894474,71.9206056 150.348329,72.6782481 Z" id="Path-145" fill="url(#linearGradient-7)"></path>
                    <path d="M120.702984,2.47949771 C123.061667,12.2244531 125.254441,19.4723629 127.281306,24.2232271 C129.75188,30.0141206 134.659282,43.7642762 134.659282,45.7886497 C134.659282,46.7020639 131.698875,44.9167558 125.778061,40.4327253 C123.685073,31.5765488 120.56103,27.1484605 116.405931,27.1484605 C113.522102,27.1484605 111.251365,33.3074536 111.678797,35.4492223 C113.522102,44.6856125 128.839836,63.2612442 125.778061,75.5284633 C122.00631,90.640251 111.10224,94.8757945 101.699597,93.4399215 C95.4311676,92.4826729 89.660905,83.8226869 84.3888087,67.4599637 C87.3586246,66.5752148 89.5224805,65.8320388 90.8803763,65.2304356 C96.2107599,62.8688588 96.2107599,56.4851872 101.699597,58.516461 C107.188434,60.5477347 102.361445,53.8828288 103.03109,52.665531 C105.571878,48.0468249 104.701191,42.3080553 100.419028,35.4492223 C98.5312405,34.0276308 95.9816153,33.1566393 92.770152,32.8362477 C90.5407366,32.6138302 94.7060104,23.4304239 91.8664929,21.6894363 C91.0326294,21.1781713 87.4893964,22.997846 81.2367938,27.1484605 C74.2947331,26.6219772 69.6600992,26.6219772 67.3328921,27.1484605 C65.005685,27.6749438 63.7388773,29.0100249 63.5324691,31.1537039 C57.907878,26.8375202 55.2038193,23.6827644 55.420293,21.6894363 C56.0028687,16.3249777 65.8473222,11.5517812 71.5926833,9.03883136 C78.6132659,5.96811545 86.9719384,-1.48591179 100.419028,0.262111893 C102.879749,0.581987701 109.641068,1.32111631 120.702984,2.47949771 Z" id="Path-122" fill="url(#linearGradient-8)"></path>
                    <path d="M42.578982,111.900137 C37.3208833,133.247425 47.2014445,156.749648 54.7047115,167.505556 C62.2079785,178.261464 80.401217,197.27149 103.083392,200.980213 C118.204841,203.452695 132.857542,201.942474 147.041492,196.449549 L170.835744,185.302576 C169.793297,183.362956 168.539137,181.971619 167.073262,181.128565 C165.607387,180.285511 163.838131,179.456881 161.765494,178.642675 C155.926249,183.878249 151.748769,186.852964 149.233054,187.566818 C143.0393,189.324345 137.416392,184.759758 137.858444,181.92505 C138.533184,177.598206 149.007612,171.151399 156.705932,165.381342 C161.182054,162.026392 164.227704,158.266194 165.149428,156.94282 C167.656391,153.343423 164.141808,147.554658 157.423765,149.511205 C150.705723,151.467751 149.997686,160.827143 143.4864,159.56421 C136.975113,158.301276 135.740461,152.510778 128.570839,148.710624 C125.231879,146.940856 113.921665,141.638621 108.384333,139.980868 C106.791399,139.50398 105.44999,139.50398 104.360105,139.980868 C109.928837,137.527663 110.26354,134.739137 105.364214,131.61529 C98.0152241,126.92952 92.5647668,128.938601 85.9165569,124.869669 C79.2683469,120.800738 80.9853567,119.654636 77.4487533,114.184024 C74.8084758,110.099897 73.1060856,98.3276366 54.7047115,100.685654 C51.0969417,101.147967 44.8521327,102.671402 42.578982,111.900137 Z" id="Path-131" fill="url(#linearGradient-9)"></path>
                    <path d="M121.808249,148.429335 C126.265339,150.702193 129.470257,153.644061 131.423002,157.254941 C132.809025,159.817878 133.724743,160.672024 134.659282,166.386025 C135.593821,172.100027 130.873896,176.226055 129.837764,176.63091 C128.801631,177.035764 131.688159,177.052792 120.969188,174.442123 C110.250218,171.831454 109.785311,179.428632 100.87463,176.63091 C91.963949,173.833188 89.426256,164.69621 91.1571701,161.10815 C92.8880842,157.520089 87.7972409,153.4936 86.6752996,152.668278 C85.5533582,151.842957 78.5061697,148.360191 76.8724343,145.950943 C75.238699,143.541694 76.5528962,141.15426 78.0531232,139.610119 C79.5533501,138.065978 80.1661125,137.250006 85.1066418,137.250006 C90.047171,137.250006 100.002886,140.261255 107.180545,142.255211 C111.965651,143.584515 116.841553,145.642556 121.808249,148.429335 Z" id="Path-132" fill="url(#linearGradient-10)"></path>
                    <path d="M99.0548945,129.104516 C99.9533862,132.164182 100.402632,134.42952 100.402632,135.900529 C100.402632,137.371538 99.9533862,138.728897 99.0548945,139.972606 C102.981693,141.569579 105.646846,142.008411 107.050353,141.289102 C109.155613,140.210139 110.928279,138.2941 108.475985,134.197761 C106.841122,131.466868 103.700759,129.76912 99.0548945,129.104516 Z" id="Path-133" fill="url(#linearGradient-11)"></path>
                    <path d="M83.70033,150.699242 C83.90144,153.493207 83.6463014,155.517541 82.9349141,156.772246 C82.2235268,158.026952 80.4571578,159.568039 77.6358072,161.395508 C84.5726674,165.109972 89.0797883,165.014186 91.1571701,161.10815 C93.2345519,157.202114 90.7489385,153.732478 83.70033,150.699242 Z" id="Path-134" fill="url(#linearGradient-12)"></path>
                    <path d="M161.765494,178.642675 C166.352329,173.274234 170.287919,171.774314 173.572264,174.142915 C176.856609,176.511516 175.944435,180.231403 170.835744,185.302576 C169.435552,183.333555 168.181391,181.942218 167.073262,181.128565 C165.965132,180.314913 164.195876,179.486283 161.765494,178.642675 Z" id="Path-135" fill="url(#linearGradient-13)"></path>
                    <path d="M154.869111,150.316201 C158.270533,149.979276 160.569327,150.291851 161.765494,151.253928 C162.96166,152.216004 164.089639,154.112301 165.149428,156.94282 C169.33829,150.603008 169.748832,146.450481 166.381054,144.485237 C163.013276,142.519994 159.175962,144.463649 154.869111,150.316201 Z" id="Path-136" fill="url(#linearGradient-14)"></path>
                    <path d="M46.2484913,130.092412 C50.9946813,131.816962 54.4276714,132.363783 56.5474615,131.732876 C58.6672516,131.101968 61.5433453,129.007067 65.1757426,125.448171 C70.4038046,125.47976 73.7739122,124.594548 75.2860653,122.792536 C76.7982184,120.990525 77.0758053,117.30668 76.1188259,111.741002 C78.9827553,117.668048 81.8601967,121.778826 84.75115,124.073338 C87.6421034,126.36785 92.4100182,128.044909 99.0548945,129.104516 C99.9643167,131.966045 100.419028,134.04848 100.419028,135.351824 C100.419028,136.655167 99.9643167,138.101898 99.0548945,139.692016 C87.6882526,136.132751 80.5485568,136.132751 77.6358072,139.692016 C74.7230575,143.251281 76.7445651,146.920356 83.70033,150.699242 C83.9754697,153.362637 83.7203311,155.386972 82.9349141,156.772246 C82.1494971,158.157521 80.3831281,159.698608 77.6358072,161.395508 C67.5478007,158.091517 60.1881452,154.130082 55.5568406,149.511205 C50.9255361,144.892327 47.822753,138.419396 46.2484913,130.092412 Z" id="Path-137" fill="url(#linearGradient-15)"></path>
                    <path d="M71.5926833,116.008101 C71.8050807,118.396542 71.3663366,119.829582 70.2764511,120.307221 C69.1865656,120.784861 66.991279,120.552153 63.6905912,119.609099 C62.623548,122.679394 61.4999788,124.473085 60.3198837,124.99017 C59.1397886,125.507255 57.5065917,124.95443 55.420293,123.331695" id="Path-141" stroke="#4A4A4A" stroke-width="1.8" stroke-linecap="round"></path>
                    <path d="M87.7141277,71.3547078 C91.9674247,70.9686063 94.7887428,70.313119 96.1780822,69.3882459 C97.5674216,68.4633728 98.7457453,66.4563276 99.7130535,63.3671103" id="Path-142" stroke="#FFFFFF" stroke-width="3.6" stroke-linecap="round"></path>
                    <ellipse id="Oval" fill="#464646" cx="56.2566378" cy="116.008101" rx="1.79757085" ry="1.80049875"></ellipse>
                    <ellipse id="Oval" fill="#626262" cx="62.9975285" cy="117.8086" rx="1.79757085" ry="1.80049875"></ellipse>
                    <path d="M182.412905,157.990507 C188.151078,167.640231 189.013414,174.045477 184.999911,177.206244 C174.882386,185.174131 156.495491,191.627258 144.879382,193.996596 C139.832016,195.026108 133.761561,195.161905 132.58029,194.899967 C125.006364,193.220505 122.866488,186.525018 117.773029,184.269565 C108.841473,180.314551 99.7365156,180.429542 97.9449867,180.086995 C95.8983528,179.69567 96.1108029,182.030373 99.5914006,185.309457 C100.096367,185.785188 103.083707,186.193903 104.257381,186.919382 C104.821609,187.268147 105.125807,187.920192 105.169974,188.875518 C85.6233788,186.671173 79.4236298,189.09305 86.5707272,196.141148 C97.2913732,206.713295 82.7476744,209.270183 132.58029,215.906153 C182.412905,222.542123 205.235452,199.281018 215.827543,190.954388 C222.888938,185.403301 223.056592,170.097571 216.330506,145.037198 C208.115895,144.309186 201.981421,144.690105 197.927082,146.179953 C194.891247,147.295532 187.826897,152.322504 183.538438,156.182062 C182.579271,157.0453 182.204094,157.648115 182.412905,157.990507 Z" id="Path-128" fill="url(#linearGradient-16)"></path>
                    <ellipse id="Oval" fill="#464646" cx="67.0420629" cy="111.506854" rx="1.79757085" ry="1.80049875"></ellipse>
                    <path d="M81.2367938,40.4327253 C82.4214719,39.7691681 83.9813929,39.4373894 85.9165569,39.4373894 C87.8517208,39.4373894 89.5063273,39.7691681 90.8803763,40.4327253" id="Path-123" stroke="#505050" stroke-width="2" stroke-linecap="round"></path>
                    <ellipse id="Oval" fill="#696969" cx="85.9165569" cy="48.4893978" rx="2.69635628" ry="2.70074813"></ellipse>
                </g>
            </g>
        </g>
    </g>
</svg>