<?xml version="1.0" encoding="UTF-8"?>
<svg width="258px" height="284px" viewBox="0 0 258 284" version="1.1" xmlns="http://www.w3.org/2000/svg" xmlns:xlink="http://www.w3.org/1999/xlink">
    <!-- Generator: Sketch 55 (78076) - https://sketchapp.com -->
    <title>Woman with Cat@1x</title>
    <desc>Created with Sketch.</desc>
    <defs>
        <linearGradient x1="-104.454041%" y1="27.9579192%" x2="100%" y2="27.9579192%" id="linearGradient-1">
            <stop stop-color="#FFE3E3" offset="0%"></stop>
            <stop stop-color="#FFD2D2" offset="100%"></stop>
        </linearGradient>
        <linearGradient x1="72.9302812%" y1="0%" x2="55.299684%" y2="87.4911068%" id="linearGradient-2">
            <stop stop-color="#8B572A" offset="0%"></stop>
            <stop stop-color="#FFBE8B" offset="100%"></stop>
        </linearGradient>
        <linearGradient x1="50%" y1="0%" x2="50%" y2="100%" id="linearGradient-3">
            <stop stop-color="#FB6767" offset="0%"></stop>
            <stop stop-color="#F53636" offset="100%"></stop>
        </linearGradient>
        <linearGradient x1="92.2153493%" y1="-31.3701977%" x2="57.4729849%" y2="87.4911068%" id="linearGradient-4">
            <stop stop-color="#8B572A" offset="0%"></stop>
            <stop stop-color="#FFBE8B" offset="100%"></stop>
        </linearGradient>
        <linearGradient x1="53.8810441%" y1="66.1168599%" x2="43.8482539%" y2="76.8983742%" id="linearGradient-5">
            <stop stop-color="#FFFFFF" stop-opacity="0" offset="0%"></stop>
            <stop stop-color="#000000" stop-opacity="0.5" offset="100%"></stop>
        </linearGradient>
        <path d="M178.125073,136.273555 C189.305956,170.60238 196.478819,197.638142 199.643662,217.380842 C202.808506,237.123542 203.686295,259.385466 202.27703,284.166612 L183.998585,284.166612 C185.481847,280.936075 186.78818,278.969466 187.917584,278.266785 C189.046989,277.564104 191.074758,277.257031 194.000892,277.345564 C194.000892,260.522088 189.340858,250.796509 180.020792,248.168829 C175.140453,246.792877 160.261101,241.09919 151.294871,228.196619 C145.857049,220.371491 139.99496,203.382311 133.708605,177.229077 L178.125073,136.273555 Z" id="path-6"></path>
        <linearGradient x1="51.8002619%" y1="92.69195%" x2="40.4601443%" y2="44.876721%" id="linearGradient-7">
            <stop stop-color="#409BFF" offset="0%"></stop>
            <stop stop-color="#5EB9FF" offset="100%"></stop>
        </linearGradient>
        <linearGradient x1="50%" y1="0%" x2="50%" y2="100%" id="linearGradient-8">
            <stop stop-color="#6BC6FF" offset="0%"></stop>
            <stop stop-color="#3A94FF" offset="100%"></stop>
        </linearGradient>
        <linearGradient x1="50%" y1="0%" x2="50%" y2="100%" id="linearGradient-9">
            <stop stop-color="#FF7777" offset="0%"></stop>
            <stop stop-color="#FF4242" offset="100%"></stop>
        </linearGradient>
        <linearGradient x1="50%" y1="0%" x2="50%" y2="100%" id="linearGradient-10">
            <stop stop-color="#6BC6FF" offset="0%"></stop>
            <stop stop-color="#3A94FF" offset="100%"></stop>
        </linearGradient>
        <linearGradient x1="6.13830541%" y1="64.4586782%" x2="52.8096383%" y2="100%" id="linearGradient-11">
            <stop stop-color="#DCC3C3" offset="0%"></stop>
            <stop stop-color="#FFD2D2" offset="100%"></stop>
        </linearGradient>
        <linearGradient x1="-104.454041%" y1="27.9579192%" x2="100%" y2="27.9579192%" id="linearGradient-12">
            <stop stop-color="#FFE3E3" offset="0%"></stop>
            <stop stop-color="#FFD2D2" offset="100%"></stop>
        </linearGradient>
        <linearGradient x1="50%" y1="0%" x2="50%" y2="100%" id="linearGradient-13">
            <stop stop-color="#FFAAAA" offset="0%"></stop>
            <stop stop-color="#FF7272" offset="100%"></stop>
        </linearGradient>
        <linearGradient x1="159.138859%" y1="278.451673%" x2="15.0738289%" y2="0.83984875%" id="linearGradient-14">
            <stop stop-color="#8B572A" offset="0%"></stop>
            <stop stop-color="#FFBE8B" offset="100%"></stop>
        </linearGradient>
        <linearGradient x1="242.710963%" y1="36.4410822%" x2="50%" y2="76.0593341%" id="linearGradient-15">
            <stop stop-color="#8B572A" offset="0%"></stop>
            <stop stop-color="#FFBE8B" offset="100%"></stop>
        </linearGradient>
        <linearGradient x1="242.710963%" y1="-11.3844247%" x2="0%" y2="221.973311%" id="linearGradient-16">
            <stop stop-color="#8B572A" offset="0%"></stop>
            <stop stop-color="#FFBE8B" offset="100%"></stop>
        </linearGradient>
        <linearGradient x1="194.651292%" y1="-31.3701977%" x2="50%" y2="252.386759%" id="linearGradient-17">
            <stop stop-color="#8B572A" offset="0%"></stop>
            <stop stop-color="#FFBE8B" offset="100%"></stop>
        </linearGradient>
        <linearGradient x1="50%" y1="0%" x2="50%" y2="100%" id="linearGradient-18">
            <stop stop-color="#FF9090" offset="0%"></stop>
            <stop stop-color="#FF5757" offset="100%"></stop>
        </linearGradient>
        <linearGradient x1="28.8656559%" y1="149.737682%" x2="62.3609312%" y2="44.1886854%" id="linearGradient-19">
            <stop stop-color="#8B572A" offset="0%"></stop>
            <stop stop-color="#FFBE8B" offset="100%"></stop>
        </linearGradient>
        <linearGradient x1="25.5209578%" y1="14.6795939%" x2="41.2701289%" y2="75.9206945%" id="linearGradient-20">
            <stop stop-color="#FFE3E3" offset="0%"></stop>
            <stop stop-color="#FFD2D2" offset="100%"></stop>
        </linearGradient>
    </defs>
    <g id="Page-2" stroke="none" stroke-width="1" fill="none" fill-rule="evenodd">
        <g id="Nail-Trim-Card-Copy" transform="translate(-59.000000, -17.000000)">
            <g id="Screen-Shot-2019-02-19-at-10.02.40-PM" transform="translate(0.000000, 0.500000)">
                <g id="Woman-with-Cat" transform="translate(188.000000, 158.500000) scale(-1, 1) translate(-188.000000, -158.500000) translate(59.000000, 16.000000)">
                    <path d="M6.18474441,155.6136 C5.8075225,160.39516 5.131081,164.336992 4.15541991,167.439096 C3.17975881,170.5412 2.30631124,175.590341 1.53507717,182.586517 L38.3925937,168.331264 L6.18474441,155.6136 Z" id="Path-103" fill="url(#linearGradient-1)"></path>
                    <path d="M178.055321,244.356849 C176.599839,245.862217 175.647496,249.744491 175.198294,256.00367 C174.749091,262.262849 174.749091,271.650497 175.198294,284.166612 L156.611751,284.166612 C156.55926,281.319204 157.11104,279.405063 158.267091,278.424189 C159.423142,277.443315 162.062032,276.65027 166.183761,276.045055 C161.425131,261.913861 158.234461,251.351125 156.611751,244.356849 C154.989041,237.362572 154.044283,230.100602 153.777476,222.570938 L178.055321,244.356849 Z" id="Path-89" fill="url(#linearGradient-2)"></path>
                    <path d="M88.5543265,96.8446325 C93.7391596,94.618873 94.8361464,88.4007866 98.1837808,90.6218811 C100.419476,92.1052241 104.596842,123.748339 113.977384,123.748339 C135.283632,123.748339 159.986759,140.183102 188.086766,173.052627 C191.371121,172.328309 194.363626,172.328309 197.064284,173.052627 C204.74406,175.112348 215.337948,180.312119 219.855311,180.927149 C226.755527,181.866601 230.133614,177.370583 229.989572,167.439096 L190.34509,80.7423645 L124.708605,60.2972233 L93.4347735,68.3504533 L83.6880873,96.8446325 C83.4756914,98.3284721 85.0977711,98.3284721 88.5543265,96.8446325 Z" id="Path-99" fill="url(#linearGradient-3)"></path>
                    <g id="Path-88">
                        <use fill="url(#linearGradient-4)" xlink:href="#path-6"></use>
                        <use fill="url(#linearGradient-5)" xlink:href="#path-6"></use>
                    </g>
                    <path d="M58.3973088,60.2972233 C41.7688286,67.4514934 29.7962802,77.5142691 22.4796637,90.4855505 C16.3075571,101.427785 12.3557488,129.142673 4.54904424,163.873086 C3.1014267,170.313236 13.873792,166.481888 40.4516909,166.481888 C58.1702903,166.481888 68.2021959,168.672135 70.5474079,173.052627 C71.907128,170.33644 72.7523097,168.146194 73.082953,166.481888 C73.7320891,163.214438 79.2908034,158.53773 79.6502889,156.576404 C82.8163435,139.302651 84.5023447,125.377799 84.7082926,114.80185 C84.9039806,104.752771 82.5799702,93.6308397 85.5955338,84.4113278 C86.3366088,82.145632 88.9496887,79.2993296 93.4347735,75.8724206 L71.7042388,50.0857275 L58.3973088,60.2972233 Z" id="Path-83" fill="url(#linearGradient-7)"></path>
                    <path d="M40.9283516,72.6177632 C37.5473411,87.9185599 37.5473411,101.112182 40.9283516,112.19863 C43.1629247,119.525871 45.0840235,129.114828 52.941584,141.844632 C55.6291073,146.198611 58.9689438,155.026425 62.9610935,168.328074 L72.5275933,173.052627 C73.0855263,168.68404 73.7222221,165.598048 74.4376805,163.794652 C79.070646,152.116723 86.7086699,144.120341 86.1626381,138.494317 C85.4050602,130.68863 93.4347735,135.125587 93.4347735,120.673076 C93.4347735,114.416205 89.66814,109.07945 88.1405824,104.529101 C86.1396923,98.5687719 86.2912456,94.0043473 86.7639763,90.9585174 C87.6555862,85.2138261 90.4728419,80.1851271 95.2157434,75.8724206 L67.8067313,46.2660359 C60.5582116,55.7820409 54.359522,62.3082397 49.2106625,65.8446325 C44.0618031,69.3810252 41.3010328,71.6387354 40.9283516,72.6177632 Z" id="Path-84" fill="url(#linearGradient-8)"></path>
                    <path d="M3.03630101,170.911192 C1.01210034,186.194993 0.217624993,194.772295 0.652874978,196.643099 C2.54664619,204.782959 11.6671876,209.584443 15.967463,213.993478 C16.9903563,215.042242 52.4708343,216.238505 53.335256,217.159349 C59.9162529,224.169895 27.2747555,227.531243 23.038253,231.85011 C15.2108588,239.829682 31.2121365,238.84649 71.0420861,228.900535 C128.088529,245.400139 156.611751,242.393545 156.611751,219.880753 C156.611751,186.111565 99.1866652,176.913818 71.0420861,169.680591 C66.7096012,168.567131 64.9500828,167.278009 58.813291,166.609163 C47.7499052,165.40337 30.9933313,165.5797 19.8469713,167.937406 C13.5487958,169.269612 7.94523906,170.260874 3.03630101,170.911192 Z" id="Path-85" fill="url(#linearGradient-9)"></path>
                    <path d="M3.25729324,171.179559 C-1.21099504,191.516584 3.21012369,203.573897 16.5206494,207.351498 C35.4945321,212.736391 76.1863063,206.191194 83.650439,205.451419 C96.6958201,204.158483 110.017051,208.107991 123.614133,217.299941 C115.016894,214.926587 106.54011,214.161063 98.1837808,215.003369 C83.323222,216.501293 74.9305049,219.959694 58.8940655,222.11457 C58.3387837,222.189186 50.3701031,222.11457 42.6546706,222.11457 C34.939238,222.11457 17.7484069,225.187805 4.42116281,210.220084 C-0.0889652681,205.154795 -0.47692179,192.141287 3.25729324,171.179559 Z" id="Path-86" fill="#FF4242"></path>
                    <path d="M59.8970253,71.6490382 C77.76325,66.8906308 81.8372908,90.3779455 86.7639763,112.19863 C91.252197,132.077318 96.9575871,150.107392 104.430374,153.284686 C110.977069,156.068221 129.142369,149.697493 158.926274,134.172502 C160.326435,138.43576 161.455646,141.3015 162.313908,142.769721 C163.002027,143.946882 164.161716,144.441934 164.651636,145.648857 C165.611056,148.012395 168.727477,147.362014 170.099549,147.938267 C170.525803,148.117288 170.959255,148.667346 171.399905,149.588441 C135.967371,181.449921 110.971339,193.195479 96.4118106,184.825115 C74.5725178,172.269568 25.7546332,80.7423645 59.8970253,71.6490382 Z" id="Path-82" fill="url(#linearGradient-10)"></path>
                    <path d="M96.6023867,69.8161471 L93.4347735,75.8724206 C90.5399705,74.1270773 88.2479969,72.1083195 86.5588528,69.8161471 C84.8697087,67.5239747 82.8521798,64.3510002 80.5062662,60.2972233 C79.4029486,62.2306687 79.4029486,60.7628212 80.5062662,55.8936806 C81.6095837,51.0245401 84.1207818,42.3680346 88.0398604,29.9241641 C90.9230562,41.4299858 92.9878896,50.0864913 94.2343609,55.8936806 C95.4808322,61.7008699 96.2701741,66.3416921 96.6023867,69.8161471 Z" id="Path-81" fill="url(#linearGradient-11)"></path>
                    <path d="M88.1340043,33.6923873 C86.3073003,45.1756494 86.3073003,53.3371907 88.1340043,58.1770111 C90.8740604,65.4367416 99.3357841,79.3539751 107.888544,76.5013256 C113.590384,74.5995593 122.427624,63.0427922 134.400263,41.8310246 L114.422128,23.3272506 C102.795568,23.5174705 95.3327889,24.2629611 92.0337899,25.5637225 C88.7347909,26.8644838 87.4348624,29.5740388 88.1340043,33.6923873 Z" id="Path-80" fill="url(#linearGradient-12)"></path>
                    <path d="M97.247345,34.0917491 C95.7323935,33.2564008 93.1115262,28.9204707 91.4365265,28.2014393 C89.7615269,27.4824078 88.0398604,29.9241641 88.0398604,29.9241641 C88.0398604,29.9241641 88.0398604,39.9901975 85.4591331,47.4786954 C82.8784059,54.9671934 81.5524159,62.2699963 79.0195112,69.3530046 C77.4150261,73.8397828 77.847483,77.9845289 75.6226286,79.9652741 C74.4871954,80.9761285 71.7398838,80.7109679 70.4310099,80.7109679 C57.422275,80.7109679 41.8283263,57.0320058 59.8070666,29.9241641 C78.0638475,2.3971008 97.6055142,-4.47633405 117.963869,4.37527327 C138.322223,13.2268806 149.413571,23.628042 145.628172,36.8612281 C141.842773,50.0944142 121.754497,43.1993165 117.044072,42.0332699 C113.903788,41.2559055 111.770968,36.6452953 110.645614,28.2014393 C105.903865,31.5714136 102.899622,33.5348502 101.632883,34.0917491 C99.732776,34.9270974 98.7622965,34.9270974 97.247345,34.0917491 Z" id="Path-79" fill="url(#linearGradient-13)"></path>
                    <path d="" id="Path-87" stroke="#979797"></path>
                    <path d="M171.590482,121.081221 C152.589734,91.587831 136.137805,81.555813 122.234697,90.9851672 C106.129408,101.908082 119.320069,126.670155 124.654583,141.844632 C126.227706,146.319514 128.507609,148.192173 127.307284,150.719931 C122.036617,161.819404 95.7012955,154.479777 92.4614835,157.323537 C89.2216715,160.167297 91.6329193,163.842912 98.1837808,165.876442 C104.734642,167.909972 124.336287,168.009397 130.722367,165.876442 C135.65574,164.228692 139.92292,151.09245 143.205994,145.7191 C144.172745,144.136836 141.469987,147.508336 146.797968,143.482739 C149.087905,143.030346 153.874356,141.144941 160.598091,134.886265 C161.767747,133.797511 163.075507,131.414014 164.353647,130.130263 C165.992941,128.483773 168.405219,125.467426 171.590482,121.081221 Z" id="Path-91" fill="url(#linearGradient-14)"></path>
                    <path d="M98.1837808,147.00926 C106.333277,150.020381 112.660116,151.197577 117.164296,150.540847 C121.668477,149.884118 124.450312,147.558263 125.509804,143.563282 C129.985826,150.614561 127.61356,154.56621 118.393003,155.418229 C112.46895,155.965637 106.952908,155.429171 103.079692,152.959115 C101.642831,152.042789 100.01086,150.059504 98.1837808,147.00926 Z" id="Path-92" fill="url(#linearGradient-15)"></path>
                    <path d="M149.022242,98.9260456 C149.895238,101.915221 150.331736,104.144702 150.331736,105.614489 C150.331736,107.084276 149.895238,108.634074 149.022242,110.263884 C157.825821,105.41891 162.22761,102.213709 162.22761,100.648281 C162.22761,99.0828519 157.825821,98.5087736 149.022242,98.9260456 Z" id="Path-93" fill="url(#linearGradient-16)"></path>
                    <path d="M134.374988,87.657203 C133.382794,80.8156057 131.85924,77.6866015 129.804323,78.2701901 C127.749407,78.8537788 125.686011,82.9710092 123.614133,90.6218811 C124.638933,89.5652785 126.02987,88.787476 127.786943,88.2884736 C129.544016,87.7894712 131.740031,87.5790476 134.374988,87.657203 Z" id="Path-94" fill="url(#linearGradient-17)"></path>
                    <circle id="Oval" fill="#5E5E5E" cx="131.208605" cy="99.8446325" r="2"></circle>
                    <circle id="Oval" fill="#5E5E5E" cx="121.708605" cy="94.8446325" r="2"></circle>
                    <path d="M117.963869,101.344632 C118.324106,102.810286 118.905685,103.705109 119.708605,104.029101 C120.511525,104.353094 121.842487,104.331603 123.701491,103.964629 C123.994466,105.598706 124.652516,106.622168 125.675639,107.035017 C126.698763,107.447866 128.577063,107.447866 131.31054,107.035017" id="Path-95" stroke="#5A5A5A" stroke-width="1.5" stroke-linecap="round"></path>
                    <circle id="Oval" fill="#5E5E5E" cx="124.708605" cy="101.844632" r="2"></circle>
                    <path d="M128.84253,51.3446325 C135.335325,56.5728131 140.611974,59.0422296 144.672475,58.7528818 C167.368622,57.135574 176.68611,48.2631622 195.488016,52.8982924 C211.468844,56.837958 202.928314,75.8724206 210.031322,80.7423645 C217.13433,85.6123084 239.498708,72.6950931 246.636665,80.7423645 C253.774623,88.7896359 240.789058,89.0325875 244.55586,104.529101 C248.322662,120.025615 257.981575,111.933167 257.981575,131.471741 C257.981575,151.010314 241.662324,148.865898 234.673816,159.446668 C227.685308,170.027438 213.679419,184.546312 216.683575,158.009026 C219.68773,131.471741 203.282709,128.610048 200.680869,131.471741 C198.079028,134.333434 200.772898,110.975163 197.064284,104.529101 C193.355669,98.0830396 183.35745,102.784044 179.879746,98.7943193 C176.402042,94.8045944 182.50411,87.0142725 171.590482,80.7423645 C160.676853,74.4704564 155.010465,82.7240613 141.999717,78.2007745 C133.325885,75.18525 126.809365,69.5708479 122.450156,61.3575682 L128.84253,51.3446325 Z" id="Path-98" fill="url(#linearGradient-18)"></path>
                    <path d="M222.048205,107.180783 C240.499195,110.627643 218.448936,134.052704 223.877977,150.935151 C226.281465,158.40917 231.682167,163.196788 235.266478,176.554542 C236.912394,182.688425 236.912394,195.331877 232.934702,203.512015 C231.533231,206.394148 225.048405,214.038114 218.448936,217.08765 C214.523794,218.901411 208.425873,220.317196 200.155174,221.335005 L198.35059,210.616902 C214.149,209.890035 222.658129,203.318867 223.877977,190.903398 C225.707749,172.280194 210.954882,164.667807 204.99387,149.360256 C199.032857,134.052704 203.597215,103.733923 222.048205,107.180783 Z" id="Path-90" fill="url(#linearGradient-19)"></path>
                    <g id="FACE" transform="translate(101.675639, 42.844632)">
                        <path d="M14.8008213,2.92140342 C13.8114954,6.03718913 13.2439576,8.24794129 13.0982079,9.55365989 C12.8127274,12.1111765 13.7842778,14.649416 13.0982079,15.7077869 C12.1018365,17.2448468 10.5379273,17.7663687 8.40648031,17.2723523" id="Path-96" stroke="#DF8989"></path>
                        <path d="M2.26485497e-13,17.4525909 C1.36574771,19.6640113 3.19040421,21.2573213 5.47396951,22.2325208 C7.75753481,23.2077203 9.58219132,23.2077203 10.947939,22.2325208" id="Path-97" stroke="#DF8989"></path>
                        <circle id="Oval" fill="#8D688C" cx="5.03296559" cy="2" r="2"></circle>
                        <circle id="Oval" fill="#8D688C" cx="21.0329656" cy="8.5" r="2"></circle>
                    </g>
                    <path d="M113.27929,38.6323858 C112.763736,37.0228885 111.864679,35.9852164 110.582119,35.5193693 C109.29956,35.0535222 107.341722,35.0535222 104.708605,35.5193693" id="Path-100" stroke="#FF9191" stroke-linecap="round"></path>
                    <path d="" id="Path-102" stroke="#979797"></path>
                    <path d="M162.313908,132.162276 C161.42834,133.690758 160.856401,134.598754 160.598091,134.886265 C159.705469,135.879796 159.52846,135.506614 159.572519,135.725618 C160.382424,139.751402 162.138186,143.057745 163.383401,144.879994 C165.521568,148.00899 169.156501,149.265991 169.209954,149.210822 C180.17047,137.898694 181.381737,130.478476 180.026461,126.242869 C179.117392,123.40178 174.390836,115.814573 169.742976,112.636737 C168.199545,111.581462 166.907212,111.581462 165.865976,112.636737 C166.203754,113.174827 166.462064,113.573093 166.640906,113.831533 C168.332287,116.275719 169.420654,118.542924 169.742976,120.673076 C170.006755,122.416329 168.445828,117.571042 165.865976,120.673076 C165.150932,121.532849 163.96691,125.362583 162.313908,132.162276 Z" id="Path-101" fill="url(#linearGradient-20)"></path>
                </g>
            </g>
        </g>
    </g>
</svg>