<?xml version="1.0" encoding="UTF-8"?>
<svg width="276px" height="291px" viewBox="0 0 276 291" version="1.1" xmlns="http://www.w3.org/2000/svg" xmlns:xlink="http://www.w3.org/1999/xlink">
    <!-- Generator: Sketch 55 (78076) - https://sketchapp.com -->
    <title>Woman with cat@1x</title>
    <desc>Created with Sketch.</desc>
    <defs>
        <linearGradient x1="-104.454041%" y1="27.9579192%" x2="100%" y2="27.9579192%" id="linearGradient-1">
            <stop stop-color="#FFE3E3" offset="0%"></stop>
            <stop stop-color="#FFD2D2" offset="100%"></stop>
        </linearGradient>
        <linearGradient x1="15.3737156%" y1="144.87928%" x2="69.7564381%" y2="100%" id="linearGradient-2">
            <stop stop-color="#FFAFAF" offset="0%"></stop>
            <stop stop-color="#FFD2D2" offset="100%"></stop>
        </linearGradient>
        <linearGradient x1="50%" y1="-41.6776997%" x2="50%" y2="100%" id="linearGradient-3">
            <stop stop-color="#FF8989" offset="0%"></stop>
            <stop stop-color="#FF5151" offset="100%"></stop>
        </linearGradient>
        <linearGradient x1="93.5133303%" y1="131.766778%" x2="50%" y2="78.7568685%" id="linearGradient-4">
            <stop stop-color="#FF8989" offset="0%"></stop>
            <stop stop-color="#FF5151" offset="100%"></stop>
        </linearGradient>
        <linearGradient x1="50%" y1="0%" x2="50%" y2="100%" id="linearGradient-5">
            <stop stop-color="#00E2FF" offset="0%"></stop>
            <stop stop-color="#00C0FF" offset="100%"></stop>
        </linearGradient>
        <linearGradient x1="67.5500505%" y1="90.8507102%" x2="23.5901528%" y2="94.2942736%" id="linearGradient-6">
            <stop stop-color="#FF6500" offset="0%"></stop>
            <stop stop-color="#FFD45F" offset="100%"></stop>
        </linearGradient>
        <linearGradient x1="36.4340922%" y1="0%" x2="47.5415347%" y2="26.2842048%" id="linearGradient-7">
            <stop stop-color="#FFFFFF" offset="0%"></stop>
            <stop stop-color="#F8F8F8" stop-opacity="0" offset="100%"></stop>
        </linearGradient>
        <path d="M54.9485334,184.719536 C49.4561243,184.719536 45.3628688,179.444164 42.6687668,168.893421 C39.2438486,155.480628 41.5215409,144.091961 40.2937583,133.089958 C37.6947192,109.8003 26.5779828,90.8087724 7.31291261,99.3525654 C-4.5154066,104.598262 -2.16837546,128.808662 15.6205927,133.089958 C27.1735544,135.870425 18.780422,168.893421 33.3807227,184.719536 C37.1446348,188.79946 44.333905,191.659435 54.9485334,193.299462 L54.9485334,184.719536 Z" id="path-8"></path>
        <linearGradient x1="50%" y1="-41.6776997%" x2="50%" y2="100%" id="linearGradient-9">
            <stop stop-color="#FF8989" offset="0%"></stop>
            <stop stop-color="#FF5151" offset="100%"></stop>
        </linearGradient>
        <linearGradient x1="104.313904%" y1="126.229576%" x2="-53.5417889%" y2="0%" id="linearGradient-10">
            <stop stop-color="#FF6500" offset="0%"></stop>
            <stop stop-color="#FFCA6F" offset="100%"></stop>
        </linearGradient>
        <linearGradient x1="123.354759%" y1="265.577157%" x2="50.0549592%" y2="-50.1357268%" id="linearGradient-11">
            <stop stop-color="#32A0FF" offset="0%"></stop>
            <stop stop-color="#24ADFF" offset="36.3322895%"></stop>
            <stop stop-color="#00E1FF" offset="100%"></stop>
        </linearGradient>
        <linearGradient x1="89.3536981%" y1="109.094233%" x2="-2.45485402%" y2="0%" id="linearGradient-12">
            <stop stop-color="#FF6500" offset="0%"></stop>
            <stop stop-color="#FFCA6F" offset="100%"></stop>
        </linearGradient>
        <linearGradient x1="-72.4944953%" y1="118.149342%" x2="236.874244%" y2="33.6753606%" id="linearGradient-13">
            <stop stop-color="#FF6500" offset="0%"></stop>
            <stop stop-color="#FFCA6F" offset="100%"></stop>
        </linearGradient>
        <linearGradient x1="54.8961791%" y1="68.1315497%" x2="30.96647%" y2="0%" id="linearGradient-14">
            <stop stop-color="#FF6500" offset="0%"></stop>
            <stop stop-color="#FFCA6F" offset="100%"></stop>
        </linearGradient>
        <linearGradient x1="22.5528528%" y1="4.20164196%" x2="48.0550234%" y2="50%" id="linearGradient-15">
            <stop stop-color="#D78300" offset="0%"></stop>
            <stop stop-color="#EE5E00" offset="100%"></stop>
        </linearGradient>
        <linearGradient x1="-104.454041%" y1="27.9579192%" x2="100%" y2="27.9579192%" id="linearGradient-16">
            <stop stop-color="#FFE3E3" offset="0%"></stop>
            <stop stop-color="#FFD2D2" offset="100%"></stop>
        </linearGradient>
        <linearGradient x1="-180.185653%" y1="-25.8692836%" x2="39.5351815%" y2="66.2864757%" id="linearGradient-17">
            <stop stop-color="#FFE3E3" offset="0%"></stop>
            <stop stop-color="#FFD2D2" offset="100%"></stop>
        </linearGradient>
        <linearGradient x1="-104.454041%" y1="27.9579192%" x2="100%" y2="27.9579192%" id="linearGradient-18">
            <stop stop-color="#FFE3E3" offset="0%"></stop>
            <stop stop-color="#FFD2D2" offset="100%"></stop>
        </linearGradient>
    </defs>
    <g id="Page-2" stroke="none" stroke-width="1" fill="none" fill-rule="evenodd">
        <g id="Nail-Trim-Card-Copy-2" transform="translate(-53.000000, -12.000000)">
            <g id="Screen-Shot-2019-02-19-at-10.02.40-PM" transform="translate(0.000000, 0.500000)">
                <g id="Woman-with-cat" transform="translate(53.500000, 11.500000)">
                    <path d="M178.078524,55.1907292 C187.692276,65.1394038 194.619299,71.7677813 198.859595,75.0758616 C205.641746,80.3669772 210.787389,83.4965083 212.837194,85.3245275 C214.233277,86.569556 188.364333,95.5726913 187.984432,96.3906652 C187.315165,97.8316818 170.572806,75.9830112 165.579497,81.4103417 C160.294061,87.1551909 154.663503,91.4027952 149.821356,90.0809138 C147.510956,89.4501864 147.19799,88.5830282 146.511321,87.7345363 C145.373927,86.3291016 144.802317,84.7578328 144.139701,82.7996583 C142.814496,78.8833932 141.76294,76.5021816 140.416981,75.0758616 C137.991729,72.5058067 134.425504,73.982327 133.171535,72.0865589 C132.599533,71.2217967 132.960774,67.9421773 133.171535,61.2244384 C133.236379,59.1576381 132.97109,55.514843 132.375668,50.2960529 L137.79819,25.5879758 L182.551013,30.4515999 C181.675508,37.9525876 180.748302,43.5748165 179.769395,47.3182867 C178.790488,51.0617569 177.561289,53.6859044 176.081799,55.1907292 L178.078524,55.1907292 Z" id="Path-148" fill="url(#linearGradient-1)"></path>
                    <path d="M190.712938,66.125133 C191.095098,68.4435572 191.048929,71.3519735 190.574433,74.850382 C190.099937,78.3487905 188.5824,83.2400026 186.021824,89.5240182 C182.101233,87.1120055 178.742719,85.4077545 175.946282,84.4112653 C174.37299,83.8506346 171.780257,83.2731457 170.347503,83.3297493 C169.604914,83.3590866 168.918465,83.7126943 168.288157,84.3905724 C170.082978,79.9412639 171.952826,75.6237311 173.897702,71.4379739 C175.842578,67.2522168 174.613324,62.6645755 170.209938,57.6750501 C175.278786,59.4017494 179.182724,60.8295293 181.921754,61.9583898 C184.660784,63.0872503 187.591178,64.4761647 190.712938,66.125133 Z" id="Path-149" fill="url(#linearGradient-2)" transform="translate(179.628410, 73.599534) rotate(-345.000000) translate(-179.628410, -73.599534) "></path>
                    <path d="M144.453765,43.3322949 C148.314158,44.8131357 148.460367,54.9097898 157.490308,52.8970468 C160.576967,52.2090411 163.185735,50.5883835 164.89135,47.6723347 C168.175467,42.0575574 168.592716,35.1302748 174.284678,36.6830866 C186.317162,39.9656417 171.661953,52.476201 174.284678,57.9858233 C176.907404,63.4954456 183.063976,65.6784441 187.576468,65.1128812 C192.088959,64.5473184 192.147624,59.5006123 193.212375,55.6135634 C193.922209,53.0221975 194.474256,48.9284413 194.868515,43.3322949 C200.363441,42.1589278 205.758256,44.9217976 211.052958,51.6209042 C218.995012,61.6695641 211.997525,65.9335095 220.456607,73.1352666 C228.915688,80.3370238 256.471006,72.8732171 258.902893,79.0737638 C261.33478,85.2743105 279.809821,142.173228 312.128103,125.384473 C325.543452,118.415446 317.586645,105.441874 309.973344,101.479265 C302.838882,97.7658846 296.5221,103.314238 295.783653,91.7593793 C294.819383,76.670948 306.865553,82.3126068 312.128103,68.93056 C317.84483,54.3935951 310.890023,48.985197 304.751908,41.4476458 C288.085592,20.9815561 250.111131,39.4940878 234.82738,32.1324658 C219.543628,24.7708439 224.809929,9.78459087 205.879883,2.44614772 C193.259852,-2.44614772 182.010991,-1.03028697e-13 172.133301,9.78459087 C157.732958,8.57785966 147.112313,10.7058136 140.271366,16.1684526 C133.928819,21.2331087 127.892945,33.0762529 120.630277,49.7974328 C120.249807,50.6734047 119.420685,51.7066094 118.14291,52.8970468 C120.665283,53.1540701 122.707946,53.1540701 124.270899,52.8970468 C135.318309,51.0803304 142.26285,42.4918635 144.453765,43.3322949 Z" id="Path-146" fill="url(#linearGradient-3)"></path>
                    <path d="M194.868515,43.3322949 L194.868515,34.5985388 C206.95119,37.6795822 214.912209,40.5908342 218.751571,43.3322949 C224.510614,47.4444858 224.510614,54.9934629 229.376656,59.2387537 C234.242698,63.4840445 254.139172,57.5879564 263.003379,64.1113371 C271.867585,70.6347178 285.423803,101.196692 299.863739,101.196692 C322.961252,101.196692 324.061982,120.036452 309.384653,126.891308 C294.707324,133.746165 280.103343,120.676698 273.269456,109.648114 C265.075332,96.4243683 265.075332,92.2825843 253.200901,84.9740753 C241.32647,77.6655663 229.376656,81.6951249 219.666491,72.562012 C215.973387,69.0883808 215.815766,60.8145074 211.052958,51.6209042 C208.78873,47.2502857 203.393916,44.4874159 194.868515,43.3322949 Z" id="Path-147" fill="url(#linearGradient-4)"></path>
                    <path d="M212.891728,84.8026255 C232.549856,96.5387605 250.440506,116.492099 266.563677,144.662641 C282.686848,172.833182 292.837964,205.148349 297.017024,241.608142 C278.092661,240.346224 263.191931,237.300682 252.314832,232.471516 C241.437734,227.64235 228.296699,218.238033 212.891728,204.258566 C211.724286,188.997274 206.861158,179.622978 198.302343,176.135678 C189.743529,172.648378 184.920834,167.300519 183.834258,160.092102 L180.151891,163.920997 C171.903643,160.222548 166.133271,156.944571 162.840775,154.087067 C159.548279,151.229563 155.533782,146.015411 150.797284,138.444609 L153.71437,133.089958 L146.449854,109.76139 C158.645604,101.791989 166.867652,96.7343507 171.115995,94.5884746 C175.364339,92.4425984 179.009157,91.3696603 182.050449,91.3696603 L183.834258,94.5884746 C190.023285,90.739971 194.84598,88.2947828 198.302343,87.25291 C201.758706,86.2110372 206.621835,85.3942757 212.891728,84.8026255 Z" id="Path-150" fill="url(#linearGradient-5)"></path>
                    <g id="Path-162">
                        <use fill="url(#linearGradient-6)" xlink:href="#path-8"></use>
                        <use fill="url(#linearGradient-7)" xlink:href="#path-8"></use>
                    </g>
                    <path d="M288.746386,241.608142 C292.351967,260.031173 290.472773,273.278065 283.108806,281.348815 C275.744839,289.419566 265.099329,291.618764 251.172274,287.946411 L121.902956,241.608142 L132.375668,236.295228 C115.557613,201.15559 115.557613,179.546615 132.375668,171.468301 C149.193724,163.389988 176.032411,174.320076 212.891728,204.258566 C228.605998,217.716343 241.366179,226.859411 251.172274,231.687769 C260.978368,236.516127 273.503072,239.822918 288.746386,241.608142 Z" id="Path-151" fill="url(#linearGradient-9)"></path>
                    <path d="M97.2630241,63.7414184 C98.8291546,58.1648356 100.357687,55.5612748 101.848621,55.9307358 C103.339555,56.3001969 104.483265,59.5659529 105.27975,65.7280038 L97.2630241,63.7414184 Z" id="Path-160" fill="url(#linearGradient-10)"></path>
                    <path d="M149.940941,200.312285 C204.425168,249.624935 239.039093,275.459186 253.782718,277.815037 C265.49019,279.685749 276.906425,276.583926 284.718289,260.263575 C286.06888,257.441955 287.411579,251.223477 288.746386,241.608142 C291.992063,260.388853 290.11287,273.635744 283.108806,281.348815 C276.104743,289.061886 266.32938,291.835302 253.782718,289.669062 L170.774086,258.802782 C167.536715,247.206848 164.586817,237.366335 161.924391,229.281241 C159.261965,221.196148 155.267482,211.539829 149.940941,200.312285 Z" id="Path-152" fill="#FF4242"></path>
                    <path d="M183.834258,160.092102 L194.868515,144.66747 C196.173889,152.183546 197.839154,157.325091 199.864309,160.092102 C206.447632,169.087033 212.891728,165.169948 218.751571,180.424225 C222.084434,189.100296 223.07839,199.438074 221.733439,211.437559 L212.891728,204.258566 C210.207103,188.7099 206.645462,180.153083 202.206805,178.588116 C198.289636,177.207013 191.398562,173.015128 188.683696,170.591257 C186.419551,168.569796 184.803072,165.070078 183.834258,160.092102 Z" id="Path-153" fill="#00C0FF"></path>
                    <path d="M153.71437,133.089958 L184.85656,94.079673 L182.050449,91.3696603 C180.09109,90.7618463 176.446272,91.8347844 171.115995,94.5884746 C165.785718,97.3421648 157.563671,102.399803 146.449854,109.76139 L153.71437,133.089958 Z" id="Path-154" fill="url(#linearGradient-11)"></path>
                    <path d="M77.2648968,92.2825843 C72.3236904,83.5869835 70.1083058,78.2635291 70.618743,76.3122211 C71.1291802,74.3609131 74.4182304,74.882701 80.4858935,77.8775849 L77.2648968,92.2825843 Z" id="Path-159" fill="url(#linearGradient-12)"></path>
                    <path d="M122.559784,100.981913 C126.130619,106.407208 129.090656,109.119855 131.439895,109.119855 C142.779707,109.119855 147.600257,116.597798 145.590478,119.109791 C143.652511,121.532027 141.250822,121.292037 132.375668,119.109791 C130.621522,118.678477 126.970267,117.978728 121.421903,117.010544 C121.765447,113.545325 122.000942,110.915095 122.128387,109.119855 C122.255832,107.324615 122.399631,104.611968 122.559784,100.981913 Z" id="Path-161" fill="url(#linearGradient-13)"></path>
                    <path d="M85.1226066,264.670232 C79.0205908,264.670232 70.0683903,242.450227 63.4808958,224.25717 C60.2161277,215.240675 51.6214533,212.9086 51.6214533,190.73737 C51.6214533,175.95655 54.9842247,160.599917 61.7097675,144.66747 C63.6286147,139.130362 64.898259,135.596664 65.5187004,134.066377 C66.6321568,131.320094 66.606112,133.587883 67.9432405,128.470333 C70.3979833,119.075373 73.1381043,106.034847 76.1636035,89.3487562 C78.6286372,74.0714829 84.3409483,65.1378548 93.3005367,62.5478718 C106.739919,58.6628974 114.916597,69.6358769 119.762126,83.4517863 C124.607656,97.2676957 122.566097,112.619143 118.14291,133.089958 C117.410786,136.478276 113.515741,142.221169 115.249009,143.305673 C116.70294,144.215395 124.273634,152.474643 119.762126,157.428582 C117.299018,160.133242 115.6865,159.039164 114.182102,157.926464 C112.930997,157.001107 111.596877,156.246913 111.364611,155.957995 C110.853055,155.321665 109.325612,160.822609 108.873931,161.800842 C107.576931,164.609826 103.954595,172.982363 98.006921,186.918453 C101.585599,191.972256 103.522716,198.863238 103.818272,207.591399 C104.261607,220.683639 100.209514,223.485329 99.5834827,233.476345 C98.9574515,243.467361 106.663365,253.567441 101.71751,255.499277 C98.420274,256.787167 93.7080223,248.761702 87.5807555,231.422879 C84.4916952,237.656731 83.0143191,242.298077 83.1486272,245.346918 C83.7845147,259.781785 92.4628751,264.670232 85.1226066,264.670232 Z" id="Path-156" fill="url(#linearGradient-14)"></path>
                    <path d="M91.3917767,138.077862 C95.6241846,143.054014 99.2758722,146.817254 102.34684,149.367584 C105.417807,151.917914 108.423731,154.114717 111.364611,155.957995 C105.861897,169.057973 101.455822,178.860974 98.1463863,185.366999 C94.8369507,191.873023 89.7328552,198.704516 82.8340997,205.861476 C79.4832756,198.070746 78.3162636,189.444814 79.3330636,179.983678 C80.0857672,172.97991 84.0000233,163.551919 88.1127656,151.540164 C89.0747733,148.730505 90.167777,144.243071 91.3917767,138.077862 Z" id="Path-157" fill="#FFFFFF"></path>
                    <path d="M115.249009,143.305673 C117.378407,137.246452 119.071621,130.823008 120.328649,124.035342 C121.585678,117.247676 122.32939,109.692153 122.559784,101.368772 C111.439601,99.6390617 104.739005,103.996324 102.457997,114.440558 C100.176988,124.884793 104.440659,134.506497 115.249009,143.305673 Z" id="Path-158" fill="#FFFFFF"></path>
                    <path d="M82.8340997,205.861476 C86.0876129,211.244719 88.0220043,215.592997 88.6372738,218.906309 C89.2525433,222.219621 88.9003705,226.391811 87.5807555,231.422879 C94.3172721,249.486316 99.3317418,257.434476 102.624164,255.267361 C106.329221,252.828644 99.8285438,243.997968 99.9558462,234.830726 C100.107499,223.909981 103.964365,212.325948 103.603632,205.861476 C103.16127,197.934164 101.295699,191.619823 98.006921,186.918453 L82.8340997,205.861476 Z" id="Path-163" fill="url(#linearGradient-15)"></path>
                    <path d="M107.863533,78.9533584 C107.771436,80.5128313 107.396898,81.4734184 106.739919,81.8351196 C106.08294,82.1968209 104.863457,82.1082117 103.081469,81.5692921 C102.332865,83.3007699 101.369144,84.3784499 100.190306,84.8023322 C99.0114677,85.2262144 97.3384661,84.8654533 95.171301,83.720049" id="Path-164" stroke="#545454" stroke-width="1.62224988" stroke-linecap="round"></path>
                    <path d="M76.9330961,116.856482 C80.5090006,119.496537 84.1698713,125.511223 84.1698713,128.470333 C84.1698713,130.443073 83.3321514,131.259562 81.6567115,130.919799 C81.7821882,131.906501 81.7821882,132.612352 81.6567115,133.03735 C81.5312349,133.462349 81.183023,133.935918 80.6120757,134.458057 C80.8293376,135.391361 80.8293376,136.151246 80.6120757,136.737713 C80.3948137,137.32418 79.8501188,138.034618 78.9779911,138.869028 C79.5543992,139.15799 78.6108548,139.689352 76.1473578,140.463116 C72.4521124,141.623761 62.8515516,137.627215 62.382368,136.273719 C61.1275778,132.653914 61.5960931,131.252084 61.7690146,129.3634 C61.9419361,127.474716 62.2477879,128.119373 63.1094392,125.511223 C63.9710905,122.903073 63.0441558,121.654437 64.0164326,119.849763 C64.7063927,118.569107 64.8311092,117.919684 65.9371683,117.742958 C66.3897437,117.670646 66.4460004,115.399622 67.4100124,114.569226 C68.3740245,113.738831 73.5379966,114.349914 76.9330961,116.856482 Z" id="Path-165" fill="url(#linearGradient-16)"></path>
                    <path d="M116.027514,139.934007 C126.216992,138.938483 133.796543,137.792964 138.766167,136.497452 C143.73579,135.201939 148.486826,133.307536 153.019275,130.814243 L146.449854,110.709042 L143.570877,112.147382 C136.844794,114.697401 131.905715,116.318455 128.753638,117.010544 C125.601561,117.702633 123.157649,117.702633 121.421903,117.010544 C119.903188,124.894544 118.81019,130.254349 118.14291,133.089958 C117.475629,135.925567 116.770497,138.206917 116.027514,139.934007 Z" id="Path-169" fill="url(#linearGradient-17)"></path>
                    <ellipse id="Oval" fill="#545454" cx="94.3074868" cy="79.1406752" rx="2.16216216" ry="2.15555556"></ellipse>
                    <ellipse id="Oval" fill="#545454" cx="104.577757" cy="73.7517863" rx="2.16216216" ry="2.15555556"></ellipse>
                    <ellipse id="Oval" fill="#545454" cx="101.875054" cy="79.6795641" rx="2.16216216" ry="2.15555556"></ellipse>
                    <path d="M144.037217,80.0141886 C144.037217,80.0141886 146.256217,79.3122437 147.178075,78.2711266 C147.792648,77.5770484 148.220635,76.7089805 148.462037,75.6669226" id="Path-167" stroke="#DF8989" stroke-width="1.5" stroke-linecap="round"></path>
                    <path d="M153.712712,144.66747 C145.376467,155.164229 138.026907,160.587233 131.664034,160.936482 C112.619282,161.98182 86.2081531,152.201437 72.6666144,154.087067 C50.52907,157.169672 48.5945043,167.56917 50.363818,169.909692 C52.1331318,172.250214 71.9757083,165.758881 82.354974,167.974844 C108.394541,173.534267 115.600635,183.99605 136.901774,182.400115 C150.034539,181.416175 162.022512,174.26163 172.865694,160.936482 C168.338126,158.20132 164.996487,155.918182 162.840775,154.087067 C160.685063,152.255953 157.642376,149.116087 153.712712,144.66747 Z" id="Path-155" fill="url(#linearGradient-18)"></path>
                    <path d="M134.523394,54.9081714 C135.5603,53.1716172 136.62686,52.1023691 137.723075,51.7004272 C138.819291,51.2984852 140.668888,51.2984852 143.271868,51.7004272" id="Path-168" stroke="#DF8989" stroke-width="1.08149992" stroke-linecap="round"></path>
                    <ellipse id="Oval" fill="#8D688C" cx="141.875054" cy="58.6628974" rx="2.16216216" ry="2.15555556"></ellipse>
                </g>
            </g>
        </g>
    </g>
</svg>