<?xml version="1.0" encoding="UTF-8"?>
<svg width="168px" height="273px" viewBox="0 0 168 273" version="1.1" xmlns="http://www.w3.org/2000/svg" xmlns:xlink="http://www.w3.org/1999/xlink">
    <!-- Generator: Sketch 55 (78076) - https://sketchapp.com -->
    <title>Group@1x</title>
    <desc>Created with Sketch.</desc>
    <defs>
        <linearGradient x1="50%" y1="-252.578638%" x2="50%" y2="255.476933%" id="linearGradient-1">
            <stop stop-color="#FFFFBC" offset="0%"></stop>
            <stop stop-color="#FFAFAF" offset="100%"></stop>
        </linearGradient>
        <linearGradient x1="105.277053%" y1="92.7774027%" x2="50.0653651%" y2="-42.901661%" id="linearGradient-2">
            <stop stop-color="#32A0FF" offset="0%"></stop>
            <stop stop-color="#24ADFF" offset="36.3322895%"></stop>
            <stop stop-color="#00E1FF" offset="100%"></stop>
        </linearGradient>
        <linearGradient x1="50%" y1="-252.578638%" x2="42.9732555%" y2="221.154182%" id="linearGradient-3">
            <stop stop-color="#FFFFBC" offset="0%"></stop>
            <stop stop-color="#FFAFAF" offset="100%"></stop>
        </linearGradient>
        <linearGradient x1="50%" y1="0%" x2="56.5909496%" y2="130.40805%" id="linearGradient-4">
            <stop stop-color="#FF8F8F" offset="0%"></stop>
            <stop stop-color="#FF5656" offset="100%"></stop>
        </linearGradient>
        <linearGradient x1="50%" y1="0%" x2="50%" y2="100%" id="linearGradient-5">
            <stop stop-color="#FF9D9D" offset="0%"></stop>
            <stop stop-color="#FF6363" offset="100%"></stop>
        </linearGradient>
        <linearGradient x1="29.9686731%" y1="81.9377507%" x2="0%" y2="-108.32742%" id="linearGradient-6">
            <stop stop-color="#FF934D" offset="0%"></stop>
            <stop stop-color="#FFF300" offset="100%"></stop>
        </linearGradient>
        <linearGradient x1="75.08479%" y1="144.991312%" x2="-43.4892212%" y2="-67.7639898%" id="linearGradient-7">
            <stop stop-color="#FF0000" offset="0%"></stop>
            <stop stop-color="#FF8500" offset="32.0155954%"></stop>
            <stop stop-color="#FFA600" offset="63.1390371%"></stop>
            <stop stop-color="#FFF300" offset="100%"></stop>
        </linearGradient>
        <linearGradient x1="97.3730705%" y1="-11.6836555%" x2="47.4518458%" y2="35.6521255%" id="linearGradient-8">
            <stop stop-color="#FF6500" offset="0%"></stop>
            <stop stop-color="#FFF300" stop-opacity="0" offset="100%"></stop>
        </linearGradient>
        <path d="M108.801444,149.95912 C76.5807069,137.852267 54.5958661,140.712615 42.8469214,158.540165 C31.0979767,176.367715 29.8588855,191.570409 39.1296477,204.148246 C41.2379212,205.449159 43.3774339,205.449159 45.5481858,204.148246 C49.6230468,201.706215 49.8965748,193.306626 62.7589826,192.008875 C65.0004966,191.782718 69.8972272,192.86462 77.4491745,195.254581 C81.3385695,182.250267 85.158105,174.411847 88.907781,171.739318 C92.657457,169.06679 99.288678,169.761835 108.801444,173.824453 C103.708886,172.949495 100.124294,172.949495 98.0476685,173.824453 C94.0694409,175.500625 90.4981774,180.808062 88.907781,183.213567 C86.0721097,187.502576 84.7302222,196.301205 84.8821186,209.609454 C85.7826443,213.730331 86.6380225,216.693495 87.4482533,218.498946 C88.2584841,220.304398 89.223997,221.398758 90.3447921,221.782027 C96.7468647,218.534632 101.468022,215.13523 104.508265,211.583821 C107.548508,208.032412 111.055769,201.819925 115.030048,192.946358 C115.115231,190.988591 116.14718,189.530278 118.125895,188.57142 C120.104611,187.612561 123.037853,187.149396 126.925623,187.181925 C126.28975,207.646758 117.235917,222.055439 99.7641231,230.407967 C73.5564328,242.936758 53.0433027,234.264543 42.8469214,227.014803 C32.6505401,219.765064 15.6232228,192.946358 36.6501802,158.540165 C49.350161,137.759318 75.3390751,133.334573 104.508265,145.88439 C106.526364,146.752662 107.957424,148.110905 108.801444,149.95912 Z" id="path-9"></path>
    </defs>
    <g id="Page-2" stroke="none" stroke-width="1" fill="none" fill-rule="evenodd">
        <g id="Nail-Trim-Card-Copy-2" transform="translate(-155.000000, -7.000000)">
            <g id="Screen-Shot-2019-02-19-at-10.02.40-PM" transform="translate(0.000000, 0.500000)">
                <g id="Group" transform="translate(155.000000, 6.500000)">
                    <path d="M43.6752075,35.9721734 C46.9842855,52.1191356 49.9808142,63.0470507 52.6647938,68.7559188 C55.3487733,74.4647868 59.4900713,78.7164686 65.0886879,81.5109642 C65.1735232,83.917513 65.1735232,86.0340947 65.0886879,87.8607092 C65.0289038,89.14794 64.5340291,90.6130956 64.4827157,92.1690827 C64.3221795,97.0370501 62.7145479,104.710998 59.6598209,115.190928 C60.4234677,119.114709 63.2330754,121.20096 68.0886438,121.44968 C72.9442123,121.6984 80.540709,120.145188 90.8781339,116.790044 L100.53047,90.4842681 L98.0136839,84.6750295 C95.7149555,83.9688538 94.3136364,79.8315313 93.8097266,72.2630619 C93.3058168,64.6945926 93.5798709,54.1508007 94.631889,40.6316863 L71.7603743,20.5742585 L43.6752075,35.9721734 Z" id="Path-105" fill="url(#linearGradient-1)"></path>
                    <path d="M93.7647074,68.7559188 C95.8918616,61.0170205 97.3444153,55.5106148 98.1223686,52.2367016 C102.360995,34.3990022 103.202704,24.8791435 102.249206,21.5395846 C100.4252,15.1511329 95.3214882,14.6700446 90.6962632,14.6700446 C86.0710382,14.6700446 93.284523,4.63442665 85.7296726,1.66208972 C78.1748221,-1.31024722 69.4154621,6.44173111 62.9453418,3.38645367 C56.4752215,0.331176227 51.1370515,-2.3884124 43.6752075,3.38645367 C36.2133635,9.16131974 24.6974253,24.3487831 35.876423,34.546943 C47.0554208,44.7451029 65.3993364,24.3702329 73.7883305,27.4151884 C82.1773246,30.460144 75.3961423,46.2128449 80.5629074,48.4144578 C85.7296726,50.6160707 86.5440383,43.4418436 89.1710159,43.4418436 C91.7979934,43.4418436 93.7647074,44.8779684 93.7647074,49.716089 C93.7647074,52.4959608 93.2824427,58.5163398 93.2824427,65.9331334 C93.2824427,66.7256141 93.4431976,67.6665425 93.7647074,68.7559188 Z" id="Path-104" fill="url(#linearGradient-2)"></path>
                    <path d="M93.9872877,48.5706234 C93.8800242,55.6101091 91.7772101,62.5482389 87.6788453,69.3850129 C83.5804806,76.2217869 76.0504281,80.2637707 65.0886879,81.5109642 L65.2601673,84.3143507 C67.4903215,86.3212941 70.53582,86.9108088 74.396663,86.0828948 C76.7900875,85.5696521 81.6499766,84.7607804 85.9826426,81.5109642 C87.7535596,80.1826469 90.2754645,77.318284 93.5483571,72.9178753 C93.5483571,70.512392 93.5483571,69.0127682 93.5483571,68.419004 C93.5483571,67.8252398 93.6946673,61.2091129 93.9872877,48.5706234 Z" id="Path-106" fill="url(#linearGradient-3)"></path>
                    <path d="M65.0886879,89.2909136 C31.4510812,97.1301012 10.5222887,119.795113 2.30231064,157.28595 C-5.91766745,194.776786 7.87329817,227.503918 43.6752075,255.467346 L43.6752075,267.235369 C48.2617484,270.426153 57.7376254,272.021545 72.1028385,272.021545 C82.9524582,272.021545 96.6064174,269.055499 117.252764,267.235369 C121.712776,266.842186 129.615106,266.842186 140.959753,267.235369 C139.448379,260.604638 138.228834,255.908882 137.301118,253.1481 C136.373402,250.387318 135.169733,247.685617 133.690112,245.042997 C159.153036,227.957386 170.05103,201.415093 166.384092,165.416118 C162.717155,129.417144 142.091879,104.553725 104.508265,90.8258614 L97.4374245,84.9352862 C88.0738588,103.147785 79.6289968,112.711746 72.1028385,113.627169 C64.5766802,114.542592 62.23863,106.430507 65.0886879,89.2909136 Z" id="Path-107" fill="url(#linearGradient-4)"></path>
                    <path d="M97.4374245,84.9352862 L104.508265,90.8258614 C92.3608498,114.016043 80.5321907,123.758583 69.0222884,120.053481 C57.5123861,116.348378 54.0121959,106.605839 58.5217178,90.8258614 L65.0886879,89.2909136 C62.1463959,106.349672 64.4844461,114.461757 72.1028385,113.627169 C79.7212309,112.792581 88.1660929,103.22862 97.4374245,84.9352862 Z" id="Path-108" fill="url(#linearGradient-5)"></path>
                    <path d="M122.939745,144.013863 C132.925557,166.538615 137.918463,186.064225 137.918463,202.590695 C137.918463,219.117165 132.463099,234.754779 121.552369,249.503536 L133.690112,245.042997 C136.122032,249.761716 137.861328,253.718686 138.907999,256.913907 C139.95467,260.109128 140.638588,263.549616 140.959753,267.235369 C127.476815,266.755233 117.821347,266.755233 111.993347,267.235369 C95.3343507,268.60781 82.0033328,272.021545 72.1028385,272.021545 C57.0069459,272.021545 47.5310689,270.426153 43.6752075,267.235369 L43.6752075,255.467346 C57.2924346,258.33192 67.8033812,259.35581 75.2080472,258.539015 C82.6127132,257.722221 90.1234452,254.710394 97.7402431,249.503536 C105.73477,244.01929 110.905092,239.366085 113.25121,235.543919 C115.597329,231.721753 117.410756,224.997422 118.691491,215.370927 C123.300708,208.661908 126.080615,199.966056 127.031214,189.283371 C127.981813,178.600687 126.61799,163.51085 122.939745,144.013863 Z" id="Path-109" fill="#FF5656"></path>
                    <path d="M39.7101754,139.106803 C24.98886,170.682819 23.7609579,196.234428 36.0264689,215.76163 C48.2919799,235.288833 67.6598887,240.995434 94.1301952,232.881433 L96.2493756,237.38285 C89.8975814,241.701971 85.1038442,244.258499 81.8681638,245.052434 C57.3081766,251.078687 38.0139328,241.069824 25.7893453,220.050999 C11.1489469,194.878456 15.7892236,167.897057 39.7101754,139.106803 Z" id="Path-110" fill="#FF5656"></path>
                    <path d="M126.925623,183.409315 C126.925623,203.261232 118.11379,222.451677 98.5431074,231.007653 C94.4119991,232.813704 87.8449429,234.099411 78.8419389,234.864774 C76.6482815,235.741071 71.1681072,235.741071 62.401416,234.864774 C49.2513792,233.550329 22.2050916,215.680794 29.0956632,178.478415 C35.9862349,141.276037 61.4875023,140.591086 71.8739674,139.106803 C82.2604325,137.622521 126.925623,144.013863 126.925623,183.409315 Z" id="Path-111" fill="url(#linearGradient-6)"></path>
                    <g id="Path-112">
                        <use fill="url(#linearGradient-7)" xlink:href="#path-9"></use>
                        <use fill="url(#linearGradient-8)" xlink:href="#path-9"></use>
                    </g>
                    <path d="M85.0122452,209.866071 C81.3507925,213.120365 78.8326506,215.173806 77.4578195,216.026394 C71.1521726,219.936779 68.5077338,220.677948 69.5436582,222.791714 C71.5735272,226.933589 78.5072385,226.597026 90.3447921,221.782027 C89.0424442,220.994201 88.0769313,219.899841 87.4482533,218.498946 C86.8195753,217.098052 86.0075726,214.220427 85.0122452,209.866071 Z" id="Path-113" fill="#FFFFFF"></path>
                    <path d="M46.4995425,203.261232 C45.14773,206.458056 44.4070471,208.585583 44.2774939,209.643813 C44.1479407,210.702044 43.9471785,212.829571 43.6752075,216.026394 C37.8574859,212.669215 35.2060164,209.702393 35.7207989,207.125929 C36.2355814,204.549464 39.828496,203.261232 46.4995425,203.261232 Z" id="Path-114" fill="#FFFFFF"></path>
                    <path d="M62.7589826,192.008875 C64.7560156,191.788361 66.3986879,191.788361 67.6869997,192.008875 C68.9753115,192.229389 71.0224259,192.860952 73.828343,193.903565 C71.8105371,187.20817 69.9846566,183.716658 68.3507015,183.429028 C66.7167464,183.141399 64.8528401,186.001348 62.7589826,192.008875 Z" id="Path-115" fill="#FFFFFF"></path>
                    <path d="M48.2795423,228.036256 C47.879862,225.007675 49.4266283,217.755077 56.2905374,219.55774 C58.249337,220.072178 63.2943435,220.702969 63.9266401,221.989897 C65.5099997,225.212545 62.0483564,231.41204 60.1700133,232.760349 C57.5415753,234.647089 48.6792225,231.064837 48.2795423,228.036256 Z" id="Path-116" fill="#FFFFFF"></path>
                    <path d="M75.0691162,210.798976 C75.1862882,212.636331 74.7726972,213.848228 73.828343,214.434668 C72.8839889,215.021107 71.0390955,215.021107 68.2936628,214.434668 C67.4058741,217.125167 66.4938526,218.837976 65.5575984,219.573094 C64.6213441,220.308212 63.2016862,220.208451 61.2986245,219.273811" id="Path-117" stroke="#474747" stroke-width="2" stroke-linecap="round"></path>
                    <ellipse id="Oval" fill="#474747" cx="60.3185786" cy="209.866071" rx="2.21052632" ry="2.2016129"></ellipse>
                    <ellipse id="Oval" fill="#474747" cx="67.6869997" cy="205.462845" rx="2.21052632" ry="2.2016129"></ellipse>
                    <ellipse id="Oval" fill="#474747" cx="66.9501576" cy="212.067684" rx="2.21052632" ry="2.2016129"></ellipse>
                    <g id="Face" transform="translate(44.922979, 35.626948)">
                        <ellipse id="Oval" fill="#8D688C" cx="23.500863" cy="9.11815457" rx="2.21052632" ry="2.2016129"></ellipse>
                        <ellipse id="Oval" fill="#8D688C" cx="4.34296828" cy="12.7875094" rx="2.21052632" ry="2.2016129"></ellipse>
                        <path d="M13.2698781,10.5858965 C13.8968073,13.3112774 14.1559705,15.372597 14.0473677,16.7698553 C13.8786334,18.9407523 11.9706374,22.3313211 12.3176204,23.3087723 C12.9524589,25.097112 14.180266,25.9912819 16.0010419,25.9912819" id="Path-118" stroke="#DF8989" stroke-width="1.47000003" stroke-linecap="round"></path>
                        <path d="M12.1945706,33.7869086 C15.532476,34.3076123 17.951719,34.3076123 19.4522996,33.7869086 C20.9528801,33.2662049 22.7521654,31.8023692 24.8501554,29.3954016" id="Path-119" stroke="#FFFFFF" stroke-width="4" stroke-linecap="round"></path>
                        <path d="M18.022363,3.07362866 C19.0349947,1.02454289 20.6155474,7.77156117e-15 22.7640209,7.77156117e-15 C24.9124944,7.77156117e-15 26.6869148,0.867989867 28.0872821,2.6039696" id="Path-120" stroke="#777777" stroke-width="1.47000003" stroke-linecap="round"></path>
                        <path d="M7.64078457,4.67411729 C6.17804323,3.66669948 4.86233926,3.13320327 3.69367266,3.07362866 C2.52500606,3.01405405 1.29378184,3.54755026 -6.52811138e-14,4.67411729" id="Path-121" stroke="#777777" stroke-width="1.47000003" stroke-linecap="round"></path>
                    </g>
                </g>
            </g>
        </g>
    </g>
</svg>