<?xml version="1.0" encoding="UTF-8"?>
<svg width="251px" height="259px" viewBox="0 0 251 259" version="1.1" xmlns="http://www.w3.org/2000/svg" xmlns:xlink="http://www.w3.org/1999/xlink">
    <!-- Generator: Sketch 55.2 (78181) - https://sketchapp.com -->
    <title>Woman with Cat@1x</title>
    <desc>Created with Sketch.</desc>
    <defs>
        <linearGradient x1="54.3603036%" y1="22.4781396%" x2="41.5020351%" y2="64.2701571%" id="linearGradient-1">
            <stop stop-color="#FFC588" offset="0%"></stop>
            <stop stop-color="#FFF1E4" offset="100%"></stop>
        </linearGradient>
        <linearGradient x1="46.604542%" y1="94.514714%" x2="35.025196%" y2="-10.1796691%" id="linearGradient-2">
            <stop stop-color="#FF7777" offset="0%"></stop>
            <stop stop-color="#FF4242" offset="100%"></stop>
        </linearGradient>
        <linearGradient x1="50%" y1="0%" x2="50%" y2="100%" id="linearGradient-3">
            <stop stop-color="#FB6767" offset="0%"></stop>
            <stop stop-color="#F53636" offset="100%"></stop>
        </linearGradient>
        <linearGradient x1="86.5554295%" y1="-31.3701977%" x2="56.4710627%" y2="87.4911068%" id="linearGradient-4">
            <stop stop-color="#8B572A" offset="0%"></stop>
            <stop stop-color="#FFBE8B" offset="100%"></stop>
        </linearGradient>
        <linearGradient x1="82.043294%" y1="31.203158%" x2="32.92222%" y2="50%" id="linearGradient-5">
            <stop stop-color="#FFC588" offset="0%"></stop>
            <stop stop-color="#FFF1E4" offset="100%"></stop>
        </linearGradient>
        <linearGradient x1="51.081413%" y1="92.69195%" x2="44.2694315%" y2="44.876721%" id="linearGradient-6">
            <stop stop-color="#409BFF" offset="0%"></stop>
            <stop stop-color="#5EB9FF" offset="100%"></stop>
        </linearGradient>
        <linearGradient x1="50%" y1="0%" x2="50.7143852%" y2="74.3612348%" id="linearGradient-7">
            <stop stop-color="#6BC6FF" offset="0%"></stop>
            <stop stop-color="#3A94FF" offset="100%"></stop>
        </linearGradient>
        <linearGradient x1="50%" y1="0%" x2="50%" y2="100%" id="linearGradient-8">
            <stop stop-color="#FF7777" offset="0%"></stop>
            <stop stop-color="#FF4242" offset="100%"></stop>
        </linearGradient>
        <linearGradient x1="142.561284%" y1="23.0577318%" x2="17.8270924%" y2="50%" id="linearGradient-9">
            <stop stop-color="#FFC588" offset="0%"></stop>
            <stop stop-color="#FFF1E4" offset="100%"></stop>
        </linearGradient>
        <linearGradient x1="20.4084246%" y1="22.3925716%" x2="50%" y2="97.6079145%" id="linearGradient-10">
            <stop stop-color="#6BC6FF" offset="0%"></stop>
            <stop stop-color="#3A94FF" offset="100%"></stop>
        </linearGradient>
        <linearGradient x1="-20.3348197%" y1="64.4586782%" x2="54.5054211%" y2="100%" id="linearGradient-11">
            <stop stop-color="#DCC3C3" offset="0%"></stop>
            <stop stop-color="#FFD2D2" offset="100%"></stop>
        </linearGradient>
        <linearGradient x1="-104.454041%" y1="27.9579192%" x2="100%" y2="27.9579192%" id="linearGradient-12">
            <stop stop-color="#FFE3E3" offset="0%"></stop>
            <stop stop-color="#FFD2D2" offset="100%"></stop>
        </linearGradient>
        <linearGradient x1="50%" y1="0%" x2="50%" y2="100%" id="linearGradient-13">
            <stop stop-color="#FFAAAA" offset="0%"></stop>
            <stop stop-color="#FF7272" offset="100%"></stop>
        </linearGradient>
        <linearGradient x1="99.8557306%" y1="31.203158%" x2="23.4289115%" y2="50%" id="linearGradient-14">
            <stop stop-color="#FFC588" offset="0%"></stop>
            <stop stop-color="#FFF1E4" offset="100%"></stop>
        </linearGradient>
        <linearGradient x1="126.537813%" y1="12.2807663%" x2="0%" y2="87.7192337%" id="linearGradient-15">
            <stop stop-color="#000000" offset="0%"></stop>
            <stop stop-color="#FFBE8B" offset="100%"></stop>
        </linearGradient>
        <linearGradient x1="74.5969753%" y1="-31.3701977%" x2="50%" y2="252.386759%" id="linearGradient-16">
            <stop stop-color="#483E36" offset="0%"></stop>
            <stop stop-color="#FFBE8B" offset="100%"></stop>
        </linearGradient>
        <linearGradient x1="50%" y1="0%" x2="50%" y2="100%" id="linearGradient-17">
            <stop stop-color="#AD9276" offset="0%"></stop>
            <stop stop-color="#755941" offset="100%"></stop>
        </linearGradient>
        <linearGradient x1="121.124085%" y1="-33.9277581%" x2="50%" y2="100%" id="linearGradient-18">
            <stop stop-color="#A98D70" offset="0%"></stop>
            <stop stop-color="#70543D" offset="100%"></stop>
        </linearGradient>
        <linearGradient x1="96.4932146%" y1="-33.9277581%" x2="50%" y2="100%" id="linearGradient-19">
            <stop stop-color="#A98D70" offset="0%"></stop>
            <stop stop-color="#70543D" offset="100%"></stop>
        </linearGradient>
        <linearGradient x1="50%" y1="0%" x2="50%" y2="100%" id="linearGradient-20">
            <stop stop-color="#FF9090" offset="0%"></stop>
            <stop stop-color="#FF5757" offset="100%"></stop>
        </linearGradient>
        <linearGradient x1="15.3324736%" y1="14.6795939%" x2="37.6366471%" y2="75.9206945%" id="linearGradient-21">
            <stop stop-color="#FFE3E3" offset="0%"></stop>
            <stop stop-color="#FFD2D2" offset="100%"></stop>
        </linearGradient>
        <linearGradient x1="-28.1891222%" y1="40.5950056%" x2="22.1156999%" y2="56.902072%" id="linearGradient-22">
            <stop stop-color="#FBD1D1" offset="0%"></stop>
            <stop stop-color="#FFD2D2" offset="100%"></stop>
        </linearGradient>
    </defs>
    <g id="Page-1" stroke="none" stroke-width="1" fill="none" fill-rule="evenodd">
        <g id="Woman-with-Cat@1x" transform="translate(0.000000, -1.000000)">
            <g id="Woman-with-Cat" transform="translate(132.000000, 137.000000) scale(-1, 1) translate(-132.000000, -137.000000) translate(0.000000, 0.500000)">
                <path d="M143.015632,170.651103 C141.936514,171.77532 144.037748,168.548358 143.704703,173.222748 C143.6844,173.507704 141.11387,173.629714 140.467937,178.435826 C139.651989,184.506942 140.737142,195.883969 140.897385,200.381261 C140.292981,202.651866 139.633082,203.787169 138.917688,203.787169 C136.570777,203.787169 132.637218,202.651866 127.117011,200.381261 C127.078093,198.2548 127.487192,196.825309 128.344308,196.092786 C129.201423,195.360264 131.157941,194.768014 134.213859,194.316036 C130.685732,183.76278 124.882706,169.395863 123.679601,164.172497 C122.476497,158.949131 125.213448,160.004457 125.015632,154.381261 L143.015632,170.651103 Z" id="Path-89" fill="url(#linearGradient-1)" fill-rule="nonzero" transform="translate(133.556859, 179.084215) rotate(-345.000000) translate(-133.556859, -179.084215) "></path>
                <path d="M26.405594,197.837901 C42.1148292,225.047094 89.5276052,204.644924 111.4703,201.759886 C117.25548,200.999247 109.00042,193.964804 110.105153,194.62115 C110.618834,194.926339 97.4133502,196.243209 90.9411599,208.539301 C81.5443792,226.391631 80.7385501,249.512273 101.995822,237.719168 C127.894482,216.847255 145.719089,218.935444 139.892349,197.189757 C131.15224,164.571226 97.7454527,164.468889 68.68778,164.766481 C64.2147363,164.812291 62.1815227,164.022492 56.0807269,164.964755 C45.0822347,166.663463 38.8411454,167.14321 28.6848077,172.305469 C22.9460376,175.222369 19.7501802,186.310386 26.405594,197.837901 Z" id="Path-85" fill="url(#linearGradient-2)" fill-rule="nonzero" transform="translate(81.839815, 202.717851) rotate(-345.000000) translate(-81.839815, -202.717851) "></path>
                <path d="M94.5543265,91.8446325 C99.7391596,89.618873 100.836146,83.4007866 104.183781,85.6218811 C106.419476,87.1052241 110.596842,118.748339 119.977384,118.748339 C132.562804,118.748339 147.731173,137.884471 162.055321,150.6136 C171.980969,159.43401 183.749368,161.9664 184.693456,166.179559 C187,176.472917 200.363626,167.328309 203.064284,168.052627 C210.74406,170.112348 221.337948,175.312119 225.855311,175.927149 C232.755527,176.866601 236.133614,172.370583 235.989572,162.439096 L196.34509,75.7423645 L130.708605,55.2972233 L99.4347735,63.3504533 L89.6880873,91.8446325 C89.4756914,93.3284721 91.0977711,93.3284721 94.5543265,91.8446325 Z" id="Path-99" fill="url(#linearGradient-3)" fill-rule="nonzero"></path>
                <g id="Path-88" transform="translate(55.000000, 47.500000)" fill-rule="nonzero">
                    <path d="M27.5065829,11.4014228 C39.2863317,8.26289111 45.6601779,9.70041219 47.4877425,22.9418458 C48.3774025,29.387787 45.2150398,44.9848804 46.7963221,51.9911139 C51.1960948,71.485314 56.1630801,74.1846093 63.4886031,77.300449 C69.5051488,79.8595266 83.0829245,98.6726726 77.8069811,98.9586498 C59.7953796,99.9349507 34.1538657,83.3577377 34.1538657,77.300449 C34.1538657,72.4439109 26.8034355,59.0743917 22.3104933,39.051666 C19.4830672,26.4512865 14.5792685,14.8457057 27.5065829,11.4014228 Z" id="Path-82" fill="#0074FF" transform="translate(49.000000, 54.500000) rotate(-30.000000) translate(-49.000000, -54.500000) "></path>
                    <g id="path-6-link" transform="translate(46.000000, 70.000000)" fill="url(#linearGradient-5)">
                        <path d="M47.8442723,6.55029273 C53.9813618,16.8787341 58.3634265,24.2156452 61.324734,29.8183542 C61.6752738,30.4815653 66.5936651,25.0654095 67.1144216,25.0400624 C73.119402,24.7477774 71.3111157,29.3117329 70.8857473,31.7611133 C70.8333807,32.0626538 64.9026378,37.4958533 64.973549,37.688392 C66.8795407,42.8635614 66.7922096,46.3571657 65.3951717,50.7405858 C63.5711277,56.4638029 58.5554578,60.6038071 58.3238025,70.3515 C58.2615381,72.971489 61.4124845,81.2113462 62.1875661,84.7712618 C62.8838655,87.9693344 60.3955024,90.3013593 58.3259278,90.0487099 C56.6937016,89.8494512 55.4655248,87.4617051 55.27691,86.6229665 C53.0684289,76.8022143 47.3003974,64.2323821 42.6192084,62.9076686 C39.6931706,62.0796397 28.7200403,56.3514252 23.344281,48.5868361 C20.0840008,43.8777821 11.0872242,38.6224067 10.624619,21.9770745 L47.8442723,6.55029273 Z" id="path-6" transform="translate(41.048611, 48.308865) rotate(-345.000000) translate(-41.048611, -48.308865) "></path>
                    </g>
                </g>
                <path d="M65.9032095,63.4855396 C62.6938519,64.8663399 57.8287317,66.7766636 55.2106625,70.8724206 C48.9616659,80.6484691 47.3792361,97.8914144 46,115.673076 C44.963133,129.040778 44.7066648,136.346741 43.0143564,144.599649 C41.9669077,149.707759 32.3898364,159.033319 34.2214241,162.439096 C34.9516656,163.796957 41.3570899,159.403887 46.4516909,161.481888 C84.4889308,176.996633 71.8144293,162.947454 74.1596413,167.327946 C75.5193614,164.611759 81.8242953,153.77446 82.1837808,151.813134 C85.3498354,134.539381 90.5023447,120.377799 90.7082926,109.80185 C90.9039806,99.752771 88.5799702,88.6308397 91.5955338,79.4113278 C92.3366088,77.145632 94.9496887,74.2993296 99.4347735,70.8724206 L83.6633093,52.3454998 C80.9975471,58.3661781 74.192433,61.4519878 65.9032095,63.4855396 Z" id="Path-83" fill="url(#linearGradient-6)" fill-rule="nonzero"></path>
                <path d="M55.2106625,70.8724206 C51.829652,86.1732173 49.3165602,98.5042651 52.6975707,109.590713 C54.9321438,116.917954 57.3131938,120.764513 65.1707543,133.494317 C67.8582776,137.848296 64.9689438,150.026425 68.9610935,163.328074 C72.5304577,166.893762 74.553626,168.075474 75.0305982,166.87321 C79.6635637,155.195281 92.7086699,139.120341 92.1626381,133.494317 C91.4050602,125.68863 99.4347735,126.563282 99.4347735,115.673076 C99.4347735,109.416205 95.66814,104.07945 94.1405824,99.529101 C92.1396923,93.5687719 92.2912456,89.0043473 92.7639763,85.9585174 C93.6555862,80.2138261 96.4728419,75.1851271 101.215743,70.8724206 L83.6633093,52.3454998 C80.6817504,56.2597514 73.2111623,59.9100241 65.8457717,64.0248686 C61.5548545,66.422088 55.3478538,70.5120211 55.2106625,70.8724206 Z" id="Path-84" fill="url(#linearGradient-7)" fill-rule="nonzero"></path>
                <path d="M12.201127,209.661885 C27.9103622,236.871078 61.2797275,217.996284 83.2224219,215.111245 C89.007602,214.350606 94.7959532,205.788789 95.9006858,206.445134 C96.4143668,206.750323 83.2088831,208.067193 76.7366928,220.363285 C67.3399121,238.215616 55.9472201,249.562396 77.2044919,237.769291 C103.103152,216.897378 131.514622,230.759428 125.687882,209.013741 C116.947773,176.39521 83.5409857,176.292873 54.4833129,176.590466 C50.0102692,176.636275 47.9770556,175.846476 41.8762599,176.788739 C30.8777676,178.487447 24.6366784,178.967194 14.4803406,184.129453 C13.0861937,184.83807 11.8421226,186.028924 10.85291,187.591164 C10.5498007,188.069857 9.79650283,186.996172 9.54426533,187.541415 C9.29317449,188.08418 9.54289957,190.245586 9.34817986,190.847991 C7.74910635,195.795048 8.15113469,202.647093 12.201127,209.661885 Z" id="Path-85" fill="url(#linearGradient-8)" fill-rule="nonzero" transform="translate(67.465552, 209.461462) rotate(-321.000000) translate(-67.465552, -209.461462) "></path>
                <path d="M21.4476987,236.382509 C37.1787513,236.63202 67.1654887,223.170452 72.7615021,221.057655 C82.5418919,217.365029 93.621391,217.670837 106,221.975077 C98.8859194,221.913533 92.1978852,223.070888 85.9358974,225.447141 C74.799831,229.672975 69.0520683,234.080456 57.1464341,239.057177 C56.7341867,239.229502 50.5807348,240.81645 44.6378167,242.40885 C38.6948986,244.001251 29.1469944,249.904292 15.7790538,241.076431 C11.2551534,238.088958 10.4120776,236.207473 21.4476987,236.382509 Z" id="Path-86" fill="#FF4242" fill-rule="nonzero" transform="translate(59.317087, 232.159272) rotate(-330.000000) translate(-59.317087, -232.159272) "></path>
                <path d="M84.000998,125.360973 C92.1504942,128.859279 98.4773332,130.226939 102.981513,129.463954 C107.485694,128.700969 110.267529,125.998802 111.327021,121.357453 C115.803043,129.549594 115.336415,136.430792 106.115858,137.420663 C100.191805,138.056639 92.7701252,135.143184 88.8969092,132.273486 C87.4600482,131.208902 85.8280772,128.904732 84.000998,125.360973 Z" id="Path-92" fill="url(#linearGradient-9)" fill-rule="nonzero" transform="translate(99.041875, 129.433179) rotate(-15.000000) translate(-99.041875, -129.433179) "></path>
                <path d="M65.8970253,66.6490382 C83.76325,61.8906308 80.6478577,86.2186031 85.5745432,108.039288 C90.0627639,127.917976 95.1295998,130.67051 102.602387,133.847804 C108.739882,136.457354 115.145155,138.26926 139.624926,138.6136 C141.257043,138.636558 144.347869,136.575818 146.145271,136.575818 C147.171697,139.701117 146.205042,147.011739 149.168459,149.839606 C150.247475,150.869267 146.906574,151.251892 145.609041,151.980761 C141.172082,154.473154 122.59061,155.641556 117.208605,155.933173 C98.8349189,156.92873 72.6779374,140.024561 72.6779374,133.847804 C72.6779374,128.895479 65.1797426,115.26227 60.5964794,94.8446325 C57.712214,81.9957332 52.7098349,70.1612533 65.8970253,66.6490382 Z" id="Path-82" fill="url(#linearGradient-10)" fill-rule="nonzero"></path>
                <path d="M102.602387,64.8161471 L99.4347735,70.8724206 C96.5399705,69.1270773 94.2479969,67.1083195 92.5588528,64.8161471 C90.8697087,62.5239747 88.8521798,59.3510002 86.5062662,55.2972233 C85.4029486,57.2306687 76.757805,58.5469073 84.0996596,53.4457696 C91.4415141,48.344632 90.1207818,37.3680346 94.0398604,24.9241641 C96.9230562,36.4299858 98.9878896,45.0864913 100.234361,50.8936806 C101.480832,56.7008699 102.270174,61.3416921 102.602387,64.8161471 Z" id="Path-81" fill="url(#linearGradient-11)" fill-rule="nonzero"></path>
                <path d="M94.1340043,28.6923873 C92.3073003,40.1756494 92.3073003,48.3371907 94.1340043,53.1770111 C96.8740604,60.4367416 104.973271,71.5538043 113.526031,68.7011548 C119.227871,66.7993885 128.427624,58.0427922 140.400263,36.8310246 L120.422128,18.3272506 C108.795568,18.5174705 101.332789,19.2629611 98.0337899,20.5637225 C94.7347909,21.8644838 93.4348624,24.5740388 94.1340043,28.6923873 Z" id="Path-80" fill="url(#linearGradient-12)" fill-rule="nonzero"></path>
                <path d="M136,41.9624018 C135.484446,40.3529045 134.585389,39.3152324 133.302829,38.8493853 C132.02027,38.3835382 130.062432,38.3835382 127.429315,38.8493853" id="Path-100" stroke="#FF9191" stroke-linecap="round" transform="translate(131.714658, 40.231201) scale(-1, 1) rotate(-60.000000) translate(-131.714658, -40.231201) "></path>
                <path d="M105.928375,28.8961324 C104.413424,28.0607841 101.792557,23.724854 100.117557,23.0058226 C98.4425573,22.2867911 96.7208908,24.7285474 96.7208908,24.7285474 C96.7208908,24.7285474 96.7208908,34.7945808 94.1401635,42.2830787 C92.3342201,47.523386 88.8366959,54.5780022 88.2555736,44.6124001 C88.0062612,40.3369688 86.0326516,25.3582209 88.2555736,18.1316339 C96.7208908,-9.3886077 130.794891,3.26002966 133.389635,4.29185342 C145.649563,9.16712669 158.094601,18.4324253 154.309202,31.6656114 C150.523803,44.8987975 130.435527,38.0036998 125.725102,36.8376532 C122.584818,36.0602888 120.451998,31.4496786 119.326644,23.0058226 C114.584895,26.3757969 111.580652,28.3392335 110.313913,28.8961324 C108.413806,29.7314807 107.443327,29.7314807 105.928375,28.8961324 Z" id="Path-79" fill="url(#linearGradient-13)" fill-rule="nonzero"></path>
                <path d="M148.328773,105.591288 C137.762082,91.5058256 130.003982,83.2343494 121.129507,82.069704 C116.598134,81.4750275 110.324875,83.2111301 106.234697,85.9851672 C99.334673,90.6648954 99.7302062,100.374414 99.4347735,104.820266 C99.0406392,110.75144 115.487184,127.10373 110.429315,131.273555 C109.806569,131.786962 111.492014,128.60974 110.849985,129.91901 C107.400811,136.952801 97.7741472,146.751504 96.9438607,148.5 C94.6337331,153.364887 100.190066,153.980676 106.575312,151.280159 C107.633703,150.832533 112.014432,143.203841 115.577122,139.452961 C116.419198,138.566405 124.956306,140.440931 133.843881,141.059576 C142.731455,141.678221 140.290768,140.440931 142.863147,139.452961 C143.139049,139.346996 144.19758,141.84804 145.739271,141.059576 C147.866976,139.971408 147.882908,132.840563 149.566355,131.273555 C150.736011,130.184801 152.816476,129.523894 154.094616,128.240143 C155.163217,127.166852 160.718574,131.359395 160.85866,128.240143 C160.933474,126.574284 150.7065,108.760813 148.328773,105.591288 Z" id="Path-91" fill="url(#linearGradient-14)" fill-rule="nonzero"></path>
                <path d="M122.794632,90.6317263 C123.667628,93.6209017 124.104126,95.8503827 124.104126,97.3201697 C124.104126,98.7899567 123.667628,100.339755 122.794632,101.969565 C131.598211,97.1245907 136,93.9193897 136,92.3539617 C136,90.7885326 131.598211,90.2144543 122.794632,90.6317263 Z" id="Path-93" fill="url(#linearGradient-15)" fill-rule="nonzero" transform="translate(129.397316, 96.234782) rotate(-240.000000) translate(-129.397316, -96.234782) "></path>
                <path d="M108.299589,78.5221191 C106.244673,79.1057078 103.890511,90.0903244 105.647584,89.591322 C107.404657,89.0923196 110.354506,77.9385305 108.299589,78.5221191 Z" id="Path-94" fill="url(#linearGradient-16)" fill-rule="nonzero" transform="translate(107.015796, 84.053908) scale(-1, 1) rotate(-270.000000) translate(-107.015796, -84.053908) "></path>
                <path d="M105.708605,94.8446325 C100.005565,98.50768 96.6777382,99.4934339 98.9909405,104.911876 C101.304143,110.330319 110.88233,112.558988 115.667844,109.485265 C120.453357,106.411542 115.264926,103.661357 113.208605,98.844632 C111.152284,94.0279073 111.411645,91.181585 105.708605,94.8446325 Z" id="Path-2" fill="url(#linearGradient-17)"></path>
                <path d="M118.157053,91.8831224 C117.056687,93.1271671 112.21314,95.5702592 113.406298,98.3255136 C114.599455,101.080768 116.440973,103.550634 118.909356,101.987659 C121.377739,100.424685 123.086235,96.3663883 122.025578,93.9171047 C120.96492,91.4678211 119.25742,90.6390776 118.157053,91.8831224 Z" id="Path-2" fill="url(#linearGradient-18)" transform="translate(117.782365, 96.892019) rotate(-45.000000) translate(-117.782365, -96.892019) "></path>
                <path d="M104.127381,86.3156561 C103.027014,87.5597009 99.8034817,91.6705867 100.996639,94.4258411 C102.189796,97.1810955 102.4113,97.9831678 104.879684,96.4201932 C107.348067,94.8572186 109.056562,90.7989221 107.995905,88.3496385 C106.935248,85.9003549 105.227747,85.0716114 104.127381,86.3156561 Z" id="Path-2" fill="url(#linearGradient-19)" transform="translate(104.526075, 91.476612) scale(-1, 1) rotate(-75.000000) translate(-104.526075, -91.476612) "></path>
                <circle id="Oval" fill="#000000" fill-rule="nonzero" cx="118" cy="95" r="2"></circle>
                <circle id="Oval" fill="#000000" fill-rule="nonzero" cx="105" cy="90" r="2"></circle>
                <path d="M108.708605,98.844632 C109.813174,98.844632 111.703941,97.949202 111.703941,96.844632 C111.703941,95.740063 108.813174,94.844632 107.708605,94.844632 C106.604036,94.844632 106.708605,95.7400625 106.708605,96.844632 C106.708605,97.9492015 107.604036,98.844632 108.708605,98.844632 Z" id="Oval" fill="#424242" fill-rule="nonzero"></path>
                <path d="M134.700291,46.344632 C141.193086,51.5728126 146.611974,54.0422296 150.672475,53.7528818 C173.368622,52.135574 182.68611,43.2631622 201.488016,47.8982924 C217.468844,51.837958 208.928314,70.8724206 216.031322,75.7423645 C223.13433,80.6123084 245.498708,67.6950931 252.636665,75.7423645 C259.774623,83.7896359 246.789058,84.0325875 250.55586,99.529101 C254.322662,115.025615 263.981575,106.933167 263.981575,126.471741 C263.981575,146.010314 247.662324,143.865898 240.673816,154.446668 C236.134578,161.319184 235.863819,174.74381 231.987681,172.609499 C229.896205,171.457873 221.630705,162.309577 222.683575,153.009026 C225.68773,126.471741 209.282709,123.610048 206.680869,126.471741 C204.079028,129.333434 206.772898,105.975163 203.064284,99.529101 C199.355669,93.0830396 189.35745,97.784044 185.879746,93.7943193 C182.402042,89.8045944 188.50411,82.0142725 177.590482,75.7423645 C166.676853,69.4704564 161.010465,77.7240613 147.999717,73.2007745 C139.325885,70.18525 132.234806,64.1615468 127.875597,55.9482671 L134.700291,46.344632 Z" id="Path-98" fill="url(#linearGradient-20)" fill-rule="nonzero"></path>
                <g id="FACE" transform="translate(110.675639, 37.844632)">
                    <path d="M11.8008213,2.92140342 C10.8114954,6.03718913 10.2439576,8.24794129 10.0982079,9.55365989 C9.8127274,12.1111765 10.7842778,14.649416 10.0982079,15.7077869 C9.1018365,17.2448468 7.5379273,17.7663687 5.40648031,17.2723523" id="Path-96" stroke="#DF8989"></path>
                    <circle id="Oval" fill="#8D688C" fill-rule="nonzero" cx="2.03296559" cy="2" r="2"></circle>
                    <circle id="Oval" fill="#8D688C" fill-rule="nonzero" cx="18.0329656" cy="8.5" r="2"></circle>
                </g>
                <path d="M119,34.9624018 C118.484446,33.3529045 117.585389,32.3152324 116.302829,31.8493853 C115.02027,31.3835382 113.062432,31.3835382 110.429315,31.8493853" id="Path-100" stroke="#FF9191" stroke-linecap="round"></path>
                <path d="M119,34.9624018 C118.484446,33.3529045 117.585389,32.3152324 116.302829,31.8493853 C115.02027,31.3835382 113.062432,31.3835382 110.429315,31.8493853" id="Path-100" stroke="#FF9191" stroke-linecap="round"></path>
                <path d="M119,34.9624018 C118.484446,33.3529045 117.585389,32.3152324 116.302829,31.8493853 C115.02027,31.3835382 113.062432,31.3835382 110.429315,31.8493853" id="Path-100" stroke="#FF9191" stroke-linecap="round"></path>
                <path d="M119,34.9624018 C118.484446,33.3529045 117.585389,32.3152324 116.302829,31.8493853 C115.02027,31.3835382 113.062432,31.3835382 110.429315,31.8493853" id="Path-100" stroke="#FF9191" stroke-linecap="round"></path>
                <path d="M117,60.9624018 C116.484446,59.3529045 115.585389,58.3152324 114.302829,57.8493853 C113.02027,57.3835382 111.062432,57.3835382 108.429315,57.8493853" id="Path-100" stroke="#FFFFFF" stroke-width="2" stroke-linecap="round" transform="translate(112.714658, 59.231201) scale(-1, 1) rotate(-225.000000) translate(-112.714658, -59.231201) "></path>
                <path d="M109,102 C108.759387,101.0703 108.339791,100.470906 107.741211,100.201817 C107.142632,99.9327278 106.228895,99.9327278 105,100.201817" id="Path-100" stroke="#FFADAD" stroke-width="2" stroke-linecap="round" transform="translate(107.000000, 101.000000) scale(-1, 1) rotate(-225.000000) translate(-107.000000, -101.000000) "></path>
                <path d="M148.6919,126.796606 C148.441016,127.22963 148.982692,128.288339 148.687993,130.093979 C148.251682,132.767282 147.019085,136.639957 147.090714,138.986442 C147.123879,140.072896 147.136136,143.073521 147.910036,144.88546 C148.320699,145.84695 146.026997,146.964229 146.458687,147.595965 C148.596854,150.724961 154.687666,152.260711 155.198775,151.636585 C165.439075,139.131924 166.544571,137.679993 165.189295,133.444386 C164.280226,130.603297 154.577772,120.337341 151.99792,123.439375 C151.693314,123.805635 151.955796,127.957467 151.37562,129.434911 C151.08552,130.173665 151.98088,128.413178 151.652555,127.426964 C151.096122,125.75557 149.288627,124.341944 148.6919,126.796606 Z" id="Path-101" fill="url(#linearGradient-21)" fill-rule="nonzero" transform="translate(156.030111, 137.317614) rotate(-330.000000) translate(-156.030111, -137.317614) "></path>
                <path d="M140.937989,104.997124 C140.687105,105.161874 141.228781,105.564676 140.934081,106.251659 C140.49777,107.268757 139.265174,108.742175 139.336802,109.634931 C139.369967,110.048288 151.980395,113.741063 153.420676,113.045057 C158.521504,110.580117 158.492242,108.783037 157.435384,107.526372 C156.526315,106.445437 146.82386,102.539599 144.244008,103.719815 C143.939402,103.859164 144.201884,105.438791 143.621708,106.000907 C143.331608,106.281977 144.226968,105.612173 143.898643,105.236953 C143.342211,104.601046 141.534716,104.063211 140.937989,104.997124 Z" id="Path-101" fill="url(#linearGradient-22)" fill-rule="nonzero" transform="translate(148.666903, 108.316063) scale(1, -1) rotate(-60.000000) translate(-148.666903, -108.316063) "></path>
            </g>
            <rect id="Rectangle" fill="#FFFFFF" x="33" y="187" width="218" height="73" rx="8"></rect>
        </g>
    </g>
</svg>