<?xml version="1.0" encoding="UTF-8"?>
<svg width="29px" height="28px" viewBox="0 0 29 28" version="1.1" xmlns="http://www.w3.org/2000/svg" xmlns:xlink="http://www.w3.org/1999/xlink">
    <!-- Generator: Sketch 54.1 (76490) - https://sketchapp.com -->
    <title>Star Copy 4@1x</title>
    <desc>Created with Sketch.</desc>
    <g id="Page-1" stroke="none" stroke-width="1" fill="none" fill-rule="evenodd">
        <g id="iPhone-8" transform="translate(-165.000000, -3026.000000)" fill="#FFC77F">
            <g id="Words-from-our-customers" transform="translate(23.000000, 2734.000000)">
                <g id="Stars" transform="translate(0.000000, 290.000000)">
                    <path d="M156.5,25.5 L150.094595,28.8675207 C149.116906,29.3815223 147.907652,29.0056293 147.39365,28.0279401 C147.188972,27.6386191 147.118342,27.192683 147.192696,26.7591677 L148.41602,19.6266445 L143.233938,14.5753634 C142.442971,13.804361 142.426786,12.5381345 143.197789,11.7471673 C143.504806,11.4322 143.907091,11.2272257 144.342365,11.1639767 L151.503825,10.1233555 L154.706528,3.6339715 C155.195372,2.64346418 156.394624,2.23678618 157.385131,2.72563077 C157.779557,2.92029125 158.098812,3.23954629 158.293472,3.6339715 L161.496175,10.1233555 L168.657635,11.1639767 C169.750725,11.3228119 170.508088,12.3376976 170.349253,13.4307873 C170.286004,13.8660614 170.081029,14.2683462 169.766062,14.5753634 L164.58398,19.6266445 L165.807304,26.7591677 C165.994026,27.8478406 165.26285,28.8817525 164.174177,29.0684745 C163.740662,29.1428282 163.294726,29.0721988 162.905405,28.8675207 L156.5,25.5 Z" id="Star-Copy-4"></path>
                </g>
            </g>
        </g>
    </g>
</svg>