<?xml version="1.0" encoding="UTF-8"?>
<svg width="371px" height="373px" viewBox="0 0 371 373" version="1.1" xmlns="http://www.w3.org/2000/svg" xmlns:xlink="http://www.w3.org/1999/xlink">
    <!-- Generator: Sketch 55 (78076) - https://sketchapp.com -->
    <title>Person At top@1x</title>
    <desc>Created with Sketch.</desc>
    <defs>
        <path d="M175,329.952663 C325.408767,319.854267 326,322.575958 326,313.476332 C326,304.376705 258.394997,297 175,297 C91.6050028,297 24,304.376705 24,313.476332 C24,322.575958 24.5912332,340.05106 175,329.952663 Z" id="path-1"></path>
        <filter x="-19.2%" y="-155.6%" width="138.4%" height="422.2%" filterUnits="objectBoundingBox" id="filter-2">
            <feOffset dx="0" dy="2" in="SourceAlpha" result="shadowOffsetOuter1"></feOffset>
            <feGaussianBlur stdDeviation="19" in="shadowOffsetOuter1" result="shadowBlurOuter1"></feGaussianBlur>
            <feColorMatrix values="0 0 0 0 0   0 0 0 0 0   0 0 0 0 0  0 0 0 0.229758523 0" type="matrix" in="shadowBlurOuter1"></feColorMatrix>
        </filter>
        <linearGradient x1="50%" y1="75.3758586%" x2="0%" y2="-99.6613203%" id="linearGradient-3">
            <stop stop-color="#FFBBAA" offset="0%"></stop>
            <stop stop-color="#FFFC9D" offset="100%"></stop>
        </linearGradient>
        <linearGradient x1="50%" y1="131.258982%" x2="7.86079011%" y2="-429.247884%" id="linearGradient-4">
            <stop stop-color="#FFBBAA" offset="0%"></stop>
            <stop stop-color="#FFFC9D" offset="100%"></stop>
        </linearGradient>
        <linearGradient x1="50%" y1="131.258982%" x2="50%" y2="-201.828611%" id="linearGradient-5">
            <stop stop-color="#FF9696" offset="0%"></stop>
            <stop stop-color="#FFFC9D" offset="100%"></stop>
        </linearGradient>
        <linearGradient x1="50%" y1="0%" x2="50%" y2="100%" id="linearGradient-6">
            <stop stop-color="#FF7E7E" offset="0%"></stop>
            <stop stop-color="#FF4747" offset="100%"></stop>
        </linearGradient>
        <linearGradient x1="42.6955067%" y1="-31.8423091%" x2="50%" y2="100%" id="linearGradient-7">
            <stop stop-color="#FF8989" offset="0%"></stop>
            <stop stop-color="#FF5151" offset="100%"></stop>
        </linearGradient>
        <linearGradient x1="24.8905598%" y1="39.9446932%" x2="55.5428493%" y2="95.7777978%" id="linearGradient-8">
            <stop stop-color="#F44A6D" stop-opacity="0" offset="0%"></stop>
            <stop stop-color="#F3476A" stop-opacity="0.0751432202" offset="73.6469773%"></stop>
            <stop stop-color="#E5243B" offset="100%"></stop>
        </linearGradient>
        <polygon id="path-9" points="231.645421 99.3908771 259.706058 89 285 116.213522 264.101857 202 228 176.026662"></polygon>
        <linearGradient x1="87.0624405%" y1="93.2216176%" x2="-63.6906912%" y2="68.1659679%" id="linearGradient-10">
            <stop stop-color="#FF9C91" offset="0%"></stop>
            <stop stop-color="#FFFEE2" offset="100%"></stop>
        </linearGradient>
        <linearGradient x1="50%" y1="-41.6776997%" x2="50%" y2="100%" id="linearGradient-11">
            <stop stop-color="#FF8989" offset="0%"></stop>
            <stop stop-color="#FF5151" offset="100%"></stop>
        </linearGradient>
        <linearGradient x1="69.6163272%" y1="140.890471%" x2="50%" y2="-32.4904413%" id="linearGradient-12">
            <stop stop-color="#3191FF" offset="0%"></stop>
            <stop stop-color="#16C4FF" offset="100%"></stop>
        </linearGradient>
        <linearGradient x1="12.5094802%" y1="-7.80674724%" x2="99.4937852%" y2="126.988315%" id="linearGradient-13">
            <stop stop-color="#FFFFFF" offset="0%"></stop>
            <stop stop-color="#000000" offset="100%"></stop>
        </linearGradient>
        <linearGradient x1="50%" y1="-35.1117754%" x2="50%" y2="212.537911%" id="linearGradient-14">
            <stop stop-color="#FFFFFF" offset="0%"></stop>
            <stop stop-color="#000000" offset="100%"></stop>
            <stop stop-color="#000000" offset="100%"></stop>
        </linearGradient>
        <linearGradient x1="45.4728897%" y1="45.072795%" x2="50%" y2="54.927205%" id="linearGradient-15">
            <stop stop-color="#FFB4B4" offset="0%"></stop>
            <stop stop-color="#FF5858" offset="100%"></stop>
        </linearGradient>
        <linearGradient x1="50%" y1="0%" x2="50%" y2="100%" id="linearGradient-16">
            <stop stop-color="#FF7D7D" offset="0%"></stop>
            <stop stop-color="#FF4747" offset="100%"></stop>
        </linearGradient>
        <linearGradient x1="40.8165377%" y1="-30.0399552%" x2="50%" y2="100%" id="linearGradient-17">
            <stop stop-color="#FFFFFF" offset="0%"></stop>
            <stop stop-color="#000000" offset="100%"></stop>
        </linearGradient>
        <linearGradient x1="36.5854653%" y1="9.07462435%" x2="74.6458281%" y2="86.5972341%" id="linearGradient-18">
            <stop stop-color="#FFFFFF" offset="0%"></stop>
            <stop stop-color="#A7A7A7" offset="24.5375485%"></stop>
            <stop stop-color="#919191" offset="34.5467721%"></stop>
            <stop stop-color="#000000" offset="100%"></stop>
        </linearGradient>
        <linearGradient x1="59.9124221%" y1="8.96560831%" x2="50%" y2="74.9134948%" id="linearGradient-19">
            <stop stop-color="#FFB4B4" offset="0%"></stop>
            <stop stop-color="#FF7C7C" offset="100%"></stop>
        </linearGradient>
        <linearGradient x1="65.7751991%" y1="129.63215%" x2="6.6587396%" y2="-96.2648254%" id="linearGradient-20">
            <stop stop-color="#FF9C91" offset="0%"></stop>
            <stop stop-color="#FFFEE2" offset="100%"></stop>
        </linearGradient>
    </defs>
    <g id="Page-1" stroke="none" stroke-width="1" fill="none" fill-rule="evenodd">
        <g id="Desktop-HD-Copy-3" transform="translate(-929.000000, -223.000000)">
            <g id="Person-At-top" transform="translate(940.000000, 223.000000)">
                <g id="Oval" opacity="0.475702195" fill="black" fill-opacity="1">
                    <use filter="url(#filter-2)" xlink:href="#path-1"></use>
                </g>
                <path d="M122.526225,309 C119.934723,310.379764 117.536346,311.313514 115.331095,311.80125 C103.445737,314.429935 88.543619,324.27392 79.9772924,326.81471 C68.9763431,330.077615 65.728367,325.663806 64.1451315,324.777993 C59.4063229,322.126653 50.7658605,318.724216 64.1451315,306.655653 C71.7470309,299.798478 79.6124515,294.018081 103.725534,293.036278 C105.589497,292.960383 109.613758,289.543867 115.331095,290.051398 C117.217152,290.218825 120.44012,291.752169 125,294.651431" id="Path-201" fill="url(#linearGradient-3)"></path>
                <path d="M43.2610356,295 C32.7393621,303.037351 25.5453591,308.132186 21.6790268,310.284505 C9.34949585,317.148137 8.04051438,321.26455 3.98088603,325.511822 C-6.61648836,336.599025 6.56881706,356.79352 13.1429189,355.975913 C21.1530553,354.979708 28.7659616,333.054783 47.793194,323.476598 C52.0665175,321.325435 54.8021195,317.670683 56,312.512344 L43.2610356,295 Z" id="Path-202" fill="url(#linearGradient-4)"></path>
                <path d="M285,295.008796 C286.114433,297.016542 286.702964,298.900918 286.765593,300.661925 C287.025839,307.979499 284.886439,315.347692 287.977302,318.34156 C290.925302,321.197049 297.086776,321.87012 304.445676,322.570648 C307.587453,322.869728 313.437972,324.920098 315.57511,323.50957 C316.999868,322.569217 316.133562,320.846548 312.976191,318.34156 L346.840357,319.125199 C348.774192,317.279339 349.409299,315.981336 348.745678,315.23119 C346.274472,312.43778 344.425278,312.286196 343.23457,312.117254 C323.154732,309.268254 311.984652,310.135703 308.500303,307.943842 C304.581186,305.478485 302.036469,299.830538 300.86615,291 L285,295.008796 Z" id="Path-203" fill="url(#linearGradient-5)"></path>
                <path d="M172.66054,253 L236,271.909183 C210.578544,279.900591 191.3843,284.748032 178.417266,286.451504 C169.626214,287.606381 151.13106,301.402028 137.984631,300.990998 C133.821365,300.860831 129.593874,296.014334 125.302158,286.451504 L98,283.339541 L172.66054,253 Z" id="Path-38" fill="url(#linearGradient-6)"></path>
                <g id="Path-32">
                    <use fill="url(#linearGradient-7)" xlink:href="#path-9"></use>
                    <use fill="url(#linearGradient-8)" xlink:href="#path-9"></use>
                </g>
                <path d="M223,45.0907001 C225.487964,60.05547 227.390322,69.6121223 228.707074,73.760657 C230.566436,79.6187244 232.8368,82.180009 234.53459,85.2059197 C237.205694,89.9665318 239.851862,92.5148968 246.484985,97.832726 C247.04944,98.2852541 246.331609,114.123692 246.484985,114.221031 C247.707008,114.996575 253.159289,120.585918 263.204525,124.572749 C265.788553,125.598318 271.301842,124.777563 279.744392,122.110483 L279.744392,85.2059197 C279.810672,75.4973165 280.388693,68.9516018 281.478453,65.5687757 C283.113095,60.4945365 291.699372,60.6418649 292.814626,57.3773644 C293.929879,54.1128639 289.8404,45.0907001 285.176117,45.0907001 C282.991756,45.0907001 278.965423,45.5801962 274.718972,48.4178363 C272.920436,49.6196868 271.872445,54.7122523 269.579428,53.716257 C268.753016,53.3572965 268.264384,49.760164 266.413002,46.8351571 C264.386271,43.6331164 261.523952,43.0651446 259.212419,39.7181857 C257.776667,37.639304 254.434037,36 252.494817,36 C250.704114,36 245.376582,37.2837785 241.710381,39.7181857 C238.397944,41.9176886 236.016825,42.6220198 232.593329,44.2624318 C229.959718,45.5243602 226.761941,45.8004496 223,45.0907001 Z" id="Path-29" fill="url(#linearGradient-10)"></path>
                <path d="M220.164734,46.1868664 C216.268643,43.4807408 212.537543,39.1605671 213.046792,30.1728037 C213.386292,24.1809614 217.984693,18.4181586 226.841995,12.8843954 C228.323729,6.27597093 231.238543,2.20421901 235.586437,0.6691396 C239.934332,-0.865939811 245.419162,0.240210796 252.040927,3.98759142 C269.068945,1.38755428 279.948477,0.966469243 284.679524,2.72433632 C291.776094,5.36113693 290.422404,15.4019823 291.459058,18.6337869 C292.495712,21.8655916 298.622641,24.0059142 300.982542,27.7133103 C306.728532,36.7402409 303.234799,48.19052 299.057068,52.8265178 C293.163527,59.3665382 286.288611,70.4243656 278.43232,86 C277.977791,77.3907069 277.977791,71.7747362 278.43232,69.1520878 C279.027582,65.7174112 280.878665,62.6543475 283.325834,61.1713772 C284.596454,60.4013886 286.543536,55.8731574 286.653025,54.2607153 C286.832345,51.6198504 287.326926,48.6563935 284.787181,47.2333066 C279.735027,44.4024506 273.301339,56.6059321 267.243988,54.2607153 C261.186637,51.9154984 260.363585,41.0182416 255.977238,39.0005939 C251.59089,36.9829462 244.327492,39.0005939 236.604884,44.6832357 C228.882275,50.3658775 224.060826,48.8929921 220.164734,46.1868664 Z" id="Path-30" fill="url(#linearGradient-11)"></path>
                <path d="M279.714142,84.789999 C305.928281,82.2952764 321.567681,85.7090811 326.632342,95.0314133 C331.697004,104.353746 331.049061,128.534151 324.688512,167.572631 C320.491671,188.367464 317.528632,207.428517 315.799396,224.755789 C314.07016,242.083062 312.756045,265.879898 311.857051,296.1463 L286.79187,301 L283.224955,234.286316 C279.331671,245.615663 276.150327,253.746247 273.680923,258.678067 C271.211518,263.609888 268.030174,268.186672 264.136891,272.408421 C242.937827,281.395956 226.487219,282.56326 214.785064,275.910335 C205.837261,270.823316 178.787109,279.63903 163.554651,258.678067 C160.428705,254.376539 161.546176,239.296613 166.907064,213.438289 C159.710831,217.381806 155.137649,218.85521 153.187518,217.858502 C142.820385,212.559879 148.521773,206.075458 146.811011,202.624796 C144.660623,198.287393 144.425257,190.755318 146.104914,180.028571 C155.585465,169.944532 162.590256,161.721533 167.119285,155.359573 C173.91283,145.816633 176.326985,134.588084 187.784634,123.22369 C195.423067,115.647428 210.049404,107.374258 231.663645,98.4041795 C236.554958,126.484665 241.016685,147.008838 245.048827,159.9767 C249.080968,172.944562 253.134896,181.830223 257.21061,186.633684 C267.681417,168.047608 274.175495,153.058217 276.692844,141.665513 C279.210193,130.272809 280.217292,111.314304 279.714142,84.789999 Z" id="Path-31" fill="url(#linearGradient-12)"></path>
                <circle id="Oval" fill="#0088FF" cx="244.5" cy="218.5" r="3.5"></circle>
                <circle id="Oval" fill="#0088FF" cx="234.5" cy="237.5" r="3.5"></circle>
                <circle id="Oval" fill="#0088FF" cx="227.5" cy="257.5" r="3.5"></circle>
                <path d="M164.729758,217.800219 C162.661064,219.404743 160.878442,220.354421 159.381893,220.649254 C144.341125,223.61241 144.495565,220.771893 151.924027,218.967775 C160.461181,216.894392 172.173367,205.905134 187.060587,186 C188.593761,212.234733 188.593761,229.287491 187.060587,237.158274 C185.527412,245.029058 187.84055,257.642966 194,275 C188.376311,273.890922 183.025734,272.480726 177.948269,270.769411 C172.870804,269.058097 166.682012,266.579052 159.381893,263.332275 L164.729758,217.800219 Z" id="Path-33" fill="#0088FF"></path>
                <path d="M223,101.063496 C227.570443,124.112344 232.606801,143.508798 238.109074,159.252858 C243.611347,174.996918 250.100513,188.579299 257.576574,200 C267.720659,183.818629 275.260549,166.361651 280.196242,147.629067 C285.131934,128.896482 287.382229,107.686793 286.947127,84 L278.914751,84.6378544 C278.979301,99.3514591 278.861712,110.007865 278.561984,116.607073 C278.107371,126.616459 277.282993,137.01664 275.816005,143.612075 C272.898235,156.730083 266.818425,170.758 257.576574,185.695825 C253.119695,179.33214 249.044846,169.81545 245.352026,157.145756 C241.659206,144.476062 237.174453,124.625615 231.897766,97.594415 L223,101.063496 Z" id="Path-34" fill="#0088FF"></path>
                <path d="M303.527453,158 C306.459587,177.580096 307.949665,191.449764 307.997689,199.609004 C308.105857,217.986589 304.392897,233.256818 301.881064,240.833333 C297.696434,253.455556 296.015403,273.177778 296.837971,300 L284.319222,300 L281,240.833333 C285.475172,231.497472 289.229748,221.251579 292.263727,210.095654 C295.297706,198.939729 299.052281,181.574511 303.527453,158 Z" id="Path-35" fill="#0088FF"></path>
                <path d="M92.342151,167.575205 C89.0147082,160.564791 88.1718649,156.478421 89.8136211,155.316096 C91.4553774,154.153771 95.1841703,156.196956 101,161.445651 C99.3143134,164.523011 97.449917,167.247277 95.4068106,169.618449 C93.3637042,171.989621 92.342151,171.30854 92.342151,167.575205 Z" id="Path-43" fill="url(#linearGradient-13)"></path>
                <path d="M133.867968,151 C134.301482,144.20686 133.667445,140.559909 131.965856,140.059148 C130.264268,139.558386 127.608983,142.23732 124,148.09595 L133.867968,151 Z" id="Path-44" fill="url(#linearGradient-14)"></path>
                <path d="M118.518496,298.03555 C175.559301,282.085589 214.32792,272.323083 234.824353,268.748032 C265.569002,263.385456 278.345244,277.371569 280.927439,286.101193 C282.648902,291.920943 283.069532,297.378911 282.189329,302.475096 C272.259702,315.710936 251.916835,321.586926 221.16073,320.103065 C208.459408,319.490277 164.657695,322.037123 138.841393,320.089719 C124.30912,318.993505 133.787747,318.909393 116.959038,320.086171 C111.084455,320.496962 111.604275,313.146755 118.518496,298.03555 Z" id="Path-37" fill="url(#linearGradient-15)" transform="translate(197.773645, 294.197040) rotate(4.000000) translate(-197.773645, -294.197040) "></path>
                <path d="M266,275 C271.052323,282.126134 274.334436,288.03195 275.846337,292.717446 C277.358238,297.402943 277.358238,302.01875 275.846337,306.564869 C270.410749,313.521623 268.103263,317 268.92388,317 C269.45058,317 272.52052,316.265138 275.846337,313.71587 C277.039011,312.801675 282.294361,310.315181 282.958782,303.600355 C283.328265,299.866267 281.113881,291.528882 280.299434,288.932929 C278.780083,284.090178 274.013605,279.445868 266,275 Z" id="Path-39" fill="url(#linearGradient-16)"></path>
                <path d="M53.6134724,284 C50.1288425,270.394566 50.1288425,258.761803 53.6134724,249.101713 C58.8404173,234.611577 68.641029,225.814914 82.325456,199.66538 C88.7070665,187.470778 94.1719033,154.188425 112.996366,148.682894 C153.52162,136.8306 145.146826,191.171569 146.474959,199.66538 C147.736981,207.736394 150.911995,213.662862 156,217.444784 L53.6134724,284 Z" id="Path-41" fill="url(#linearGradient-17)"></path>
                <path d="M50.8962943,263 C38.7846852,262.190899 30.8225271,257.958399 27.00982,250.302499 C21.2907592,238.818648 27.6041596,218.500507 22.4725965,205.925332 C17.3410333,193.350157 1.30192433,196.508966 5.78010084,177.387998 C10.2582773,158.267029 38.2658631,164.701312 45.2613068,185.711387 C52.2567505,206.721461 41.5718118,211.4885 41.5718118,230.895499 C41.5718118,243.833499 45.3812078,251.364184 53,253.487555" id="Path-42" fill="url(#linearGradient-18)"></path>
                <path d="M81,263 C81.022158,259.195456 82.4704287,254.47215 85.3448121,248.830083 C88.2191955,243.188016 94.6670863,233.244655 104.688485,219 C108.015677,222.677019 110.603877,225.404399 112.453083,227.182141 C114.30229,228.959884 117.151262,231.45955 121,234.681141 L81,263 Z" id="Path-45" fill="#FFFFFF"></path>
                <path d="M128.739527,225.393934 C133.097263,226.994042 136.877746,225.42575 140.080977,220.689057 C142.208914,217.542428 145.012841,196.454993 144.933716,194.02394 C144.860148,191.76362 145.11447,189.119598 144.933716,188.829288 C143.676243,186.809656 137.649146,186.901737 135.632901,187.094787 C129.57641,187.674681 124.181745,189.105009 121.696129,193.586771 C116.482473,202.987406 118.830272,213.589793 128.739527,225.393934 Z" id="Path-46" fill="#FFFFFF"></path>
                <path d="M110.826728,294.023291 C138.782878,285.904721 156.859546,278.086861 165.056733,270.569714 C177.352513,259.293992 181.658554,236.188492 174.610319,227.873237 C167.562084,219.557982 147.838731,211.758056 126.842388,225.485803 C112.844825,234.637634 84.8430937,257.483464 42.8371925,294.023291 C41.7209358,297.763385 41.7209358,300.740328 42.8371925,302.954121 C44.3481649,305.950725 44.3552873,314 50.7299112,314 C55.7914106,314 60.6905801,310.26918 67.6227566,308.379977 C73.1935731,306.861781 82.3462405,303.910814 95.0807587,299.527077 C98.2475973,298.436922 103.496254,296.602327 110.826728,294.023291 Z" id="Path-36" fill="url(#linearGradient-19)"></path>
                <path d="M117,232.69003 L128.210057,225 C135.13798,232.896301 136.764373,237.965072 133.089236,240.206313 C129.414099,242.447554 124.05102,239.942126 117,232.69003 Z" id="Path-47" fill="#FFFFFF"></path>
                <path d="M79.854063,204.687538 C79.854063,204.932464 83.2268442,208.853519 89.9724067,216.450702 C90.0825185,217.892918 89.8630769,218.987468 89.314082,219.734352 C88.7591105,220.489367 86.8997488,220.571083 86.1636083,221.593921 C85.7869268,222.117306 86.0238952,223.17656 85.5690774,223.812726 C85.1852181,224.34964 83.7739586,224.669564 83.0918332,225.529106 C82.8796465,225.796481 82.5054859,226.258644 82.5054859,226.784378 C82.5054859,227.772468 80.9645092,227.926398 79.854063,229.260861 C78.853917,230.462771 76.8696927,229.809265 76.5,230.02973 C75.7738395,230.462771 76.1522595,231.472398 75.0102044,231.925932 C73.8681493,232.379466 70.411186,230.680528 67.8640825,228.732453 C65.316979,226.784378 63,225.275845 63,223.067216 C63,221.594797 63.5050654,220.811061 64.5151961,220.716009 C64.1609618,218.464537 64.1609618,216.932426 64.5151961,216.119675 C64.8694303,215.306924 65.9857258,214.400022 67.8640825,213.398971 C68.3586622,211.187138 68.8466699,209.69394 69.3281056,208.919377 C69.8095412,208.144814 70.9768107,207.416581 72.829914,206.734679 C72.998695,205.295009 73.7254584,204.171492 75.0102044,203.364126 C76.9373233,202.153078 79.854063,204.320148 79.854063,204.687538 Z" id="Path-40" fill="url(#linearGradient-20)"></path>
                <path d="M117,174.042496 C119.276352,175.035036 121.036356,175.255933 122.280014,174.705185 C123.523672,174.154438 124.768436,172.406187 126.014306,169.460432 C129.269669,169.982704 131.307268,169.982129 132.127103,169.458706 C132.946938,168.935284 133.571237,167.449048 134,165" id="Path-48" stroke="#494949" stroke-width="1.86297408" stroke-linecap="round"></path>
                <circle id="Oval" fill="#494949" cx="114.5" cy="162.5" r="2.5"></circle>
                <circle id="Oval" fill="#494949" cx="127.5" cy="155.5" r="2.5"></circle>
                <circle id="Oval" fill="#494949" cx="125.5" cy="165.5" r="2.5"></circle>
                <path d="M236,57 C236.9196,57.5490711 237.379399,58.5040396 237.379399,59.8649055 C237.379399,64.5525374 236,71.6906689 236,72.627567 C236,73.9724514 237.666667,74.3289192 241,73.6969705" id="Path-49" stroke="#DF8989" stroke-width="1.86297408" stroke-linecap="round"></path>
                <path d="M239,84 C243.535216,83.6394469 246.933513,83.0201421 249.194892,82.1420856 C251.456271,81.264029 252.350367,80.2166671 251.877181,79" id="Path-50" stroke="#DF8989" stroke-width="1.86297408" stroke-linecap="round"></path>
                <path d="M243,46.1503092 C244.896876,43.9426186 246.643147,42.895266 248.238814,43.0082513 C249.834481,43.1212365 252.088209,44.4518195 255,47" id="Path-51" stroke="#FF7171" stroke-width="1.86297408" stroke-linecap="round"></path>
                <circle id="Oval" fill="#8D688C" cx="250.5" cy="54.5" r="2.5"></circle>
                <circle id="Oval" fill="#8D688C" cx="228.5" cy="59.5" r="2.5"></circle>
                <path d="M248,98.5678978 L248,106.24327 C260.07641,113.358807 268.029093,115.578834 271.858049,112.90335 C275.067989,110.660404 278,93.498183 276.205993,87.3421976 C274.649576,82.0014826 278,78 278,78 C278,78 275.843203,82.5770337 272.679456,86.5293102 C269.028585,91.0901199 264.147963,95.2444864 261.504889,97.5081818 C258.215893,100.325084 253.714264,100.678323 248,98.5678978 Z" id="Path-52" fill="#FFAA9C"></path>
            </g>
        </g>
    </g>
</svg>