<?xml version="1.0" encoding="UTF-8"?>
<svg width="22px" height="21px" viewBox="0 0 22 21" version="1.1" xmlns="http://www.w3.org/2000/svg" xmlns:xlink="http://www.w3.org/1999/xlink">
    <!-- Generator: Sketch 49.3 (51167) - http://www.bohemiancoding.com/sketch -->
    <title>Fill 3@1x</title>
    <desc>Created with Sketch.</desc>
    <defs></defs>
    <g id="Page-1" stroke="none" stroke-width="1" fill="none" fill-rule="evenodd">
        <g id="Desktop-Home" transform="translate(-529.000000, -1613.000000)" fill="#444444">
            <g id="Footer" transform="translate(0.000000, 1410.000000)">
                <g id="Social" transform="translate(369.000000, 199.000000)">
                    <path d="M161.65376,4 C161.18208,4 160.8,4.38208 160.8,4.85312 L160.8,23.62688 C160.8,24.09792 161.18208,24.48 161.65376,24.48 L171.68,24.48 L171.68,16.8 L169.12,16.8 L169.12,13.6 L171.68,13.6 L171.68,11.04 C171.68,8.39488 173.35488,7.09312 175.71456,7.09312 C176.8448,7.09312 177.81632,7.1776 178.0992,7.21472 L178.0992,9.97952 L176.46272,9.98016 C175.17952,9.98016 174.88,10.59008 174.88,11.4848 L174.88,13.6 L178.08,13.6 L177.44,16.8 L174.88,16.8 L174.9312,24.48 L180.42688,24.48 C180.89792,24.48 181.28,24.09792 181.28,23.62688 L181.28,4.85312 C181.28,4.38208 180.89792,4 180.42688,4 L161.65376,4 Z" id="Fill-3"></path>
                </g>
            </g>
        </g>
    </g>
</svg>