<?xml version="1.0" encoding="UTF-8"?>
<svg width="21px" height="15px" viewBox="0 0 21 15" version="1.1" xmlns="http://www.w3.org/2000/svg" xmlns:xlink="http://www.w3.org/1999/xlink">
    <!-- Generator: Sketch 49.3 (51167) - http://www.bohemiancoding.com/sketch -->
    <title>Fill 25@1x</title>
    <desc>Created with Sketch.</desc>
    <defs></defs>
    <g id="Page-1" stroke="none" stroke-width="1" fill="none" fill-rule="evenodd">
        <g id="Desktop-Home" transform="translate(-476.000000, -1617.000000)" fill="#444444">
            <g id="Footer" transform="translate(0.000000, 1410.000000)">
                <g id="Social" transform="translate(369.000000, 199.000000)">
                    <path d="M115.32544,18.33856 L115.3248,12.58432 L120.85824,15.47136 L115.32544,18.33856 Z M127.4752,11.5872 C127.4752,11.5872 127.27488,10.176 126.66112,9.55456 C125.88224,8.73856 125.00928,8.73472 124.60928,8.68736 C121.74336,8.48 117.44448,8.48 117.44448,8.48 L117.43552,8.48 C117.43552,8.48 113.13664,8.48 110.27072,8.68736 C109.87008,8.73472 108.99776,8.73856 108.21824,9.55456 C107.60448,10.176 107.4048,11.5872 107.4048,11.5872 C107.4048,11.5872 107.2,13.2448 107.2,14.90176 L107.2,16.45568 C107.2,18.11328 107.4048,19.77024 107.4048,19.77024 C107.4048,19.77024 107.60448,21.18144 108.21824,21.80288 C108.99776,22.61888 110.02112,22.59328 110.4768,22.6784 C112.1152,22.83584 117.44,22.88448 117.44,22.88448 C117.44,22.88448 121.74336,22.87808 124.60928,22.67072 C125.00928,22.62272 125.88224,22.61888 126.66112,21.80288 C127.27488,21.18144 127.4752,19.77024 127.4752,19.77024 C127.4752,19.77024 127.68,18.11328 127.68,16.45568 L127.68,14.90176 C127.68,13.2448 127.4752,11.5872 127.4752,11.5872 L127.4752,11.5872 Z" id="Fill-25"></path>
                </g>
            </g>
        </g>
    </g>
</svg>