<?xml version="1.0" encoding="UTF-8"?>
<svg width="65px" height="64px" viewBox="0 0 65 64" version="1.1" xmlns="http://www.w3.org/2000/svg" xmlns:xlink="http://www.w3.org/1999/xlink">
    <!-- Generator: Sketch 50 (54983) - http://www.bohemiancoding.com/sketch -->
    <title>Dislike@1x</title>
    <desc>Created with Sketch.</desc>
    <defs>
        <radialGradient cx="50%" cy="50%" fx="50%" fy="50%" r="100.330033%" gradientTransform="translate(0.500000,0.500000),scale(1.000000,0.996711),rotate(90.000000),translate(-0.500000,-0.500000)" id="radialGradient-1">
            <stop stop-color="#FFFFFF" offset="0%"></stop>
            <stop stop-color="#F7F7F7" offset="100%"></stop>
        </radialGradient>
        <linearGradient x1="-54.8164084%" y1="229.790352%" x2="111.889433%" y2="7.6939885%" id="linearGradient-2">
            <stop stop-color="#FFB129" stop-opacity="0.0251641757" offset="0%"></stop>
            <stop stop-color="#FF5774" offset="77.7878404%"></stop>
            <stop stop-color="#FF4567" offset="100%"></stop>
        </linearGradient>
    </defs>
    <g id="Page-1" stroke="none" stroke-width="1" fill="none" fill-rule="evenodd">
        <g id="MEME-SWIPING" transform="translate(-83.000000, -587.000000)">
            <g id="Buttons3" transform="translate(19.000000, 587.000000)">
                <g id="Dislike" transform="translate(64.000000, 0.000000)">
                    <ellipse id="Oval" fill="url(#radialGradient-1)" cx="32.2105263" cy="32" rx="31.8947368" ry="32"></ellipse>
                    <path d="M27.5405706,15.364645 C26.9892888,15.870323 28.4695829,15.9365045 28.1412085,17.7063978 C28.0443365,18.2285244 27.5235938,18.3758127 27.3296493,18.7595751 C26.8661652,19.676682 26.6131106,20.5627543 26.5180902,21.1697156 C26.3833087,22.0306593 27.3198792,22.8212707 26.8255962,23.5943852 C26.3313133,24.3674997 25.1717932,24.2819563 24.1635419,25.1373697 C23.1552906,25.9927831 22.6898305,26.8041622 22.5033984,27.903902 C22.3169663,29.0036418 23.2552415,30.0936032 22.8349328,30.7491868 C22.4146241,31.4047704 21.6170301,31.2373659 20.3430494,32.1071246 C19.0690687,32.9768833 18.4253662,34.27695 18.2578731,35.7541034 C18.0903801,37.2312569 18.8844618,38.0512206 18.5481989,38.6038107 C18.211936,39.1564007 16.5522643,39.996345 15.8677936,40.5913122 C15.1833228,41.1862793 13.3729662,42.6894613 14.1739085,45.5095811 C14.6228714,47.0903808 16.6470777,48.119775 18.6730431,48.4737594 C21.3028325,48.9332464 23.6060162,48.5917463 25.6750829,48.2206256 C27.7441496,47.8495049 31.9030188,48.6057821 36.2219982,48.7075294 C40.5409776,48.8092766 43.0624455,48.7008812 44.8784387,48.4737594 C46.6944319,48.2466377 47.7374603,47.8719595 48.3674298,47.3061983 C48.9973993,46.7404371 50.5719982,45.1234781 49.7598013,42.8573951 C49.4469618,41.9845525 48.3748612,40.8844988 47.5219587,40.3170017 C46.1605472,39.4111571 44.9434654,39.2173628 45.1385748,38.6038107 C45.4559171,37.6058779 46.1178502,35.2516357 44.5927435,33.5620494 C43.0676369,31.8724631 41.3615377,32.2720132 41.3615377,31.2759627 C41.3615377,30.2799122 42.0844339,29.5401828 41.5960229,28.1097033 C41.1076119,26.6792238 40.6278732,26.4047639 39.6414123,25.8136543 C38.6549514,25.2225448 38.4934084,25.150277 37.5492047,24.7144027 C36.6050009,24.2785285 38.3397788,22.7419722 36.2219982,20.1858606 C34.1042176,17.6297491 31.8992152,16.2891779 30.520784,15.5236686 C29.5248693,14.9705891 28.7301598,14.7552027 28.1412085,14.9325324 C27.9150008,15.0006421 27.693552,15.2243188 27.5405706,15.364645 Z" id="Path-2" fill="url(#linearGradient-2)"></path>
                </g>
            </g>
        </g>
    </g>
</svg>