<?xml version="1.0" encoding="UTF-8"?>
<svg width="272px" height="486px" viewBox="0 0 272 486" version="1.1" xmlns="http://www.w3.org/2000/svg" xmlns:xlink="http://www.w3.org/1999/xlink">
    <!-- Generator: Sketch 49.3 (51167) - http://www.bohemiancoding.com/sketch -->
    <title>Iphone</title>
    <desc>Created with Sketch.</desc>
    <defs>
        <linearGradient x1="47.6928251%" y1="0%" x2="50%" y2="100%" id="linearGradient-1">
            <stop stop-color="#F1D7FF" offset="0%"></stop>
            <stop stop-color="#9700FF" offset="100%"></stop>
        </linearGradient>
        <path d="M198.26383,438 L25.7361702,438 C11.5224759,438 0,425.911688 0,411 L5.41826631e-14,27 C2.70913315e-14,12.0883118 11.5224759,5.68434189e-14 25.7361702,0 L198.26383,0 C212.477524,0 224,12.0883118 224,27 L224,411 C224,425.911688 212.477524,438 198.26383,438 Z" id="path-2"></path>
        <filter x="-17.2%" y="-7.6%" width="134.4%" height="117.6%" filterUnits="objectBoundingBox" id="filter-3">
            <feOffset dx="0" dy="5" in="SourceAlpha" result="shadowOffsetOuter1"></feOffset>
            <feGaussianBlur stdDeviation="12" in="shadowOffsetOuter1" result="shadowBlurOuter1"></feGaussianBlur>
            <feColorMatrix values="0 0 0 0 0.6   0 0 0 0 0.0235294118   0 0 0 0 1  0 0 0 0.10974298 0" type="matrix" in="shadowBlurOuter1"></feColorMatrix>
        </filter>
        <linearGradient x1="50%" y1="28.1983261%" x2="50%" y2="106.139596%" id="linearGradient-4">
            <stop stop-color="#FFFFFF" offset="0%"></stop>
            <stop stop-color="#FAFAFA" offset="100%"></stop>
        </linearGradient>
        <rect id="path-5" x="15" y="101" width="194" height="263" rx="15"></rect>
        <filter x="-13.4%" y="-7.2%" width="126.8%" height="119.8%" filterUnits="objectBoundingBox" id="filter-6">
            <feOffset dx="0" dy="7" in="SourceAlpha" result="shadowOffsetOuter1"></feOffset>
            <feGaussianBlur stdDeviation="7.5" in="shadowOffsetOuter1" result="shadowBlurOuter1"></feGaussianBlur>
            <feColorMatrix values="0 0 0 0 0   0 0 0 0 0   0 0 0 0 0  0 0 0 0.0657552083 0" type="matrix" in="shadowBlurOuter1"></feColorMatrix>
        </filter>
        <radialGradient cx="50%" cy="50%" fx="50%" fy="50%" r="100%" gradientTransform="translate(0.500000,0.500000),scale(0.987228,1.000000),rotate(90.000000),translate(-0.500000,-0.500000)" id="radialGradient-7">
            <stop stop-color="#FFFFFF" offset="0%"></stop>
            <stop stop-color="#F7F7F7" offset="100%"></stop>
        </radialGradient>
        <ellipse id="path-8" cx="14.1482411" cy="13.875" rx="14.0545057" ry="13.875"></ellipse>
        <filter x="-17.8%" y="-14.4%" width="135.6%" height="136.0%" filterUnits="objectBoundingBox" id="filter-9">
            <feOffset dx="0" dy="1" in="SourceAlpha" result="shadowOffsetOuter1"></feOffset>
            <feGaussianBlur stdDeviation="1.5" in="shadowOffsetOuter1" result="shadowBlurOuter1"></feGaussianBlur>
            <feColorMatrix values="0 0 0 0 0   0 0 0 0 0   0 0 0 0 0  0 0 0 0.05 0" type="matrix" in="shadowBlurOuter1"></feColorMatrix>
        </filter>
        <ellipse id="path-10" cx="14.0545057" cy="13.875" rx="14.0545057" ry="13.875"></ellipse>
        <filter x="-17.8%" y="-14.4%" width="135.6%" height="136.0%" filterUnits="objectBoundingBox" id="filter-11">
            <feOffset dx="0" dy="1" in="SourceAlpha" result="shadowOffsetOuter1"></feOffset>
            <feGaussianBlur stdDeviation="1.5" in="shadowOffsetOuter1" result="shadowBlurOuter1"></feGaussianBlur>
            <feColorMatrix values="0 0 0 0 0   0 0 0 0 0   0 0 0 0 0  0 0 0 0.05 0" type="matrix" in="shadowBlurOuter1"></feColorMatrix>
        </filter>
        <linearGradient x1="50%" y1="-34.6775288%" x2="30.7148093%" y2="100%" id="linearGradient-12">
            <stop stop-color="#32A0FF" offset="0%"></stop>
            <stop stop-color="#24ADFF" offset="36.6569479%"></stop>
            <stop stop-color="#00E1FF" offset="100%"></stop>
        </linearGradient>
        <ellipse id="path-13" cx="14.0545057" cy="13.875" rx="14.0545057" ry="13.875"></ellipse>
        <filter x="-17.8%" y="-14.4%" width="135.6%" height="136.0%" filterUnits="objectBoundingBox" id="filter-14">
            <feOffset dx="0" dy="1" in="SourceAlpha" result="shadowOffsetOuter1"></feOffset>
            <feGaussianBlur stdDeviation="1.5" in="shadowOffsetOuter1" result="shadowBlurOuter1"></feGaussianBlur>
            <feColorMatrix values="0 0 0 0 0   0 0 0 0 0   0 0 0 0 0  0 0 0 0.05 0" type="matrix" in="shadowBlurOuter1"></feColorMatrix>
        </filter>
        <linearGradient x1="46.9831397%" y1="130.217479%" x2="58.3481636%" y2="-8.98079135%" id="linearGradient-15">
            <stop stop-color="#FFE000" offset="0%"></stop>
            <stop stop-color="#FFCC00" offset="22.1405306%"></stop>
            <stop stop-color="#FFBD00" offset="100%"></stop>
        </linearGradient>
        <radialGradient cx="50%" cy="50%" fx="50%" fy="50%" r="147.556118%" gradientTransform="translate(0.500000,0.500000),scale(0.987228,1.000000),rotate(90.000000),translate(-0.500000,-0.500000)" id="radialGradient-16">
            <stop stop-color="#FFFFFF" offset="0%"></stop>
            <stop stop-color="#F7F7F7" offset="100%"></stop>
        </radialGradient>
        <ellipse id="path-17" cx="18.7393409" cy="18.5" rx="18.7393409" ry="18.5"></ellipse>
        <filter x="-17.3%" y="-14.9%" width="134.7%" height="135.1%" filterUnits="objectBoundingBox" id="filter-18">
            <feOffset dx="0" dy="1" in="SourceAlpha" result="shadowOffsetOuter1"></feOffset>
            <feGaussianBlur stdDeviation="2" in="shadowOffsetOuter1" result="shadowBlurOuter1"></feGaussianBlur>
            <feColorMatrix values="0 0 0 0 0   0 0 0 0 0   0 0 0 0 0  0 0 0 0.05 0" type="matrix" in="shadowBlurOuter1"></feColorMatrix>
        </filter>
        <radialGradient cx="50%" cy="50%" fx="50%" fy="50%" r="154.279251%" gradientTransform="translate(0.500000,0.500000),scale(0.987228,1.000000),rotate(90.000000),translate(-0.500000,-0.500000)" id="radialGradient-19">
            <stop stop-color="#FFFFFF" offset="0%"></stop>
            <stop stop-color="#F7F7F7" offset="100%"></stop>
        </radialGradient>
        <ellipse id="path-20" cx="18.7393409" cy="18.5" rx="18.7393409" ry="18.5"></ellipse>
        <filter x="-17.3%" y="-14.9%" width="134.7%" height="135.1%" filterUnits="objectBoundingBox" id="filter-21">
            <feOffset dx="0" dy="1" in="SourceAlpha" result="shadowOffsetOuter1"></feOffset>
            <feGaussianBlur stdDeviation="2" in="shadowOffsetOuter1" result="shadowBlurOuter1"></feGaussianBlur>
            <feColorMatrix values="0 0 0 0 0   0 0 0 0 0   0 0 0 0 0  0 0 0 0.05 0" type="matrix" in="shadowBlurOuter1"></feColorMatrix>
        </filter>
        <linearGradient x1="-54.8164084%" y1="229.790352%" x2="111.889433%" y2="7.6939885%" id="linearGradient-22">
            <stop stop-color="#FFB129" stop-opacity="0.0251641757" offset="0%"></stop>
            <stop stop-color="#FF5774" offset="77.7878404%"></stop>
            <stop stop-color="#FF4567" offset="100%"></stop>
        </linearGradient>
        <linearGradient x1="100%" y1="17.9500191%" x2="50%" y2="100%" id="linearGradient-23">
            <stop stop-color="#7CE087" offset="0%"></stop>
            <stop stop-color="#26F1E7" offset="100%"></stop>
        </linearGradient>
    </defs>
    <g id="Page-1" stroke="none" stroke-width="1" fill="none" fill-rule="evenodd">
        <g id="Desktop-Home" transform="translate(-653.000000, -698.000000)">
            <g id="Mid-" transform="translate(114.000000, 717.000000)">
                <g id="Iphone" transform="translate(563.000000, 0.000000)">
                    <g id="Rectangle-2">
                        <use fill="black" fill-opacity="1" filter="url(#filter-3)" xlink:href="#path-2"></use>
                        <use fill="url(#linearGradient-1)" fill-rule="evenodd" xlink:href="#path-2"></use>
                    </g>
                    <path d="M191.791296,432.000002 L32.7183762,432.000002 C18.5145093,432.000002 7,419.91169 7,405.000002 L7,33 C7,18.0883118 18.5145093,6 32.7183762,6 L52.4292614,6 C60.4587213,6 65.3920174,6 65.3920174,13.1541266 C65.3920174,24.5851334 68.3110448,30.5431189 80.8501154,30.5431189 L142.56651,30.5431189 C152.197156,30.5431189 159.135624,26.9399192 159.135624,13.1541266 C159.135624,6 165.644401,6 171.158172,6 L191.791296,6 C205.995163,6 217.509672,18.0883118 217.509672,33 L217.509672,405.000002 C217.509672,419.91169 205.995163,432.000002 191.791296,432.000002 Z" id="Rectangle-2" fill="url(#linearGradient-4)"></path>
                    <g id="Rectangle-7">
                        <use fill="black" fill-opacity="1" filter="url(#filter-6)" xlink:href="#path-5"></use>
                        <use fill="#FFFFFF" fill-rule="evenodd" xlink:href="#path-5"></use>
                    </g>
                    <g id="Buttons3" transform="translate(13.000000, 380.000000)">
                        <g id="Boost" transform="translate(169.210682, 4.625000)">
                            <g id="Oval-Copy-2">
                                <use fill="black" fill-opacity="1" filter="url(#filter-9)" xlink:href="#path-8"></use>
                                <use fill="url(#radialGradient-7)" fill-rule="evenodd" xlink:href="#path-8"></use>
                            </g>
                            <path d="M17.3041722,6.82525315 L16.165134,12.3140224 C16.0392427,12.9206642 16.3716882,13.5291169 16.950205,13.7508853 L17.5375216,13.976027 C18.0894703,14.1876109 18.3653906,14.8065763 18.1538068,15.358525 C18.0962362,15.5087065 18.005559,15.643982 17.8885147,15.7542973 L11.3755859,21.8927857 C11.2062757,22.0523619 10.9396607,22.044471 10.7800846,21.8751609 C10.6781085,21.7669644 10.6407178,21.6130255 10.6816995,21.4701056 L12.1743804,16.2645119 C12.3664725,15.5946075 11.9800225,14.8956342 11.3105392,14.7020796 L10.8334209,14.5641398 C10.2749746,14.4026873 9.95314766,13.8190939 10.1146002,13.2606477 C10.1627546,13.094087 10.2513086,12.9420011 10.3723929,12.8179048 L16.5901754,6.44545534 C16.7526572,6.27893175 17.0193689,6.27565528 17.1858925,6.43813715 C17.2887921,6.53853933 17.3333846,6.68448532 17.3041722,6.82525315 Z" id="Rectangle-7" fill="#A840FF"></path>
                        </g>
                        <g id="save" transform="translate(84.945494, 4.625000)">
                            <g id="Oval">
                                <use fill="black" fill-opacity="1" filter="url(#filter-11)" xlink:href="#path-10"></use>
                                <use fill="url(#radialGradient-7)" fill-rule="evenodd" xlink:href="#path-10"></use>
                            </g>
                            <path d="M14.0545057,17.6328125 L10.6279013,19.4112764 C10.3410922,19.5601351 9.98791378,19.4483041 9.83905516,19.161495 C9.78006683,19.047841 9.75999213,18.9179736 9.78191029,18.7918131 L10.434377,15.0362279 L7.67743259,12.3831946 C7.44459355,12.1591314 7.43747931,11.7887389 7.6615425,11.5558999 C7.75191094,11.461992 7.87104577,11.4009438 8.0000522,11.3824375 L11.8171431,10.8348658 L13.5311642,7.4062371 C13.6756562,7.11720357 14.0270982,7.00002954 14.3161317,7.14452158 C14.4293917,7.2011419 14.5212269,7.29297708 14.5778472,7.4062371 L16.2918683,10.8348658 L20.1089592,11.3824375 C20.428823,11.4283228 20.6509265,11.724821 20.6050412,12.0446849 C20.5865349,12.1736913 20.5254867,12.2928261 20.4315788,12.3831946 L17.6746345,15.0362279 L18.3271011,18.7918131 C18.3824122,19.1101825 18.1691613,19.4131103 17.850792,19.4684213 C17.7246315,19.4903395 17.5947642,19.4702648 17.4811101,19.4112764 L14.0545057,17.6328125 Z" id="Star" fill="url(#linearGradient-12)"></path>
                        </g>
                        <g id="revers" transform="translate(0.386538, 4.625000)">
                            <g id="Oval">
                                <use fill="black" fill-opacity="1" filter="url(#filter-14)" xlink:href="#path-13"></use>
                                <use fill="url(#radialGradient-7)" fill-rule="evenodd" xlink:href="#path-13"></use>
                            </g>
                            <path d="M8.06498785,14.4937953 C8.06498785,17.611264 10.6372846,20.1384718 13.8103735,20.1384718 C16.9834623,20.1384718 19.5557591,17.611264 19.5557591,14.4937953 C19.5557591,11.3763266 16.9834623,8.84911884 13.8103735,8.84911884" id="Oval-2" stroke="url(#linearGradient-15)" stroke-width="2.92546789" stroke-linecap="round" stroke-linejoin="round"></path>
                            <path d="M10.0932927,8.10105314 L13.2305911,5.54664189 C14.2218901,4.63809625 14.7175396,4.8683846 14.7175396,6.23750694 C14.7175396,7.60662928 14.7175396,9.36669 14.7175396,11.5176891 C14.7175396,12.7467174 14.3016444,13.0325105 13.4698541,12.3750683 C11.7153178,10.9882933 10.6112855,10.076244 10.1539364,9.64162494 C9.59623612,9.11164216 9.57602156,8.59811823 10.0932927,8.10105314 Z" id="Triangle" fill="#FFBD00"></path>
                        </g>
                        <g id="Down" transform="translate(37.787912, 0.000000)">
                            <g id="Oval">
                                <use fill="black" fill-opacity="1" filter="url(#filter-18)" xlink:href="#path-17"></use>
                                <use fill="url(#radialGradient-16)" fill-rule="evenodd" xlink:href="#path-17"></use>
                            </g>
                        </g>
                        <g id="Up" transform="translate(122.207715, 0.000000)">
                            <g id="Oval-Copy">
                                <use fill="black" fill-opacity="1" filter="url(#filter-21)" xlink:href="#path-20"></use>
                                <use fill="url(#radialGradient-19)" fill-rule="evenodd" xlink:href="#path-20"></use>
                            </g>
                        </g>
                        <g id="Dislike" transform="translate(45.240356, 8.093750)" fill="url(#linearGradient-22)">
                            <path d="M8.54312458,0.788935418 C8.21922606,1.08128048 9.08895375,1.11954167 8.89602158,2.1427612 C8.83910571,2.44461566 8.53315005,2.52976672 8.41920049,2.75162935 C8.14688637,3.28183177 7.9982074,3.79409231 7.94237941,4.14499184 C7.86319026,4.64272492 8.41346016,5.09979715 8.12305061,5.54675396 C7.83264106,5.99371077 7.15138001,5.94425599 6.55899496,6.43879186 C5.96660991,6.93332772 5.69313485,7.40240625 5.58359907,8.03819334 C5.47406328,8.67398043 6.02533475,9.30411435 5.7783878,9.68312362 C5.53144085,10.0621329 5.0628248,9.96535217 4.3143139,10.4681814 C3.56580299,10.9710107 3.18760389,11.7226117 3.08919549,12.5765911 C2.9907871,13.4305704 3.45733957,13.9046119 3.25977265,14.224078 C3.06220574,14.5435442 2.08708703,15.029137 1.68493509,15.3731023 C1.28278314,15.7170677 0.219131503,16.5860948 0.689714781,18.2164766 C0.953497145,19.1303764 2.14279342,19.7254949 3.33312324,19.9301422 C4.87822206,20.1957831 6.23142793,19.9983533 7.44708134,19.7837992 C8.66273476,19.569245 11.1062247,20.0064678 13.6437853,20.0652904 C16.1813459,20.124113 17.6628018,20.061447 18.7297652,19.9301422 C19.7967285,19.7988374 20.4095464,19.5822266 20.7796768,19.2551459 C21.1498073,18.9280652 22.0749425,17.9932608 21.5977467,16.6831816 C21.413942,16.1785694 20.7840431,15.5426009 20.2829312,15.2145166 C19.4830514,14.6908252 18.7679708,14.5787879 18.8826048,14.224078 C19.0690552,13.6471482 19.4579654,12.2861019 18.5619087,11.3093098 C17.6658519,10.3325177 16.6634554,10.5635077 16.6634554,9.98766596 C16.6634554,9.41182427 17.0881837,8.98416819 16.8012241,8.15717224 C16.5142646,7.33017629 16.2324003,7.17150412 15.6528179,6.82976891 C15.0732355,6.4880337 14.978323,6.4462539 14.4235683,6.19426408 C13.8688136,5.94227426 14.88806,5.05395268 13.6437853,3.57620068 C12.3995106,2.09844869 11.1039899,1.32343099 10.2941105,0.880870921 C9.70897366,0.561121833 9.24205237,0.436601581 8.89602158,0.539120269 C8.76311618,0.578496209 8.63300683,0.707809291 8.54312458,0.788935418 Z" id="Path-2"></path>
                        </g>
                        <g id="Award-3" transform="translate(131.020772, 8.671875)" fill="url(#linearGradient-23)">
                            <path d="M3.04962646,0.430377822 C3.45548172,0.143459274 5.66972567,-6.45566657e-15 9.69235831,0 C13.714991,6.45566657e-15 16.0838574,0.143459274 16.7989577,0.430377822 C16.6631683,0.947313894 16.5914767,1.22593806 16.5838827,1.26625032 C16.5724918,1.32671871 15.8382623,1.30350699 15.8382623,1.26625032 C15.8382623,1.24141254 15.8382623,1.5251348 15.8382623,2.1174171 C15.9453342,1.93168744 16.044992,1.81533764 16.1372355,1.7683677 C17.0140443,1.32190111 18.0005885,1.46121025 18.8635913,1.98328323 C19.4751167,2.3532251 20.0119468,2.93648279 19.9619812,3.69821047 C19.9303065,4.18109224 19.889584,4.6598574 19.21216,5.36560145 C18.5347361,6.0713455 16.1102249,7.34171305 15.966744,7.4380291 C15.8710901,7.50223981 15.3872605,7.78662951 14.5152551,8.29119822 C14.2421687,9.0407755 13.8529279,9.6494386 13.3475327,10.1171875 C12.8421376,10.5849364 12.3925414,10.9165832 11.9987443,11.1121279 C12.1391452,11.406681 12.1147533,11.6845616 11.9255688,11.9457696 C11.7363842,12.2069777 11.4948616,12.312118 11.201001,12.2611905 C11.0772927,13.7813837 11.3432071,15.1175853 11.9987443,16.2697951 C12.6542814,17.422005 13.6150068,18.2315642 14.8809204,18.6984727 C15.7184638,18.9131127 16.1372355,19.0204327 16.1372355,19.0204327 C16.1372355,19.0204327 16.1372355,19.4250801 16.1372355,20.234375 L3.65840935,20.234375 C3.65840935,19.4250801 3.65840935,19.0204327 3.65840935,19.0204327 C3.65840935,19.0204327 4.0519366,18.9131127 4.83899112,18.6984727 C6.45663513,18.160808 7.56697699,17.3512488 8.17001669,16.2697951 C9.07457625,14.6476146 8.68605465,12.7208177 8.68605465,12.2611905 C8.68605465,12.2124413 8.18785555,12.2435122 7.98280765,11.9457696 C7.84610905,11.7472746 7.81674777,11.469394 7.89472381,11.1121279 C7.2923823,10.8388237 6.7948371,10.5071769 6.40208822,10.1171875 C6.00933934,9.72719806 5.68597329,9.17966352 5.43199008,8.47458387 C4.5987226,7.99749612 4.00752903,7.65197786 3.65840935,7.4380291 C3.13472983,7.11710596 0.660721512,6.17880362 0.140431911,4.49540086 C-0.379857691,2.81199811 0.653733333,1.98328323 1.4731261,1.71838444 C2.29251887,1.45348565 4.08938285,1.42881142 4.08938285,2.1174171 C4.08938285,2.16476685 4.08938285,2.05194426 4.08938285,1.7683677 C4.08938285,1.48479114 4.08938285,1.24277788 4.08938285,1.26625032 C4.08938285,1.30611956 3.27926784,1.3043625 3.24971864,1.23054083 C3.22598246,1.17124163 3.15928507,0.904520628 3.04962646,0.430377822 Z M3.48694271,2.99648786 C3.50001351,2.94711749 3.42113888,2.88472481 3.25031882,2.80930983 C2.06077186,2.80930983 1.514021,3.21295961 1.61006624,4.02025917 C1.6816809,4.62220967 2.28490096,5.44851965 3.48694271,6.38596357 C3.89700659,6.70576269 4.94807459,7.34731328 4.94807459,7.34731328 C4.94807459,7.34731328 4.66098018,6.69352246 4.46566761,5.7880142 C4.22967768,4.6939175 4.0812596,3.31221148 4.13077181,3.31221148 C4.22126185,3.31221148 3.36509137,3.45673864 3.48694271,2.99648786 Z M15.7304994,3.33741306 C15.7304994,3.33741306 15.5540155,4.8927796 15.4233184,5.53694081 C15.336187,5.96638163 15.169721,6.54027433 14.9239205,7.25861894 C17.1060323,5.86976376 18.2940648,4.83873961 18.4880181,4.16554648 C18.7789481,3.15575678 16.4852125,2.47880105 16.4852125,2.98563648 C16.4852125,3.49247191 15.7304994,3.33741306 15.7304994,3.33741306 Z" id="Combined-Shape"></path>
                        </g>
                    </g>
                    <g id="Iphone-Actions" transform="translate(19.000000, 84.000000)">
                        <text id="2,400" font-family="Nunito-Regular, Nunito" font-size="7.33199998" font-weight="normal" fill="#909090">
                            <tspan x="93.6239998" y="7.282">2,400 </tspan>
                        </text>
                        <g id="Upvote/DownVote">
                            <path d="M0.32914482,4.7067908 C0.119835524,4.38322567 0,4.00733734 0,3.6063512 C0,2.39333993 1.09662094,1.41 2.44937142,1.41 C3.18093286,1.41 3.83758669,1.69758742 4.28639999,2.1535613 C4.73521329,1.69758742 5.39186712,1.41 6.12342856,1.41 C7.47617904,1.41 8.57279998,2.39333993 8.57279998,3.6063512 C8.57279998,4.00293789 8.4555796,4.37497447 8.25051217,4.69612188 C8.12435537,4.99957317 7.71533686,5.48707527 7.02345666,6.15862818 C6.39460788,6.76900152 5.63173087,7.41072821 4.73482562,8.08380826 L4.7348413,8.08382916 C4.53912709,8.23070234 4.2703572,8.23221478 4.07300245,8.0875535 C3.14178728,7.4049716 2.33815196,6.7619965 1.66209649,6.15862818 C0.928643918,5.50403391 0.484326696,5.02008812 0.32914482,4.7067908 Z" id="Combined-Shape" fill="#D8D8D8"></path>
                            <text id="14.7K" font-family="Nunito-Regular, Nunito" font-size="7.33199998" font-weight="normal" fill="#909090">
                                <tspan x="16.7775157" y="7.282">14.7K</tspan>
                            </text>
                        </g>
                        <path d="M78.7400397,1.128 L83.1279598,1.128 C84.2524337,1.128 85.1639998,2.03956613 85.1639998,3.16403994 L85.1639998,6.01065909 C85.1639998,6.85722374 84.4777235,7.54349998 83.6311589,7.54349998 L82.4503259,7.54343513 C82.2425296,7.54343513 82.055591,7.6697296 81.9780363,7.86251068 C81.6459944,8.68788181 81.2979822,9.10056738 80.9339998,9.10056738 C80.5701265,9.10056738 80.222927,8.68812941 79.8924012,7.86325346 L79.8924654,7.86322773 C79.8150802,7.67010169 79.6279642,7.54349998 79.419911,7.54349998 L78.2381866,7.54349998 C77.3908786,7.54349998 76.7039998,6.85662116 76.7039998,6.0093132 L76.7039998,3.16403994 C76.7039998,2.03956613 77.6155659,1.128 78.7400397,1.128 Z" id="Rectangle-9" fill="#D8D8D8"></path>
                        <g id="Share" transform="translate(152.562000, 0.564000)" fill="#D8D8D8">
                            <path d="M8.3904889,4.13888219 L4.34937342,6.76560725 C4.08820779,6.93536491 3.73887545,6.86126411 3.56911779,6.60009848 C3.50965151,6.5086119 3.47799999,6.40183983 3.47799999,6.29272506 L3.47799999,1.03927493 C3.47799999,0.727786328 3.73051139,0.475274928 4.04199999,0.475274928 C4.15111476,0.475274928 4.25788683,0.506926448 4.34937342,0.566392728 L8.3904889,3.19311779 C8.65165453,3.36287545 8.72575533,3.71220779 8.55599767,3.97337342 C8.51300898,4.03950988 8.45662536,4.09589349 8.3904889,4.13888219 Z" id="Triangle-2"></path>
                            <path d="M1.11745236,3.82146405 C1.66470655,2.98538741 2.60822243,2.46356606 3.94799999,2.25599999 L3.94799999,5.35797717 L3.94102942,5.36039944 C2.79098245,5.76004096 1.82762587,6.56790513 1.23372013,7.63073031 L1.14633289,7.78694662 C0.994409202,8.05882195 0.650852215,8.15606198 0.378976882,8.00413829 C0.221859722,7.91634136 0.116089693,7.75881951 0.094291826,7.58016074 C0.0385521419,7.12330948 0.0122583151,6.87307224 0.0154103454,6.82944903 C0.126308264,5.29465288 0.736580202,4.40334779 1.11745236,3.82146405 Z" id="Rectangle-10"></path>
                        </g>
                        <text id="Share" font-family="Nunito-Regular, Nunito" font-size="7.33199998" font-weight="normal" fill="#909090">
                            <tspan x="166.38" y="7.282">Share</tspan>
                        </text>
                    </g>
                    <g id="Upper-Nav" transform="translate(69.000000, 37.000000)" fill="#00FFC1" font-family="Nunito-Bold, Nunito" font-size="15" font-weight="bold">
                        <text id="Memestacks">
                            <tspan x="0" y="15">Memestacks</tspan>
                        </text>
                    </g>
                </g>
            </g>
        </g>
    </g>
</svg>