<?xml version="1.0" encoding="UTF-8"?>
<svg width="22px" height="22px" viewBox="0 0 22 22" version="1.1" xmlns="http://www.w3.org/2000/svg" xmlns:xlink="http://www.w3.org/1999/xlink">
    <!-- Generator: Sketch 49.3 (51167) - http://www.bohemiancoding.com/sketch -->
    <title>Fill 23@1x</title>
    <desc>Created with Sketch.</desc>
    <defs></defs>
    <g id="Page-1" stroke="none" stroke-width="1" fill="none" fill-rule="evenodd">
        <g id="Desktop-Home" transform="translate(-422.000000, -1612.000000)" fill="#444444">
            <g id="Footer" transform="translate(0.000000, 1410.000000)">
                <g id="Social" transform="translate(369.000000, 199.000000)">
                    <path d="M71.52,22.16 L56.16,22.16 C55.80672,22.16 55.52,21.87328 55.52,21.52 L55.52,11.92 L58.08,11.92 C57.74656,12.4 57.63392,13.29536 57.63392,13.86368 C57.63392,17.29088 60.4288,20.07936 63.86368,20.07936 C67.2992,20.07936 70.09408,17.29088 70.09408,13.86368 C70.09408,13.29536 70.01344,12.41344 69.6,11.92 L72.16,11.92 L72.16,21.52 C72.16,21.87328 71.87328,22.16 71.52,22.16 M63.86368,9.93472 C66.03904,9.93472 67.80224,11.69408 67.80224,13.86368 C67.80224,16.03392 66.03904,17.79328 63.86368,17.79328 C61.68896,17.79328 59.92576,16.03392 59.92576,13.86368 C59.92576,11.69408 61.68896,9.93472 63.86368,9.93472 M68.96,6.16 L70.88,6.16 C71.23328,6.16 71.52,6.44672 71.52,6.8 L71.52,8.72 C71.52,9.07328 71.23328,9.36 70.88,9.36 L68.96,9.36 C68.60672,9.36 68.32,9.07328 68.32,8.72 L68.32,6.8 C68.32,6.44672 68.60672,6.16 68.96,6.16 M71.64544,3.6 L56.03456,3.6 C54.68992,3.6 53.6,4.68736 53.6,6.0288 L53.6,21.6512 C53.6,22.99264 54.68992,24.08 56.03456,24.08 L71.64544,24.08 C72.99008,24.08 74.08,22.99264 74.08,21.6512 L74.08,6.0288 C74.08,4.68736 72.99008,3.6 71.64544,3.6" id="Fill-23"></path>
                </g>
            </g>
        </g>
    </g>
</svg>