<?xml version="1.0" encoding="UTF-8"?>
<svg width="22px" height="23px" viewBox="0 0 22 23" version="1.1" xmlns="http://www.w3.org/2000/svg" xmlns:xlink="http://www.w3.org/1999/xlink">
    <!-- Generator: Sketch 49.3 (51167) - http://www.bohemiancoding.com/sketch -->
    <title>Pornhub@1x</title>
    <desc>Created with Sketch.</desc>
    <defs></defs>
    <g id="Page-1" stroke="none" stroke-width="1" fill="none" fill-rule="evenodd">
        <g id="Desktop-Home" transform="translate(-583.000000, -1612.000000)" fill="#444444">
            <g id="Footer" transform="translate(0.000000, 1410.000000)">
                <g id="Social" transform="translate(369.000000, 199.000000)">
                    <g id="Pornhub" transform="translate(214.400000, 0.400000)">
                        <text id="Porn" font-family="ProductSans-Bold, Product Sans" font-size="10.3603197" font-weight="bold">
                            <tspan x="0" y="10">Porn</tspan>
                        </text>
                        <path d="M1.46056983,11.7283749 L19.7736605,11.7283749 C20.5795544,11.7283749 21.2328604,12.381681 21.2328604,13.1875749 L21.2328604,23.4364326 C21.2328604,24.2423265 20.5795544,24.8956326 19.7736605,24.8956326 C19.7691994,24.8956326 19.7647384,24.8956122 19.7602775,24.8955713 L1.44718689,24.7276071 C0.646548157,24.7202638 0.00136985048,24.0691409 0.00136985048,23.2684685 L0.00136985048,13.1875749 C0.00136985048,12.381681 0.654675935,11.7283749 1.46056983,11.7283749 Z M1.39149313,13.7900231 L1.39149313,22.2527997 L2.47888901,22.2527997 L2.47888901,19.0969878 C2.47888901,18.6084452 2.63057134,18.1809768 2.93394055,17.8145698 C3.23730975,17.4481628 3.60962092,17.2649621 4.05088523,17.2649621 C4.97281243,17.2649621 5.43376911,17.7850158 5.43376911,18.8251388 L5.43376911,22.2527997 L6.52116499,22.2527997 L6.52116499,18.6123874 C6.52116499,17.8638141 6.33008466,17.2866333 5.94791825,16.8808277 C5.56575185,16.4750221 5.02008944,16.2721224 4.31091467,16.2721224 C3.94056785,16.2721224 3.58401588,16.3666776 3.24124808,16.5557909 C2.89848027,16.7449042 2.64436312,16.9812922 2.47888901,17.2649621 L2.43161093,17.2649621 L2.47888901,16.4612347 L2.47888901,13.7900231 L1.39149313,13.7900231 Z M12.880067,22.2527997 L12.880067,16.4612347 L11.7926711,16.4612347 L11.7926711,19.6643248 C11.7926711,20.1528674 11.6468985,20.5724561 11.3553488,20.9231037 C11.0637992,21.2737512 10.7013375,21.4490723 10.267953,21.4490723 C9.33814604,21.4490723 8.86143015,20.9762962 8.83779099,20.0307299 L8.83779099,16.4612347 L7.75039511,16.4612347 L7.75039511,20.101647 C7.75039511,20.8502204 7.94147545,21.4274012 8.32364185,21.8332067 C8.70580826,22.2390123 9.25147066,22.441912 9.96064543,22.441912 C10.3309923,22.441912 10.6875442,22.3473568 11.030312,22.1582436 C11.3730798,21.9691303 11.627197,21.7327422 11.7926711,21.4490723 L11.8399492,21.4490723 L11.8399492,22.2527997 L12.880067,22.2527997 Z M17.265109,22.441912 C18.0294419,22.441912 18.6755692,22.1424872 19.2035104,21.5436285 C19.747211,20.9447698 20.0190573,20.2159067 20.0190573,19.3570172 C20.0190573,18.5060075 19.747211,17.7771444 19.2035104,17.1704059 C18.6755692,16.5715473 18.0294419,16.2721224 17.265109,16.2721224 C16.8396042,16.2721224 16.4515338,16.3627378 16.1008863,16.5439714 C15.7502388,16.7252049 15.4803624,16.9655328 15.2912491,17.2649621 L15.2439711,17.2649621 L15.2912491,16.4612347 L15.2912491,13.7900231 L14.2038533,13.7900231 L14.2038533,22.2527997 L15.2439711,22.2527997 L15.2439711,21.4490723 L15.2912491,21.4490723 C15.4803624,21.7485017 15.7502388,21.9888295 16.1008863,22.1700631 C16.4515338,22.3512966 16.8396042,22.441912 17.265109,22.441912 Z" id="Combined-Shape"></path>
                        <path d="M17.0878162,21.4490723 C17.6078777,21.4490723 18.0451956,21.2520823 18.399783,20.8580963 C18.7543704,20.47199 18.9316614,19.9716354 18.9316614,19.3570172 C18.9316614,18.7502788 18.7543704,18.2499241 18.399783,17.8559381 C18.0451956,17.4619521 17.6078777,17.2649621 17.0878162,17.2649621 C16.559875,17.2649621 16.1186173,17.4619521 15.76403,17.8559381 C15.4173223,18.2499241 15.2439711,18.7502788 15.2439711,19.3570172 C15.2439711,19.9716354 15.4173223,20.4759298 15.76403,20.8699158 C16.1186173,21.2560221 16.559875,21.4490723 17.0878162,21.4490723 Z" id="Path"></path>
                    </g>
                </g>
            </g>
        </g>
    </g>
</svg>