<?xml version="1.0" encoding="UTF-8"?>
<svg width="21px" height="18px" viewBox="0 0 21 18" version="1.1" xmlns="http://www.w3.org/2000/svg" xmlns:xlink="http://www.w3.org/1999/xlink">
    <!-- Generator: Sketch 49.3 (51167) - http://www.bohemiancoding.com/sketch -->
    <title>Fill 70@1x</title>
    <desc>Created with Sketch.</desc>
    <defs></defs>
    <g id="Page-1" stroke="none" stroke-width="1" fill="none" fill-rule="evenodd">
        <g id="Desktop-Home" transform="translate(-369.000000, -1614.000000)" fill="#444444">
            <g id="Footer" transform="translate(0.000000, 1410.000000)">
                <g id="Social" transform="translate(369.000000, 199.000000)">
                    <path d="M13.6064,16.93568 C12.84096,16.93568 12.19776,16.31488 12.19776,15.54944 C12.19776,14.784 12.84096,14.14272 13.6064,14.14272 C14.37184,14.14272 14.99264,14.784 14.99264,15.54944 C14.99264,16.31488 14.37184,16.93568 13.6064,16.93568 M13.93152,19.62624 C13.21856,20.33856 12.11904,20.6848 10.57024,20.6848 C10.56704,20.6848 10.5632,20.68416 10.55936,20.68416 C10.55616,20.68416 10.55232,20.6848 10.54848,20.6848 C8.99968,20.6848 7.9008,20.33856 7.18848,19.62624 C6.9696,19.40736 6.9696,19.05344 7.18848,18.8352 C7.40672,18.61696 7.76064,18.61696 7.97952,18.8352 C8.47104,19.32672 9.31136,19.56608 10.54848,19.56608 C10.55232,19.56608 10.55616,19.56672 10.55936,19.56672 C10.5632,19.56672 10.56704,19.56608 10.57024,19.56608 C11.80736,19.56608 12.64832,19.32672 13.14048,18.8352 C13.35936,18.61632 13.71328,18.61696 13.93152,18.8352 C14.14976,19.05408 14.14976,19.408 13.93152,19.62624 M6.12736,15.54944 C6.12736,14.78464 6.76928,14.14272 7.53408,14.14272 C8.29952,14.14272 8.92032,14.78464 8.92032,15.54944 C8.92032,16.31488 8.29952,16.93568 7.53408,16.93568 C6.76928,16.93568 6.12736,16.31488 6.12736,15.54944 M17.38496,6.71872 C17.90336,6.71872 18.32512,7.14048 18.32512,7.65824 C18.32512,8.17664 17.90336,8.5984 17.38496,8.5984 C16.86656,8.5984 16.4448,8.17664 16.4448,7.65824 C16.4448,7.14048 16.86656,6.71872 17.38496,6.71872 M20.8,14.02688 C20.8,12.66944 19.696,11.56544 18.33856,11.56544 C17.75104,11.56544 17.21152,11.7728 16.78784,12.11776 C15.28704,11.1744 13.3824,10.60608 11.3408,10.48576 L12.40576,7.11872 L15.33248,7.808 C15.40928,8.8736 16.30016,9.71712 17.38496,9.71712 C18.51968,9.71712 19.4432,8.7936 19.4432,7.65824 C19.4432,6.52352 18.51968,5.6 17.38496,5.6 C16.59136,5.6 15.90144,6.05184 15.55776,6.71168 L12.1568,5.91104 C11.872,5.84384 11.584,6.00768 11.49568,6.28672 L10.17344,10.46592 C7.97376,10.51968 5.90592,11.08992 4.29504,12.08832 C3.87712,11.76128 3.35168,11.56544 2.78144,11.56544 C1.424,11.56544 0.32,12.66944 0.32,14.02688 C0.32,14.86592 0.7424,15.60768 1.3856,16.05184 C1.35872,16.24704 1.34464,16.44352 1.34464,16.64256 C1.34464,18.3392 2.33088,19.91744 4.1216,21.08608 C5.83808,22.20672 8.11008,22.82368 10.5184,22.82368 C12.92672,22.82368 15.19872,22.20672 16.9152,21.08608 C18.70592,19.91744 19.69216,18.3392 19.69216,16.64256 C19.69216,16.46144 19.68,16.2816 19.6576,16.10304 C20.34368,15.66592 20.8,14.89856 20.8,14.02688" id="Fill-70"></path>
                </g>
            </g>
        </g>
    </g>
</svg>