<?xml version="1.0" encoding="UTF-8"?>
<svg width="64px" height="64px" viewBox="0 0 64 64" version="1.1" xmlns="http://www.w3.org/2000/svg" xmlns:xlink="http://www.w3.org/1999/xlink">
    <!-- Generator: Sketch 50 (54983) - http://www.bohemiancoding.com/sketch -->
    <title>Award 3@1x</title>
    <desc>Created with Sketch.</desc>
    <defs>
        <radialGradient cx="50%" cy="50%" fx="50%" fy="50%" r="100.330033%" gradientTransform="translate(0.500000,0.500000),scale(1.000000,0.996711),rotate(90.000000),translate(-0.500000,-0.500000)" id="radialGradient-1">
            <stop stop-color="#FFFFFF" offset="0%"></stop>
            <stop stop-color="#F7F7F7" offset="100%"></stop>
        </radialGradient>
        <linearGradient x1="100%" y1="17.9500191%" x2="50%" y2="100%" id="linearGradient-2">
            <stop stop-color="#7CE087" offset="0%"></stop>
            <stop stop-color="#26F1E7" offset="100%"></stop>
        </linearGradient>
    </defs>
    <g id="Page-1" stroke="none" stroke-width="1" fill="none" fill-rule="evenodd">
        <g id="MEME-SWIPING" transform="translate(-227.000000, -587.000000)">
            <g id="Buttons3" transform="translate(19.000000, 587.000000)">
                <g id="Award-3" transform="translate(208.000000, 0.000000)">
                    <g id="Up" fill="url(#radialGradient-1)">
                        <ellipse id="Oval-Copy" cx="31.8947368" cy="32" rx="31.8947368" ry="32"></ellipse>
                    </g>
                    <path d="M20.1905258,15.7444373 C20.8812997,15.2481458 24.6499876,15 31.4965896,15 C38.3431917,15 42.3750503,15.2481458 43.5921654,15.7444373 C43.3610491,16.638597 43.2390285,17.1205415 43.2261034,17.1902708 C43.2067158,17.2948648 41.9570424,17.2547148 41.9570424,17.1902708 C41.9570424,17.1473082 41.9570424,17.638071 41.9570424,18.6625593 C42.139281,18.3412972 42.3089005,18.1400435 42.4659008,18.0587982 C43.9582471,17.2865316 45.6373652,17.5274988 47.1062135,18.430544 C48.1470421,19.0704434 49.0607377,20.0793216 48.9756952,21.3969046 C48.9217843,22.2321596 48.8524738,23.0602939 47.6994845,24.2810403 C46.5464952,25.5017868 42.4199282,27.6991793 42.1757209,27.8657801 C42.012916,27.9768472 41.1894282,28.4687646 39.7052575,29.3415321 C39.2404588,30.6380982 38.5779631,31.6909208 37.7177704,32.5 C36.8575777,33.3090792 36.0923559,33.8827385 35.4221051,34.220978 C35.6610703,34.7304753 35.6195549,35.2111336 35.297559,35.6629529 C34.9755631,36.1147722 34.5644867,36.2966365 34.0643299,36.2085457 C33.8537759,38.8380691 34.3063676,41.1493367 35.4221051,43.1423484 C36.5378426,45.13536 38.1730166,46.5356786 40.3276272,47.3433041 C41.753143,47.7145733 42.4659008,47.9002079 42.4659008,47.9002079 C42.4659008,47.9002079 42.4659008,48.6001386 42.4659008,50 L21.2266866,50 C21.2266866,48.6001386 21.2266866,47.9002079 21.2266866,47.9002079 C21.2266866,47.9002079 21.896478,47.7145733 23.2360606,47.3433041 C25.9893234,46.4132895 27.8791477,45.0129709 28.9055335,43.1423484 C30.4451121,40.3364145 29.7838405,37.0035766 29.7838405,36.2085457 C29.7838405,36.1242228 28.9358956,36.177967 28.5868999,35.6629529 C28.3542361,35.3196101 28.3042626,34.8389518 28.4369794,34.220978 C27.411782,33.7482357 26.56495,33.1745763 25.8964835,32.5 C25.228017,31.8254237 24.6776414,30.8783369 24.2453568,29.6587397 C22.8271188,28.8335068 21.8208954,28.2358536 21.2266866,27.8657801 C20.3353735,27.3106698 16.1245614,25.6876603 15.2390179,22.7758285 C14.3534745,19.8639967 16.1126673,18.430544 17.5072904,17.9723406 C18.9019134,17.5141373 21.9602122,17.4714576 21.9602122,18.6625593 C21.9602122,18.7444616 21.9602122,18.549309 21.9602122,18.0587982 C21.9602122,17.5682874 21.9602122,17.1496698 21.9602122,17.1902708 C21.9602122,17.2592338 20.5813801,17.2561946 20.5310868,17.1285031 C20.4906873,17.0259315 20.377167,16.5645762 20.1905258,15.7444373 Z M20.9348469,20.1831141 C20.9570937,20.0977167 20.8228475,19.9897943 20.5321083,19.8593467 C18.5074753,19.8593467 17.5768943,20.5575518 17.7403653,21.9539618 C17.8622549,22.9951735 18.8889476,24.4244664 20.9348469,26.045991 C21.6327839,26.5991571 23.4217229,27.7088662 23.4217229,27.7088662 C23.4217229,27.7088662 22.9330824,26.5779848 22.6006565,25.0117002 C22.1989969,23.1192086 21.9463863,20.7292307 22.0306571,20.7292307 C22.1846729,20.7292307 20.7274535,20.9792236 20.9348469,20.1831141 Z M41.7736278,20.7728226 C41.7736278,20.7728226 41.4732486,23.4631863 41.2507995,24.5774111 C41.1025,25.3202277 40.8191716,26.312907 40.4008141,27.555449 C44.1148125,25.1531049 46.1368679,23.3697118 46.4669804,22.2052696 C46.9621491,20.4586063 43.0581647,19.2876559 43.0581647,20.1643442 C43.0581647,21.0410325 41.7736278,20.7728226 41.7736278,20.7728226 Z" id="Combined-Shape" fill="url(#linearGradient-2)"></path>
                </g>
            </g>
        </g>
    </g>
</svg>